<svg width="163" height="312" viewBox="0 0 163 312" fill="none" xmlns="http://www.w3.org/2000/svg">
<path d="M3.712 9.312H9.104V11.328H3.712V9.312ZM3.904 13.92H10V16H1.328V4.8H9.792V6.88H3.904V13.92ZM17.1184 7.264C17.801 7.264 18.409 7.40267 18.9424 7.68C19.4864 7.94667 19.913 8.36267 20.2224 8.928C20.5317 9.48267 20.6864 10.1973 20.6864 11.072V16H18.1904V11.456C18.1904 10.7627 18.0357 10.2507 17.7264 9.92C17.4277 9.58933 17.001 9.424 16.4464 9.424C16.0517 9.424 15.6944 9.50933 15.3744 9.68C15.065 9.84 14.8197 10.0907 14.6384 10.432C14.4677 10.7733 14.3824 11.2107 14.3824 11.744V16H11.8864V7.392H14.2704V9.776L13.8224 9.056C14.1317 8.48 14.5744 8.03733 15.1504 7.728C15.7264 7.41867 16.3824 7.264 17.1184 7.264ZM27.2834 16.128C26.302 16.128 25.438 15.936 24.6914 15.552C23.9554 15.168 23.3847 14.6453 22.9794 13.984C22.574 13.312 22.3714 12.5493 22.3714 11.696C22.3714 10.832 22.5687 10.0693 22.9634 9.408C23.3687 8.736 23.918 8.21333 24.6114 7.84C25.3047 7.456 26.0887 7.264 26.9634 7.264C27.806 7.264 28.5634 7.44533 29.2354 7.808C29.918 8.16 30.4567 8.672 30.8514 9.344C31.246 10.0053 31.4434 10.8 31.4434 11.728C31.4434 11.824 31.438 11.936 31.4274 12.064C31.4167 12.1813 31.406 12.2933 31.3954 12.4H24.4034V10.944H30.0834L29.1234 11.376C29.1234 10.928 29.0327 10.5387 28.8514 10.208C28.67 9.87733 28.4194 9.62133 28.0994 9.44C27.7794 9.248 27.406 9.152 26.9794 9.152C26.5527 9.152 26.174 9.248 25.8434 9.44C25.5234 9.62133 25.2727 9.88267 25.0914 10.224C24.91 10.5547 24.8194 10.9493 24.8194 11.408V11.792C24.8194 12.2613 24.9207 12.6773 25.1234 13.04C25.3367 13.392 25.63 13.664 26.0034 13.856C26.3874 14.0373 26.8354 14.128 27.3474 14.128C27.806 14.128 28.206 14.0587 28.5474 13.92C28.8994 13.7813 29.2194 13.5733 29.5074 13.296L30.8354 14.736C30.4407 15.184 29.9447 15.5307 29.3474 15.776C28.75 16.0107 28.062 16.128 27.2834 16.128ZM33.1051 16V7.392H35.4891V9.824L35.1531 9.12C35.4091 8.512 35.8198 8.05333 36.3851 7.744C36.9505 7.424 37.6385 7.264 38.4491 7.264V9.568C38.3425 9.55733 38.2465 9.552 38.1611 9.552C38.0758 9.54133 37.9851 9.536 37.8891 9.536C37.2065 9.536 36.6518 9.73333 36.2251 10.128C35.8091 10.512 35.6011 11.1147 35.6011 11.936V16H33.1051ZM43.9188 19.232C43.1081 19.232 42.3241 19.1307 41.5668 18.928C40.8201 18.736 40.1961 18.4427 39.6948 18.048L40.6868 16.256C41.0494 16.5547 41.5081 16.7893 42.0628 16.96C42.6281 17.1413 43.1828 17.232 43.7268 17.232C44.6121 17.232 45.2521 17.0347 45.6468 16.64C46.0521 16.2453 46.2548 15.6587 46.2548 14.88V13.584L46.4148 11.424L46.3828 9.248V7.392H48.7508V14.56C48.7508 16.16 48.3348 17.3387 47.5028 18.096C46.6708 18.8533 45.4761 19.232 43.9188 19.232ZM43.5348 15.584C42.7348 15.584 42.0094 15.4133 41.3588 15.072C40.7188 14.72 40.2014 14.2347 39.8068 13.616C39.4228 12.9867 39.2308 12.256 39.2308 11.424C39.2308 10.5813 39.4228 9.85067 39.8068 9.232C40.2014 8.60267 40.7188 8.11733 41.3588 7.776C42.0094 7.43467 42.7348 7.264 43.5348 7.264C44.2601 7.264 44.9001 7.41333 45.4548 7.712C46.0094 8 46.4414 8.45333 46.7508 9.072C47.0601 9.68 47.2148 10.464 47.2148 11.424C47.2148 12.3733 47.0601 13.1573 46.7508 13.776C46.4414 14.384 46.0094 14.8373 45.4548 15.136C44.9001 15.4347 44.2601 15.584 43.5348 15.584ZM44.0308 13.536C44.4681 13.536 44.8574 13.4507 45.1988 13.28C45.5401 13.0987 45.8068 12.848 45.9988 12.528C46.1908 12.208 46.2868 11.84 46.2868 11.424C46.2868 10.9973 46.1908 10.6293 45.9988 10.32C45.8068 10 45.5401 9.75467 45.1988 9.584C44.8574 9.40267 44.4681 9.312 44.0308 9.312C43.5934 9.312 43.2041 9.40267 42.8628 9.584C42.5214 9.75467 42.2494 10 42.0468 10.32C41.8548 10.6293 41.7588 10.9973 41.7588 11.424C41.7588 11.84 41.8548 12.208 42.0468 12.528C42.2494 12.848 42.5214 13.0987 42.8628 13.28C43.2041 13.4507 43.5934 13.536 44.0308 13.536ZM52.1619 19.232C51.7139 19.232 51.2712 19.1627 50.8339 19.024C50.3965 18.8853 50.0392 18.6933 49.7619 18.448L50.6739 16.672C50.8659 16.8427 51.0845 16.976 51.3299 17.072C51.5859 17.168 51.8365 17.216 52.0819 17.216C52.4339 17.216 52.7112 17.1307 52.9139 16.96C53.1272 16.8 53.3192 16.528 53.4899 16.144L53.9379 15.088L54.1299 14.816L57.2179 7.392H59.6179L55.7299 16.528C55.4525 17.2213 55.1325 17.7653 54.7699 18.16C54.4179 18.5547 54.0232 18.832 53.5859 18.992C53.1592 19.152 52.6845 19.232 52.1619 19.232ZM53.6339 16.336L49.7939 7.392H52.3699L55.3459 14.592L53.6339 16.336ZM65.3436 16V4.8H70.1916C71.1943 4.8 72.0583 4.96533 72.7836 5.296C73.509 5.616 74.069 6.08 74.4636 6.688C74.8583 7.296 75.0556 8.02133 75.0556 8.864C75.0556 9.696 74.8583 10.416 74.4636 11.024C74.069 11.6213 73.509 12.08 72.7836 12.4C72.0583 12.72 71.1943 12.88 70.1916 12.88H66.7836L67.9356 11.744V16H65.3436ZM72.4636 16L69.6636 11.936H72.4316L75.2636 16H72.4636ZM67.9356 12.032L66.7836 10.816H70.0476C70.8476 10.816 71.445 10.6453 71.8396 10.304C72.2343 9.952 72.4316 9.472 72.4316 8.864C72.4316 8.24533 72.2343 7.76533 71.8396 7.424C71.445 7.08267 70.8476 6.912 70.0476 6.912H66.7836L67.9356 5.68V12.032ZM81.2053 16.128C80.2239 16.128 79.3599 15.936 78.6133 15.552C77.8773 15.168 77.3066 14.6453 76.9013 13.984C76.4959 13.312 76.2933 12.5493 76.2933 11.696C76.2933 10.832 76.4906 10.0693 76.8853 9.408C77.2906 8.736 77.8399 8.21333 78.5333 7.84C79.2266 7.456 80.0106 7.264 80.8853 7.264C81.7279 7.264 82.4853 7.44533 83.1573 7.808C83.8399 8.16 84.3786 8.672 84.7733 9.344C85.1679 10.0053 85.3653 10.8 85.3653 11.728C85.3653 11.824 85.3599 11.936 85.3493 12.064C85.3386 12.1813 85.3279 12.2933 85.3173 12.4H78.3253V10.944H84.0052L83.0453 11.376C83.0453 10.928 82.9546 10.5387 82.7733 10.208C82.5919 9.87733 82.3413 9.62133 82.0213 9.44C81.7013 9.248 81.3279 9.152 80.9013 9.152C80.4746 9.152 80.0959 9.248 79.7653 9.44C79.4453 9.62133 79.1946 9.88267 79.0133 10.224C78.8319 10.5547 78.7413 10.9493 78.7413 11.408V11.792C78.7413 12.2613 78.8426 12.6773 79.0453 13.04C79.2586 13.392 79.5519 13.664 79.9253 13.856C80.3093 14.0373 80.7573 14.128 81.2693 14.128C81.7279 14.128 82.1279 14.0587 82.4693 13.92C82.8213 13.7813 83.1413 13.5733 83.4293 13.296L84.7573 14.736C84.3626 15.184 83.8666 15.5307 83.2693 15.776C82.6719 16.0107 81.9839 16.128 81.2053 16.128ZM89.923 16.128C89.187 16.128 88.4777 16.0427 87.795 15.872C87.123 15.6907 86.5897 15.4667 86.195 15.2L87.027 13.408C87.4217 13.6533 87.8857 13.856 88.419 14.016C88.963 14.1653 89.4963 14.24 90.019 14.24C90.595 14.24 91.0003 14.1707 91.235 14.032C91.4803 13.8933 91.603 13.7013 91.603 13.456C91.603 13.2533 91.507 13.104 91.315 13.008C91.1337 12.9013 90.8883 12.8213 90.579 12.768C90.2697 12.7147 89.9283 12.6613 89.555 12.608C89.1923 12.5547 88.8243 12.4853 88.451 12.4C88.0777 12.304 87.7363 12.1653 87.427 11.984C87.1177 11.8027 86.867 11.5573 86.675 11.248C86.4937 10.9387 86.403 10.5387 86.403 10.048C86.403 9.504 86.5577 9.024 86.867 8.608C87.187 8.192 87.6457 7.86667 88.243 7.632C88.8403 7.38667 89.555 7.264 90.387 7.264C90.9737 7.264 91.571 7.328 92.179 7.456C92.787 7.584 93.2937 7.77067 93.699 8.016L92.867 9.792C92.451 9.54667 92.0297 9.38133 91.603 9.296C91.187 9.2 90.7817 9.152 90.387 9.152C89.8323 9.152 89.427 9.22667 89.171 9.376C88.915 9.52533 88.787 9.71733 88.787 9.952C88.787 10.1653 88.8777 10.3253 89.059 10.432C89.251 10.5387 89.5017 10.624 89.811 10.688C90.1203 10.752 90.4563 10.8107 90.819 10.864C91.1923 10.9067 91.5657 10.976 91.939 11.072C92.3123 11.168 92.6483 11.3067 92.947 11.488C93.2563 11.6587 93.507 11.8987 93.699 12.208C93.891 12.5067 93.987 12.9013 93.987 13.392C93.987 13.9253 93.827 14.4 93.507 14.816C93.187 15.2213 92.723 15.5413 92.115 15.776C91.5177 16.0107 90.787 16.128 89.923 16.128ZM99.623 16.128C98.7057 16.128 97.8897 15.936 97.175 15.552C96.471 15.168 95.911 14.6453 95.495 13.984C95.0897 13.312 94.887 12.5493 94.887 11.696C94.887 10.832 95.0897 10.0693 95.495 9.408C95.911 8.736 96.471 8.21333 97.175 7.84C97.8897 7.456 98.7057 7.264 99.623 7.264C100.53 7.264 101.34 7.456 102.055 7.84C102.77 8.21333 103.33 8.73067 103.735 9.392C104.14 10.0533 104.343 10.8213 104.343 11.696C104.343 12.5493 104.14 13.312 103.735 13.984C103.33 14.6453 102.77 15.168 102.055 15.552C101.34 15.936 100.53 16.128 99.623 16.128ZM99.623 14.08C100.039 14.08 100.412 13.984 100.743 13.792C101.074 13.6 101.335 13.328 101.527 12.976C101.719 12.6133 101.815 12.1867 101.815 11.696C101.815 11.1947 101.719 10.768 101.527 10.416C101.335 10.064 101.074 9.792 100.743 9.6C100.412 9.408 100.039 9.312 99.623 9.312C99.207 9.312 98.8337 9.408 98.503 9.6C98.1723 9.792 97.9057 10.064 97.703 10.416C97.511 10.768 97.415 11.1947 97.415 11.696C97.415 12.1867 97.511 12.6133 97.703 12.976C97.9057 13.328 98.1723 13.6 98.503 13.792C98.8337 13.984 99.207 14.08 99.623 14.08ZM109.643 16.128C108.929 16.128 108.289 15.9893 107.723 15.712C107.169 15.4347 106.737 15.0133 106.427 14.448C106.118 13.872 105.963 13.1413 105.963 12.256V7.392H108.459V11.888C108.459 12.6027 108.609 13.1307 108.907 13.472C109.217 13.8027 109.649 13.968 110.203 13.968C110.587 13.968 110.929 13.888 111.227 13.728C111.526 13.5573 111.761 13.3013 111.931 12.96C112.102 12.608 112.187 12.1707 112.187 11.648V7.392H114.683V16H112.315V13.632L112.747 14.32C112.459 14.9173 112.033 15.3707 111.467 15.68C110.913 15.9787 110.305 16.128 109.643 16.128ZM116.996 16V7.392H119.38V9.824L119.044 9.12C119.3 8.512 119.71 8.05333 120.276 7.744C120.841 7.424 121.529 7.264 122.34 7.264V9.568C122.233 9.55733 122.137 9.552 122.052 9.552C121.966 9.54133 121.876 9.536 121.78 9.536C121.097 9.536 120.542 9.73333 120.116 10.128C119.7 10.512 119.492 11.1147 119.492 11.936V16H116.996ZM127.921 16.128C126.993 16.128 126.167 15.9413 125.441 15.568C124.716 15.184 124.145 14.656 123.729 13.984C123.324 13.312 123.121 12.5493 123.121 11.696C123.121 10.832 123.324 10.0693 123.729 9.408C124.145 8.736 124.716 8.21333 125.441 7.84C126.167 7.456 126.993 7.264 127.921 7.264C128.828 7.264 129.617 7.456 130.289 7.84C130.961 8.21333 131.457 8.752 131.777 9.456L129.841 10.496C129.617 10.0907 129.335 9.792 128.993 9.6C128.663 9.408 128.3 9.312 127.905 9.312C127.479 9.312 127.095 9.408 126.753 9.6C126.412 9.792 126.14 10.064 125.937 10.416C125.745 10.768 125.649 11.1947 125.649 11.696C125.649 12.1973 125.745 12.624 125.937 12.976C126.14 13.328 126.412 13.6 126.753 13.792C127.095 13.984 127.479 14.08 127.905 14.08C128.3 14.08 128.663 13.9893 128.993 13.808C129.335 13.616 129.617 13.312 129.841 12.896L131.777 13.952C131.457 14.6453 130.961 15.184 130.289 15.568C129.617 15.9413 128.828 16.128 127.921 16.128ZM137.377 16.128C136.396 16.128 135.532 15.936 134.785 15.552C134.049 15.168 133.478 14.6453 133.073 13.984C132.668 13.312 132.465 12.5493 132.465 11.696C132.465 10.832 132.662 10.0693 133.057 9.408C133.462 8.736 134.012 8.21333 134.705 7.84C135.398 7.456 136.182 7.264 137.057 7.264C137.9 7.264 138.657 7.44533 139.329 7.808C140.012 8.16 140.55 8.672 140.945 9.344C141.34 10.0053 141.537 10.8 141.537 11.728C141.537 11.824 141.532 11.936 141.521 12.064C141.51 12.1813 141.5 12.2933 141.489 12.4H134.497V10.944H140.177L139.217 11.376C139.217 10.928 139.126 10.5387 138.945 10.208C138.764 9.87733 138.513 9.62133 138.193 9.44C137.873 9.248 137.5 9.152 137.073 9.152C136.646 9.152 136.268 9.248 135.937 9.44C135.617 9.62133 135.366 9.88267 135.185 10.224C135.004 10.5547 134.913 10.9493 134.913 11.408V11.792C134.913 12.2613 135.014 12.6773 135.217 13.04C135.43 13.392 135.724 13.664 136.097 13.856C136.481 14.0373 136.929 14.128 137.441 14.128C137.9 14.128 138.3 14.0587 138.641 13.92C138.993 13.7813 139.313 13.5733 139.601 13.296L140.929 14.736C140.534 15.184 140.038 15.5307 139.441 15.776C138.844 16.0107 138.156 16.128 137.377 16.128ZM146.095 16.128C145.359 16.128 144.65 16.0427 143.967 15.872C143.295 15.6907 142.762 15.4667 142.367 15.2L143.199 13.408C143.594 13.6533 144.058 13.856 144.591 14.016C145.135 14.1653 145.668 14.24 146.191 14.24C146.767 14.24 147.172 14.1707 147.407 14.032C147.652 13.8933 147.775 13.7013 147.775 13.456C147.775 13.2533 147.679 13.104 147.487 13.008C147.306 12.9013 147.06 12.8213 146.751 12.768C146.442 12.7147 146.1 12.6613 145.727 12.608C145.364 12.5547 144.996 12.4853 144.623 12.4C144.25 12.304 143.908 12.1653 143.599 11.984C143.29 11.8027 143.039 11.5573 142.847 11.248C142.666 10.9387 142.575 10.5387 142.575 10.048C142.575 9.504 142.73 9.024 143.039 8.608C143.359 8.192 143.818 7.86667 144.415 7.632C145.012 7.38667 145.727 7.264 146.559 7.264C147.146 7.264 147.743 7.328 148.351 7.456C148.959 7.584 149.466 7.77067 149.871 8.016L149.039 9.792C148.623 9.54667 148.202 9.38133 147.775 9.296C147.359 9.2 146.954 9.152 146.559 9.152C146.004 9.152 145.599 9.22667 145.343 9.376C145.087 9.52533 144.959 9.71733 144.959 9.952C144.959 10.1653 145.05 10.3253 145.231 10.432C145.423 10.5387 145.674 10.624 145.983 10.688C146.292 10.752 146.628 10.8107 146.991 10.864C147.364 10.9067 147.738 10.976 148.111 11.072C148.484 11.168 148.82 11.3067 149.119 11.488C149.428 11.6587 149.679 11.8987 149.871 12.208C150.063 12.5067 150.159 12.9013 150.159 13.392C150.159 13.9253 149.999 14.4 149.679 14.816C149.359 15.2213 148.895 15.5413 148.287 15.776C147.69 16.0107 146.959 16.128 146.095 16.128Z" fill="white"/>
<path d="M0.996 45V36.6H2.604L7.56 42.648H6.78V36.6H8.7V45H7.104L2.136 38.952H2.916V45H0.996ZM13.6274 45.096C12.9394 45.096 12.3274 44.952 11.7914 44.664C11.2634 44.376 10.8434 43.984 10.5314 43.488C10.2274 42.984 10.0754 42.412 10.0754 41.772C10.0754 41.124 10.2274 40.552 10.5314 40.056C10.8434 39.552 11.2634 39.16 11.7914 38.88C12.3274 38.592 12.9394 38.448 13.6274 38.448C14.3074 38.448 14.9154 38.592 15.4514 38.88C15.9874 39.16 16.4074 39.548 16.7114 40.044C17.0154 40.54 17.1674 41.116 17.1674 41.772C17.1674 42.412 17.0154 42.984 16.7114 43.488C16.4074 43.984 15.9874 44.376 15.4514 44.664C14.9154 44.952 14.3074 45.096 13.6274 45.096ZM13.6274 43.56C13.9394 43.56 14.2194 43.488 14.4674 43.344C14.7154 43.2 14.9114 42.996 15.0554 42.732C15.1994 42.46 15.2714 42.14 15.2714 41.772C15.2714 41.396 15.1994 41.076 15.0554 40.812C14.9114 40.548 14.7154 40.344 14.4674 40.2C14.2194 40.056 13.9394 39.984 13.6274 39.984C13.3154 39.984 13.0354 40.056 12.7874 40.2C12.5394 40.344 12.3394 40.548 12.1874 40.812C12.0434 41.076 11.9714 41.396 11.9714 41.772C11.9714 42.14 12.0434 42.46 12.1874 42.732C12.3394 42.996 12.5394 43.2 12.7874 43.344C13.0354 43.488 13.3154 43.56 13.6274 43.56ZM22.3427 38.448C22.8547 38.448 23.3107 38.552 23.7107 38.76C24.1187 38.96 24.4387 39.272 24.6707 39.696C24.9027 40.112 25.0187 40.648 25.0187 41.304V45H23.1467V41.592C23.1467 41.072 23.0307 40.688 22.7987 40.44C22.5747 40.192 22.2547 40.068 21.8387 40.068C21.5427 40.068 21.2747 40.132 21.0347 40.26C20.8027 40.38 20.6187 40.568 20.4827 40.824C20.3547 41.08 20.2907 41.408 20.2907 41.808V45H18.4187V38.544H20.2067V40.332L19.8707 39.792C20.1027 39.36 20.4347 39.028 20.8667 38.796C21.2987 38.564 21.7907 38.448 22.3427 38.448ZM26.4756 42.372V40.872H29.8716V42.372H26.4756ZM31.4765 45V36.6H35.1125C35.8645 36.6 36.5125 36.724 37.0565 36.972C37.6005 37.212 38.0205 37.56 38.3165 38.016C38.6125 38.472 38.7605 39.016 38.7605 39.648C38.7605 40.272 38.6125 40.812 38.3165 41.268C38.0205 41.716 37.6005 42.06 37.0565 42.3C36.5125 42.54 35.8645 42.66 35.1125 42.66H32.5565L33.4205 41.808V45H31.4765ZM36.8165 45L34.7165 41.952H36.7925L38.9165 45H36.8165ZM33.4205 42.024L32.5565 41.112H35.0045C35.6045 41.112 36.0525 40.984 36.3485 40.728C36.6445 40.464 36.7925 40.104 36.7925 39.648C36.7925 39.184 36.6445 38.824 36.3485 38.568C36.0525 38.312 35.6045 38.184 35.0045 38.184H32.5565L33.4205 37.26V42.024ZM43.3727 45.096C42.6367 45.096 41.9887 44.952 41.4287 44.664C40.8767 44.376 40.4487 43.984 40.1447 43.488C39.8407 42.984 39.6887 42.412 39.6887 41.772C39.6887 41.124 39.8367 40.552 40.1327 40.056C40.4367 39.552 40.8487 39.16 41.3687 38.88C41.8887 38.592 42.4767 38.448 43.1327 38.448C43.7647 38.448 44.3327 38.584 44.8367 38.856C45.3487 39.12 45.7527 39.504 46.0487 40.008C46.3447 40.504 46.4927 41.1 46.4927 41.796C46.4927 41.868 46.4887 41.952 46.4807 42.048C46.4727 42.136 46.4647 42.22 46.4567 42.3H41.2127V41.208H45.4727L44.7527 41.532C44.7527 41.196 44.6847 40.904 44.5487 40.656C44.4127 40.408 44.2247 40.216 43.9847 40.08C43.7447 39.936 43.4647 39.864 43.1447 39.864C42.8247 39.864 42.5407 39.936 42.2927 40.08C42.0527 40.216 41.8647 40.412 41.7287 40.668C41.5927 40.916 41.5247 41.212 41.5247 41.556V41.844C41.5247 42.196 41.6007 42.508 41.7527 42.78C41.9127 43.044 42.1327 43.248 42.4127 43.392C42.7007 43.528 43.0367 43.596 43.4207 43.596C43.7647 43.596 44.0647 43.544 44.3207 43.44C44.5847 43.336 44.8247 43.18 45.0407 42.972L46.0367 44.052C45.7407 44.388 45.3687 44.648 44.9207 44.832C44.4727 45.008 43.9567 45.096 43.3727 45.096ZM51.663 38.448C52.175 38.448 52.631 38.552 53.031 38.76C53.439 38.96 53.759 39.272 53.991 39.696C54.223 40.112 54.339 40.648 54.339 41.304V45H52.467V41.592C52.467 41.072 52.351 40.688 52.119 40.44C51.895 40.192 51.575 40.068 51.159 40.068C50.863 40.068 50.595 40.132 50.355 40.26C50.123 40.38 49.939 40.568 49.803 40.824C49.675 41.08 49.611 41.408 49.611 41.808V45H47.739V38.544H49.527V40.332L49.191 39.792C49.423 39.36 49.755 39.028 50.187 38.796C50.619 38.564 51.111 38.448 51.663 38.448ZM59.2868 45.096C58.5508 45.096 57.9028 44.952 57.3428 44.664C56.7908 44.376 56.3628 43.984 56.0588 43.488C55.7548 42.984 55.6028 42.412 55.6028 41.772C55.6028 41.124 55.7508 40.552 56.0468 40.056C56.3508 39.552 56.7628 39.16 57.2828 38.88C57.8028 38.592 58.3908 38.448 59.0468 38.448C59.6788 38.448 60.2468 38.584 60.7508 38.856C61.2628 39.12 61.6668 39.504 61.9628 40.008C62.2588 40.504 62.4068 41.1 62.4068 41.796C62.4068 41.868 62.4028 41.952 62.3948 42.048C62.3868 42.136 62.3788 42.22 62.3708 42.3H57.1268V41.208H61.3867L60.6668 41.532C60.6668 41.196 60.5988 40.904 60.4628 40.656C60.3268 40.408 60.1388 40.216 59.8988 40.08C59.6588 39.936 59.3788 39.864 59.0588 39.864C58.7388 39.864 58.4548 39.936 58.2068 40.08C57.9668 40.216 57.7788 40.412 57.6428 40.668C57.5068 40.916 57.4388 41.212 57.4388 41.556V41.844C57.4388 42.196 57.5148 42.508 57.6668 42.78C57.8268 43.044 58.0468 43.248 58.3268 43.392C58.6148 43.528 58.9508 43.596 59.3348 43.596C59.6788 43.596 59.9788 43.544 60.2348 43.44C60.4988 43.336 60.7388 43.18 60.9548 42.972L61.9508 44.052C61.6548 44.388 61.2828 44.648 60.8348 44.832C60.3868 45.008 59.8708 45.096 59.2868 45.096ZM65.0119 45L62.6839 38.544H64.4479L66.3799 44.1H65.5399L67.5559 38.544H69.1399L71.0959 44.1H70.2559L72.2479 38.544H73.9039L71.5639 45H69.7519L68.0359 40.236H68.5879L66.8119 45H65.0119ZM78.5232 45V43.74L78.4032 43.464V41.208C78.4032 40.808 78.2792 40.496 78.0312 40.272C77.7912 40.048 77.4192 39.936 76.9152 39.936C76.5712 39.936 76.2312 39.992 75.8952 40.104C75.5672 40.208 75.2872 40.352 75.0552 40.536L74.3832 39.228C74.7352 38.98 75.1592 38.788 75.6552 38.652C76.1512 38.516 76.6552 38.448 77.1672 38.448C78.1512 38.448 78.9152 38.68 79.4592 39.144C80.0032 39.608 80.2752 40.332 80.2752 41.316V45H78.5232ZM76.5552 45.096C76.0512 45.096 75.6192 45.012 75.2592 44.844C74.8992 44.668 74.6232 44.432 74.4312 44.136C74.2392 43.84 74.1432 43.508 74.1432 43.14C74.1432 42.756 74.2352 42.42 74.4192 42.132C74.6112 41.844 74.9112 41.62 75.3192 41.46C75.7272 41.292 76.2592 41.208 76.9152 41.208H78.6312V42.3H77.1192C76.6792 42.3 76.3752 42.372 76.2072 42.516C76.0472 42.66 75.9672 42.84 75.9672 43.056C75.9672 43.296 76.0592 43.488 76.2432 43.632C76.4352 43.768 76.6952 43.836 77.0232 43.836C77.3352 43.836 77.6152 43.764 77.8632 43.62C78.1112 43.468 78.2912 43.248 78.4032 42.96L78.6912 43.824C78.5552 44.24 78.3072 44.556 77.9472 44.772C77.5872 44.988 77.1232 45.096 76.5552 45.096ZM85.7855 45.096C85.2175 45.096 84.7295 44.976 84.3215 44.736C83.9135 44.496 83.6015 44.132 83.3855 43.644C83.1695 43.148 83.0615 42.524 83.0615 41.772C83.0615 41.012 83.1735 40.388 83.3975 39.9C83.6295 39.412 83.9495 39.048 84.3575 38.808C84.7655 38.568 85.2415 38.448 85.7855 38.448C86.3935 38.448 86.9375 38.584 87.4175 38.856C87.9055 39.128 88.2895 39.512 88.5695 40.008C88.8575 40.504 89.0015 41.092 89.0015 41.772C89.0015 42.444 88.8575 43.028 88.5695 43.524C88.2895 44.02 87.9055 44.408 87.4175 44.688C86.9375 44.96 86.3935 45.096 85.7855 45.096ZM81.9695 45V36.096H83.8415V39.852L83.7215 41.76L83.7575 43.68V45H81.9695ZM85.4615 43.56C85.7735 43.56 86.0495 43.488 86.2895 43.344C86.5375 43.2 86.7335 42.996 86.8775 42.732C87.0295 42.46 87.1055 42.14 87.1055 41.772C87.1055 41.396 87.0295 41.076 86.8775 40.812C86.7335 40.548 86.5375 40.344 86.2895 40.2C86.0495 40.056 85.7735 39.984 85.4615 39.984C85.1495 39.984 84.8695 40.056 84.6215 40.2C84.3735 40.344 84.1775 40.548 84.0335 40.812C83.8895 41.076 83.8175 41.396 83.8175 41.772C83.8175 42.14 83.8895 42.46 84.0335 42.732C84.1775 42.996 84.3735 43.2 84.6215 43.344C84.8695 43.488 85.1495 43.56 85.4615 43.56ZM90.2546 45V36.096H92.1266V45H90.2546ZM97.068 45.096C96.332 45.096 95.684 44.952 95.124 44.664C94.572 44.376 94.144 43.984 93.84 43.488C93.536 42.984 93.384 42.412 93.384 41.772C93.384 41.124 93.532 40.552 93.828 40.056C94.132 39.552 94.544 39.16 95.064 38.88C95.584 38.592 96.172 38.448 96.828 38.448C97.46 38.448 98.028 38.584 98.532 38.856C99.044 39.12 99.448 39.504 99.744 40.008C100.04 40.504 100.188 41.1 100.188 41.796C100.188 41.868 100.184 41.952 100.176 42.048C100.168 42.136 100.16 42.22 100.152 42.3H94.908V41.208H99.168L98.448 41.532C98.448 41.196 98.38 40.904 98.244 40.656C98.108 40.408 97.92 40.216 97.68 40.08C97.44 39.936 97.16 39.864 96.84 39.864C96.52 39.864 96.236 39.936 95.988 40.08C95.748 40.216 95.56 40.412 95.424 40.668C95.288 40.916 95.22 41.212 95.22 41.556V41.844C95.22 42.196 95.296 42.508 95.448 42.78C95.608 43.044 95.828 43.248 96.108 43.392C96.396 43.528 96.732 43.596 97.116 43.596C97.46 43.596 97.76 43.544 98.016 43.44C98.28 43.336 98.52 43.18 98.736 42.972L99.732 44.052C99.436 44.388 99.064 44.648 98.616 44.832C98.168 45.008 97.652 45.096 97.068 45.096ZM103.606 45.096C103.054 45.096 102.522 45.032 102.01 44.904C101.506 44.768 101.106 44.6 100.81 44.4L101.434 43.056C101.73 43.24 102.078 43.392 102.478 43.512C102.886 43.624 103.286 43.68 103.678 43.68C104.11 43.68 104.414 43.628 104.59 43.524C104.774 43.42 104.866 43.276 104.866 43.092C104.866 42.94 104.794 42.828 104.65 42.756C104.514 42.676 104.33 42.616 104.098 42.576C103.866 42.536 103.61 42.496 103.33 42.456C103.058 42.416 102.782 42.364 102.502 42.3C102.222 42.228 101.966 42.124 101.734 41.988C101.502 41.852 101.314 41.668 101.17 41.436C101.034 41.204 100.966 40.904 100.966 40.536C100.966 40.128 101.082 39.768 101.314 39.456C101.554 39.144 101.898 38.9 102.346 38.724C102.794 38.54 103.33 38.448 103.954 38.448C104.394 38.448 104.842 38.496 105.298 38.592C105.754 38.688 106.134 38.828 106.438 39.012L105.814 40.344C105.502 40.16 105.186 40.036 104.866 39.972C104.554 39.9 104.25 39.864 103.954 39.864C103.538 39.864 103.234 39.92 103.042 40.032C102.85 40.144 102.754 40.288 102.754 40.464C102.754 40.624 102.822 40.744 102.958 40.824C103.102 40.904 103.29 40.968 103.522 41.016C103.754 41.064 104.006 41.108 104.278 41.148C104.558 41.18 104.838 41.232 105.118 41.304C105.398 41.376 105.65 41.48 105.874 41.616C106.106 41.744 106.294 41.924 106.438 42.156C106.582 42.38 106.654 42.676 106.654 43.044C106.654 43.444 106.534 43.8 106.294 44.112C106.054 44.416 105.706 44.656 105.25 44.832C104.802 45.008 104.254 45.096 103.606 45.096Z" fill="white"/>
<rect x="1" y="59" width="17" height="17" rx="2" fill="#9B9B9B" fill-opacity="0.5" stroke="#9B9B9B" stroke-width="2"/>
<path d="M38.04 72.072C37.408 72.072 36.82 71.968 36.276 71.76C35.74 71.544 35.272 71.244 34.872 70.86C34.48 70.468 34.172 70.016 33.948 69.504C33.732 68.984 33.624 68.416 33.624 67.8C33.624 67.184 33.732 66.62 33.948 66.108C34.172 65.588 34.48 65.136 34.872 64.752C35.272 64.36 35.74 64.06 36.276 63.852C36.812 63.636 37.4 63.528 38.04 63.528C38.672 63.528 39.256 63.636 39.792 63.852C40.328 64.06 40.792 64.356 41.184 64.74C41.584 65.124 41.892 65.576 42.108 66.096C42.332 66.616 42.444 67.184 42.444 67.8C42.444 68.416 42.332 68.984 42.108 69.504C41.892 70.024 41.584 70.476 41.184 70.86C40.792 71.244 40.328 71.544 39.792 71.76C39.256 71.968 38.672 72.072 38.04 72.072ZM38.04 71.28C38.544 71.28 39.008 71.196 39.432 71.028C39.864 70.852 40.236 70.608 40.548 70.296C40.868 69.976 41.116 69.608 41.292 69.192C41.468 68.768 41.556 68.304 41.556 67.8C41.556 67.296 41.468 66.836 41.292 66.42C41.116 65.996 40.868 65.628 40.548 65.316C40.236 64.996 39.864 64.752 39.432 64.584C39.008 64.408 38.544 64.32 38.04 64.32C37.536 64.32 37.068 64.408 36.636 64.584C36.204 64.752 35.828 64.996 35.508 65.316C35.196 65.628 34.948 65.996 34.764 66.42C34.588 66.836 34.5 67.296 34.5 67.8C34.5 68.296 34.588 68.756 34.764 69.18C34.948 69.604 35.196 69.976 35.508 70.296C35.828 70.608 36.204 70.852 36.636 71.028C37.068 71.196 37.536 71.28 38.04 71.28ZM44.2544 72V65.7H45.1064V72H44.2544ZM44.6864 64.308C44.5104 64.308 44.3624 64.248 44.2424 64.128C44.1224 64.008 44.0624 63.864 44.0624 63.696C44.0624 63.528 44.1224 63.388 44.2424 63.276C44.3624 63.156 44.5104 63.096 44.6864 63.096C44.8624 63.096 45.0104 63.152 45.1304 63.264C45.2504 63.376 45.3104 63.516 45.3104 63.684C45.3104 63.86 45.2504 64.008 45.1304 64.128C45.0184 64.248 44.8704 64.308 44.6864 64.308ZM47.4771 72V63.096H48.3291V72H47.4771Z" fill="white"/>
<g clip-path="url(#clip0_766_6000)">
<path d="M3 88H16C17.1046 88 18 88.8954 18 90V103C18 104.105 17.1046 105 16 105H3C1.89543 105 1 104.105 1 103V90C1 88.8954 1.89543 88 3 88Z" fill="#C49B5F" fill-opacity="0.5" stroke="#C69E62" stroke-width="2"/>
<path d="M34.368 101V92.6H35.1L40.896 99.896H40.512V92.6H41.388V101H40.656L34.872 93.704H35.256V101H34.368ZM46.5537 101.06C46.0177 101.06 45.5497 100.96 45.1497 100.76C44.7497 100.56 44.4377 100.26 44.2137 99.86C43.9977 99.46 43.8897 98.96 43.8897 98.36V94.7H44.7417V98.264C44.7417 98.936 44.9057 99.444 45.2337 99.788C45.5697 100.124 46.0377 100.292 46.6377 100.292C47.0777 100.292 47.4577 100.204 47.7777 100.028C48.1057 99.844 48.3537 99.58 48.5217 99.236C48.6977 98.892 48.7857 98.48 48.7857 98V94.7H49.6377V101H48.8217V99.272L48.9537 99.584C48.7537 100.048 48.4417 100.412 48.0177 100.676C47.6017 100.932 47.1137 101.06 46.5537 101.06ZM54.6282 101.06C54.0042 101.06 53.4442 100.924 52.9482 100.652C52.4602 100.372 52.0762 99.992 51.7962 99.512C51.5162 99.024 51.3762 98.468 51.3762 97.844C51.3762 97.212 51.5162 96.656 51.7962 96.176C52.0762 95.696 52.4602 95.32 52.9482 95.048C53.4442 94.776 54.0042 94.64 54.6282 94.64C55.1642 94.64 55.6482 94.744 56.0802 94.952C56.5122 95.16 56.8522 95.472 57.1002 95.888L56.4642 96.32C56.2482 96 55.9802 95.764 55.6602 95.612C55.3402 95.46 54.9922 95.384 54.6162 95.384C54.1682 95.384 53.7642 95.488 53.4042 95.696C53.0442 95.896 52.7602 96.18 52.5522 96.548C52.3442 96.916 52.2402 97.348 52.2402 97.844C52.2402 98.34 52.3442 98.772 52.5522 99.14C52.7602 99.508 53.0442 99.796 53.4042 100.004C53.7642 100.204 54.1682 100.304 54.6162 100.304C54.9922 100.304 55.3402 100.228 55.6602 100.076C55.9802 99.924 56.2482 99.692 56.4642 99.38L57.1002 99.812C56.8522 100.22 56.5122 100.532 56.0802 100.748C55.6482 100.956 55.1642 101.06 54.6282 101.06ZM58.6802 101V92.096H59.5322V101H58.6802ZM64.5788 101.06C63.9228 101.06 63.3468 100.924 62.8508 100.652C62.3548 100.372 61.9668 99.992 61.6868 99.512C61.4068 99.024 61.2668 98.468 61.2668 97.844C61.2668 97.22 61.3988 96.668 61.6628 96.188C61.9348 95.708 62.3028 95.332 62.7668 95.06C63.2388 94.78 63.7668 94.64 64.3508 94.64C64.9428 94.64 65.4668 94.776 65.9228 95.048C66.3868 95.312 66.7508 95.688 67.0148 96.176C67.2788 96.656 67.4108 97.212 67.4108 97.844C67.4108 97.884 67.4068 97.928 67.3988 97.976C67.3988 98.016 67.3988 98.06 67.3988 98.108H61.9148V97.472H66.9428L66.6068 97.724C66.6068 97.268 66.5068 96.864 66.3068 96.512C66.1148 96.152 65.8508 95.872 65.5148 95.672C65.1788 95.472 64.7908 95.372 64.3508 95.372C63.9188 95.372 63.5308 95.472 63.1868 95.672C62.8428 95.872 62.5748 96.152 62.3828 96.512C62.1908 96.872 62.0948 97.284 62.0948 97.748V97.88C62.0948 98.36 62.1988 98.784 62.4068 99.152C62.6228 99.512 62.9188 99.796 63.2948 100.004C63.6788 100.204 64.1148 100.304 64.6028 100.304C64.9868 100.304 65.3428 100.236 65.6708 100.1C66.0068 99.964 66.2948 99.756 66.5348 99.476L67.0148 100.028C66.7348 100.364 66.3828 100.62 65.9588 100.796C65.5428 100.972 65.0828 101.06 64.5788 101.06ZM72.9173 101V99.608L72.8813 99.38V97.052C72.8813 96.516 72.7293 96.104 72.4253 95.816C72.1293 95.528 71.6853 95.384 71.0933 95.384C70.6853 95.384 70.2973 95.452 69.9293 95.588C69.5613 95.724 69.2493 95.904 68.9933 96.128L68.6093 95.492C68.9293 95.22 69.3133 95.012 69.7613 94.868C70.2093 94.716 70.6813 94.64 71.1773 94.64C71.9933 94.64 72.6213 94.844 73.0613 95.252C73.5093 95.652 73.7333 96.264 73.7333 97.088V101H72.9173ZM70.7453 101.06C70.2733 101.06 69.8613 100.984 69.5093 100.832C69.1653 100.672 68.9013 100.456 68.7173 100.184C68.5333 99.904 68.4413 99.584 68.4413 99.224C68.4413 98.896 68.5173 98.6 68.6693 98.336C68.8293 98.064 69.0853 97.848 69.4373 97.688C69.7973 97.52 70.2773 97.436 70.8773 97.436H73.0493V98.072H70.9013C70.2933 98.072 69.8693 98.18 69.6293 98.396C69.3973 98.612 69.2812 98.88 69.2812 99.2C69.2812 99.56 69.4213 99.848 69.7013 100.064C69.9813 100.28 70.3733 100.388 70.8773 100.388C71.3573 100.388 71.7693 100.28 72.1133 100.064C72.4653 99.84 72.7213 99.52 72.8813 99.104L73.0733 99.692C72.9133 100.108 72.6333 100.44 72.2333 100.688C71.8413 100.936 71.3453 101.06 70.7453 101.06ZM76.0474 101V94.7H76.8634V96.416L76.7794 96.116C76.9554 95.636 77.2514 95.272 77.6674 95.024C78.0834 94.768 78.5994 94.64 79.2154 94.64V95.468C79.1834 95.468 79.1514 95.468 79.1194 95.468C79.0874 95.46 79.0554 95.456 79.0234 95.456C78.3594 95.456 77.8394 95.66 77.4634 96.068C77.0874 96.468 76.8994 97.04 76.8994 97.784V101H76.0474Z" fill="white"/>
</g>
<g clip-path="url(#clip1_766_6000)">
<rect x="1" y="117" width="17" height="17" rx="2" fill="#7380B2" fill-opacity="0.5" stroke="#7380B2" stroke-width="2"/>
<path d="M38.016 130.072C37.384 130.072 36.8 129.968 36.264 129.76C35.728 129.544 35.264 129.244 34.872 128.86C34.48 128.476 34.172 128.024 33.948 127.504C33.732 126.984 33.624 126.416 33.624 125.8C33.624 125.184 33.732 124.616 33.948 124.096C34.172 123.576 34.48 123.124 34.872 122.74C35.272 122.356 35.74 122.06 36.276 121.852C36.812 121.636 37.396 121.528 38.028 121.528C38.636 121.528 39.208 121.632 39.744 121.84C40.28 122.04 40.732 122.344 41.1 122.752L40.536 123.316C40.192 122.964 39.812 122.712 39.396 122.56C38.98 122.4 38.532 122.32 38.052 122.32C37.548 122.32 37.08 122.408 36.648 122.584C36.216 122.752 35.84 122.996 35.52 123.316C35.2 123.628 34.948 123.996 34.764 124.42C34.588 124.836 34.5 125.296 34.5 125.8C34.5 126.304 34.588 126.768 34.764 127.192C34.948 127.608 35.2 127.976 35.52 128.296C35.84 128.608 36.216 128.852 36.648 129.028C37.08 129.196 37.548 129.28 38.052 129.28C38.532 129.28 38.98 129.2 39.396 129.04C39.812 128.88 40.192 128.624 40.536 128.272L41.1 128.836C40.732 129.244 40.28 129.552 39.744 129.76C39.208 129.968 38.632 130.072 38.016 130.072ZM45.0998 130.06C44.4918 130.06 43.9438 129.924 43.4558 129.652C42.9758 129.372 42.5958 128.992 42.3158 128.512C42.0358 128.024 41.8958 127.468 41.8958 126.844C41.8958 126.212 42.0358 125.656 42.3158 125.176C42.5958 124.696 42.9758 124.32 43.4558 124.048C43.9358 123.776 44.4838 123.64 45.0998 123.64C45.7238 123.64 46.2758 123.776 46.7558 124.048C47.2438 124.32 47.6238 124.696 47.8958 125.176C48.1758 125.656 48.3158 126.212 48.3158 126.844C48.3158 127.468 48.1758 128.024 47.8958 128.512C47.6238 128.992 47.2438 129.372 46.7558 129.652C46.2678 129.924 45.7158 130.06 45.0998 130.06ZM45.0998 129.304C45.5558 129.304 45.9598 129.204 46.3118 129.004C46.6638 128.796 46.9398 128.508 47.1398 128.14C47.3478 127.764 47.4518 127.332 47.4518 126.844C47.4518 126.348 47.3478 125.916 47.1398 125.548C46.9398 125.18 46.6638 124.896 46.3118 124.696C45.9598 124.488 45.5598 124.384 45.1118 124.384C44.6638 124.384 44.2638 124.488 43.9118 124.696C43.5598 124.896 43.2798 125.18 43.0718 125.548C42.8638 125.916 42.7598 126.348 42.7598 126.844C42.7598 127.332 42.8638 127.764 43.0718 128.14C43.2798 128.508 43.5598 128.796 43.9118 129.004C44.2638 129.204 44.6598 129.304 45.0998 129.304ZM53.968 130V128.608L53.932 128.38V126.052C53.932 125.516 53.78 125.104 53.476 124.816C53.18 124.528 52.736 124.384 52.144 124.384C51.736 124.384 51.348 124.452 50.98 124.588C50.612 124.724 50.3 124.904 50.044 125.128L49.66 124.492C49.98 124.22 50.364 124.012 50.812 123.868C51.26 123.716 51.732 123.64 52.228 123.64C53.044 123.64 53.672 123.844 54.112 124.252C54.56 124.652 54.784 125.264 54.784 126.088V130H53.968ZM51.796 130.06C51.324 130.06 50.912 129.984 50.56 129.832C50.216 129.672 49.952 129.456 49.768 129.184C49.584 128.904 49.492 128.584 49.492 128.224C49.492 127.896 49.568 127.6 49.72 127.336C49.88 127.064 50.136 126.848 50.488 126.688C50.848 126.52 51.328 126.436 51.928 126.436H54.1V127.072H51.952C51.344 127.072 50.92 127.18 50.68 127.396C50.448 127.612 50.332 127.88 50.332 128.2C50.332 128.56 50.472 128.848 50.752 129.064C51.032 129.28 51.424 129.388 51.928 129.388C52.408 129.388 52.82 129.28 53.164 129.064C53.516 128.84 53.772 128.52 53.932 128.104L54.124 128.692C53.964 129.108 53.684 129.44 53.284 129.688C52.892 129.936 52.396 130.06 51.796 130.06ZM57.0982 130V121.096H57.9502V130H57.0982Z" fill="white"/>
</g>
<g clip-path="url(#clip2_766_6000)">
<rect x="1" y="146" width="17" height="17" rx="2" fill="#C68A82" fill-opacity="0.5" stroke="#C68A82" stroke-width="2"/>
<path d="M34.368 159V150.6H35.1L40.896 157.896H40.512V150.6H41.388V159H40.656L34.872 151.704H35.256V159H34.368ZM47.8977 159V157.608L47.8617 157.38V155.052C47.8617 154.516 47.7097 154.104 47.4057 153.816C47.1097 153.528 46.6657 153.384 46.0737 153.384C45.6657 153.384 45.2777 153.452 44.9097 153.588C44.5417 153.724 44.2297 153.904 43.9737 154.128L43.5897 153.492C43.9097 153.22 44.2937 153.012 44.7417 152.868C45.1897 152.716 45.6617 152.64 46.1577 152.64C46.9737 152.64 47.6017 152.844 48.0417 153.252C48.4897 153.652 48.7137 154.264 48.7137 155.088V159H47.8977ZM45.7257 159.06C45.2537 159.06 44.8417 158.984 44.4897 158.832C44.1457 158.672 43.8817 158.456 43.6977 158.184C43.5137 157.904 43.4217 157.584 43.4217 157.224C43.4217 156.896 43.4977 156.6 43.6497 156.336C43.8097 156.064 44.0657 155.848 44.4177 155.688C44.7777 155.52 45.2577 155.436 45.8577 155.436H48.0297V156.072H45.8817C45.2737 156.072 44.8497 156.18 44.6097 156.396C44.3777 156.612 44.2617 156.88 44.2617 157.2C44.2617 157.56 44.4017 157.848 44.6817 158.064C44.9617 158.28 45.3537 158.388 45.8577 158.388C46.3377 158.388 46.7497 158.28 47.0937 158.064C47.4457 157.84 47.7017 157.52 47.8617 157.104L48.0537 157.692C47.8937 158.108 47.6137 158.44 47.2137 158.688C46.8217 158.936 46.3257 159.06 45.7257 159.06ZM53.0198 159.06C52.4278 159.06 51.9718 158.9 51.6518 158.58C51.3318 158.26 51.1718 157.808 51.1718 157.224V151.308H52.0238V157.176C52.0238 157.544 52.1158 157.828 52.2998 158.028C52.4918 158.228 52.7638 158.328 53.1158 158.328C53.4918 158.328 53.8038 158.22 54.0518 158.004L54.3518 158.616C54.1838 158.768 53.9798 158.88 53.7398 158.952C53.5078 159.024 53.2678 159.06 53.0198 159.06ZM50.0438 153.408V152.7H53.9438V153.408H50.0438ZM58.5068 159.06C57.9708 159.06 57.5028 158.96 57.1028 158.76C56.7028 158.56 56.3908 158.26 56.1668 157.86C55.9508 157.46 55.8428 156.96 55.8428 156.36V152.7H56.6948V156.264C56.6948 156.936 56.8588 157.444 57.1868 157.788C57.5228 158.124 57.9908 158.292 58.5908 158.292C59.0308 158.292 59.4108 158.204 59.7308 158.028C60.0588 157.844 60.3068 157.58 60.4748 157.236C60.6508 156.892 60.7388 156.48 60.7388 156V152.7H61.5908V159H60.7748V157.272L60.9068 157.584C60.7068 158.048 60.3948 158.412 59.9708 158.676C59.5548 158.932 59.0668 159.06 58.5068 159.06ZM63.9653 159V152.7H64.7813V154.416L64.6973 154.116C64.8733 153.636 65.1693 153.272 65.5853 153.024C66.0013 152.768 66.5173 152.64 67.1333 152.64V153.468C67.1013 153.468 67.0693 153.468 67.0373 153.468C67.0053 153.46 66.9733 153.456 66.9413 153.456C66.2773 153.456 65.7573 153.66 65.3813 154.068C65.0053 154.468 64.8173 155.04 64.8173 155.784V159H63.9653ZM72.1673 159V157.608L72.1313 157.38V155.052C72.1313 154.516 71.9793 154.104 71.6753 153.816C71.3793 153.528 70.9353 153.384 70.3433 153.384C69.9353 153.384 69.5473 153.452 69.1793 153.588C68.8113 153.724 68.4993 153.904 68.2433 154.128L67.8593 153.492C68.1793 153.22 68.5633 153.012 69.0113 152.868C69.4593 152.716 69.9313 152.64 70.4273 152.64C71.2433 152.64 71.8713 152.844 72.3113 153.252C72.7593 153.652 72.9833 154.264 72.9833 155.088V159H72.1673ZM69.9953 159.06C69.5233 159.06 69.1113 158.984 68.7593 158.832C68.4153 158.672 68.1513 158.456 67.9673 158.184C67.7833 157.904 67.6913 157.584 67.6913 157.224C67.6913 156.896 67.7673 156.6 67.9193 156.336C68.0793 156.064 68.3353 155.848 68.6873 155.688C69.0473 155.52 69.5273 155.436 70.1273 155.436H72.2993V156.072H70.1513C69.5433 156.072 69.1193 156.18 68.8793 156.396C68.6473 156.612 68.5312 156.88 68.5312 157.2C68.5312 157.56 68.6713 157.848 68.9513 158.064C69.2313 158.28 69.6233 158.388 70.1273 158.388C70.6073 158.388 71.0193 158.28 71.3633 158.064C71.7153 157.84 71.9713 157.52 72.1313 157.104L72.3233 157.692C72.1633 158.108 71.8833 158.44 71.4833 158.688C71.0913 158.936 70.5953 159.06 69.9953 159.06ZM75.2974 159V150.096H76.1494V159H75.2974ZM85.5247 159.072C84.8847 159.072 84.2927 158.968 83.7487 158.76C83.2127 158.544 82.7447 158.244 82.3447 157.86C81.9527 157.476 81.6447 157.024 81.4207 156.504C81.2047 155.984 81.0967 155.416 81.0967 154.8C81.0967 154.184 81.2047 153.616 81.4207 153.096C81.6447 152.576 81.9567 152.124 82.3567 151.74C82.7567 151.356 83.2247 151.06 83.7607 150.852C84.3047 150.636 84.8967 150.528 85.5367 150.528C86.1767 150.528 86.7607 150.628 87.2887 150.828C87.8247 151.028 88.2807 151.332 88.6567 151.74L88.1047 152.304C87.7527 151.952 87.3647 151.7 86.9407 151.548C86.5167 151.396 86.0607 151.32 85.5727 151.32C85.0527 151.32 84.5727 151.408 84.1327 151.584C83.7007 151.752 83.3207 151.996 82.9927 152.316C82.6727 152.628 82.4207 152.996 82.2367 153.42C82.0607 153.836 81.9727 154.296 81.9727 154.8C81.9727 155.296 82.0607 155.756 82.2367 156.18C82.4207 156.604 82.6727 156.976 82.9927 157.296C83.3207 157.608 83.7007 157.852 84.1327 158.028C84.5727 158.196 85.0487 158.28 85.5607 158.28C86.0407 158.28 86.4927 158.208 86.9167 158.064C87.3487 157.92 87.7447 157.676 88.1047 157.332L88.6087 158.004C88.2087 158.356 87.7407 158.624 87.2047 158.808C86.6687 158.984 86.1087 159.072 85.5247 159.072ZM87.7567 157.896V154.8H88.6087V158.004L87.7567 157.896ZM94.8899 159V157.608L94.8539 157.38V155.052C94.8539 154.516 94.7019 154.104 94.3979 153.816C94.1019 153.528 93.6579 153.384 93.0659 153.384C92.6579 153.384 92.2699 153.452 91.9019 153.588C91.5339 153.724 91.2219 153.904 90.9659 154.128L90.5819 153.492C90.9019 153.22 91.2859 153.012 91.7339 152.868C92.1819 152.716 92.6539 152.64 93.1499 152.64C93.9659 152.64 94.5939 152.844 95.0339 153.252C95.4819 153.652 95.7059 154.264 95.7059 155.088V159H94.8899ZM92.7179 159.06C92.2459 159.06 91.8339 158.984 91.4819 158.832C91.1379 158.672 90.8739 158.456 90.6899 158.184C90.5059 157.904 90.4139 157.584 90.4139 157.224C90.4139 156.896 90.4899 156.6 90.6419 156.336C90.8019 156.064 91.0579 155.848 91.4099 155.688C91.7699 155.52 92.2499 155.436 92.8499 155.436H95.0219V156.072H92.8739C92.2659 156.072 91.8419 156.18 91.6019 156.396C91.3699 156.612 91.2539 156.88 91.2539 157.2C91.2539 157.56 91.3939 157.848 91.6739 158.064C91.9539 158.28 92.3459 158.388 92.8499 158.388C93.3299 158.388 93.7419 158.28 94.0859 158.064C94.4379 157.84 94.6939 157.52 94.8539 157.104L95.0459 157.692C94.8859 158.108 94.6059 158.44 94.2059 158.688C93.8139 158.936 93.3179 159.06 92.7179 159.06ZM99.712 159.06C99.192 159.06 98.7 158.988 98.236 158.844C97.772 158.692 97.408 158.504 97.144 158.28L97.528 157.608C97.784 157.8 98.112 157.968 98.512 158.112C98.912 158.248 99.332 158.316 99.772 158.316C100.372 158.316 100.804 158.224 101.068 158.04C101.332 157.848 101.464 157.596 101.464 157.284C101.464 157.052 101.388 156.872 101.236 156.744C101.092 156.608 100.9 156.508 100.66 156.444C100.42 156.372 100.152 156.312 99.856 156.264C99.56 156.216 99.264 156.16 98.968 156.096C98.68 156.032 98.416 155.94 98.176 155.82C97.936 155.692 97.74 155.52 97.588 155.304C97.444 155.088 97.372 154.8 97.372 154.44C97.372 154.096 97.468 153.788 97.66 153.516C97.852 153.244 98.132 153.032 98.5 152.88C98.876 152.72 99.332 152.64 99.868 152.64C100.276 152.64 100.684 152.696 101.092 152.808C101.5 152.912 101.836 153.052 102.1 153.228L101.728 153.912C101.448 153.72 101.148 153.584 100.828 153.504C100.508 153.416 100.188 153.372 99.868 153.372C99.3 153.372 98.88 153.472 98.608 153.672C98.344 153.864 98.212 154.112 98.212 154.416C98.212 154.656 98.284 154.844 98.428 154.98C98.58 155.116 98.776 155.224 99.016 155.304C99.264 155.376 99.532 155.436 99.82 155.484C100.116 155.532 100.408 155.592 100.696 155.664C100.992 155.728 101.26 155.82 101.5 155.94C101.748 156.052 101.944 156.216 102.088 156.432C102.24 156.64 102.316 156.916 102.316 157.26C102.316 157.628 102.212 157.948 102.004 158.22C101.804 158.484 101.508 158.692 101.116 158.844C100.732 158.988 100.264 159.06 99.712 159.06Z" fill="white"/>
</g>
<path d="M0.996 186V177.6H4.632C5.384 177.6 6.032 177.724 6.576 177.972C7.12 178.212 7.54 178.56 7.836 179.016C8.132 179.472 8.28 180.016 8.28 180.648C8.28 181.272 8.132 181.812 7.836 182.268C7.54 182.716 7.12 183.06 6.576 183.3C6.032 183.54 5.384 183.66 4.632 183.66H2.076L2.94 182.808V186H0.996ZM6.336 186L4.236 182.952H6.312L8.436 186H6.336ZM2.94 183.024L2.076 182.112H4.524C5.124 182.112 5.572 181.984 5.868 181.728C6.164 181.464 6.312 181.104 6.312 180.648C6.312 180.184 6.164 179.824 5.868 179.568C5.572 179.312 5.124 179.184 4.524 179.184H2.076L2.94 178.26V183.024ZM12.8922 186.096C12.1562 186.096 11.5082 185.952 10.9482 185.664C10.3962 185.376 9.96822 184.984 9.66422 184.488C9.36022 183.984 9.20822 183.412 9.20822 182.772C9.20822 182.124 9.35622 181.552 9.65222 181.056C9.95622 180.552 10.3682 180.16 10.8882 179.88C11.4082 179.592 11.9962 179.448 12.6522 179.448C13.2842 179.448 13.8522 179.584 14.3562 179.856C14.8682 180.12 15.2722 180.504 15.5682 181.008C15.8642 181.504 16.0122 182.1 16.0122 182.796C16.0122 182.868 16.0082 182.952 16.0002 183.048C15.9922 183.136 15.9842 183.22 15.9762 183.3H10.7322V182.208H14.9922L14.2722 182.532C14.2722 182.196 14.2042 181.904 14.0682 181.656C13.9322 181.408 13.7442 181.216 13.5042 181.08C13.2642 180.936 12.9842 180.864 12.6642 180.864C12.3442 180.864 12.0602 180.936 11.8122 181.08C11.5722 181.216 11.3842 181.412 11.2482 181.668C11.1122 181.916 11.0442 182.212 11.0442 182.556V182.844C11.0442 183.196 11.1202 183.508 11.2722 183.78C11.4322 184.044 11.6522 184.248 11.9322 184.392C12.2202 184.528 12.5562 184.596 12.9402 184.596C13.2842 184.596 13.5842 184.544 13.8402 184.44C14.1042 184.336 14.3442 184.18 14.5602 183.972L15.5562 185.052C15.2602 185.388 14.8882 185.648 14.4402 185.832C13.9922 186.008 13.4762 186.096 12.8922 186.096ZM21.1825 179.448C21.6945 179.448 22.1505 179.552 22.5505 179.76C22.9585 179.96 23.2785 180.272 23.5105 180.696C23.7425 181.112 23.8585 181.648 23.8585 182.304V186H21.9865V182.592C21.9865 182.072 21.8705 181.688 21.6385 181.44C21.4145 181.192 21.0945 181.068 20.6785 181.068C20.3825 181.068 20.1145 181.132 19.8745 181.26C19.6425 181.38 19.4585 181.568 19.3225 181.824C19.1945 182.08 19.1305 182.408 19.1305 182.808V186H17.2585V179.544H19.0465V181.332L18.7105 180.792C18.9425 180.36 19.2745 180.028 19.7065 179.796C20.1385 179.564 20.6305 179.448 21.1825 179.448ZM28.8063 186.096C28.0703 186.096 27.4223 185.952 26.8623 185.664C26.3103 185.376 25.8823 184.984 25.5783 184.488C25.2743 183.984 25.1223 183.412 25.1223 182.772C25.1223 182.124 25.2703 181.552 25.5663 181.056C25.8703 180.552 26.2823 180.16 26.8023 179.88C27.3223 179.592 27.9103 179.448 28.5663 179.448C29.1983 179.448 29.7663 179.584 30.2703 179.856C30.7823 180.12 31.1863 180.504 31.4823 181.008C31.7783 181.504 31.9263 182.1 31.9263 182.796C31.9263 182.868 31.9223 182.952 31.9143 183.048C31.9063 183.136 31.8983 183.22 31.8903 183.3H26.6463V182.208H30.9063L30.1863 182.532C30.1863 182.196 30.1183 181.904 29.9823 181.656C29.8463 181.408 29.6583 181.216 29.4183 181.08C29.1783 180.936 28.8983 180.864 28.5783 180.864C28.2583 180.864 27.9743 180.936 27.7263 181.08C27.4863 181.216 27.2983 181.412 27.1623 181.668C27.0263 181.916 26.9583 182.212 26.9583 182.556V182.844C26.9583 183.196 27.0343 183.508 27.1863 183.78C27.3463 184.044 27.5663 184.248 27.8463 184.392C28.1343 184.528 28.4703 184.596 28.8543 184.596C29.1983 184.596 29.4983 184.544 29.7543 184.44C30.0183 184.336 30.2583 184.18 30.4743 183.972L31.4703 185.052C31.1743 185.388 30.8023 185.648 30.3543 185.832C29.9063 186.008 29.3903 186.096 28.8063 186.096ZM34.5314 186L32.2034 179.544H33.9674L35.8994 185.1H35.0594L37.0754 179.544H38.6594L40.6154 185.1H39.7754L41.7674 179.544H43.4234L41.0834 186H39.2714L37.5554 181.236H38.1074L36.3314 186H34.5314ZM48.0428 186V184.74L47.9228 184.464V182.208C47.9228 181.808 47.7988 181.496 47.5508 181.272C47.3108 181.048 46.9388 180.936 46.4348 180.936C46.0908 180.936 45.7508 180.992 45.4148 181.104C45.0868 181.208 44.8068 181.352 44.5748 181.536L43.9028 180.228C44.2548 179.98 44.6788 179.788 45.1748 179.652C45.6708 179.516 46.1748 179.448 46.6868 179.448C47.6708 179.448 48.4348 179.68 48.9788 180.144C49.5228 180.608 49.7948 181.332 49.7948 182.316V186H48.0428ZM46.0748 186.096C45.5708 186.096 45.1388 186.012 44.7788 185.844C44.4188 185.668 44.1428 185.432 43.9508 185.136C43.7588 184.84 43.6628 184.508 43.6628 184.14C43.6628 183.756 43.7548 183.42 43.9388 183.132C44.1308 182.844 44.4308 182.62 44.8388 182.46C45.2468 182.292 45.7788 182.208 46.4348 182.208H48.1508V183.3H46.6388C46.1988 183.3 45.8948 183.372 45.7268 183.516C45.5668 183.66 45.4868 183.84 45.4868 184.056C45.4868 184.296 45.5788 184.488 45.7628 184.632C45.9548 184.768 46.2148 184.836 46.5428 184.836C46.8548 184.836 47.1348 184.764 47.3828 184.62C47.6308 184.468 47.8108 184.248 47.9228 183.96L48.2108 184.824C48.0748 185.24 47.8268 185.556 47.4668 185.772C47.1068 185.988 46.6428 186.096 46.0748 186.096ZM55.305 186.096C54.737 186.096 54.249 185.976 53.841 185.736C53.433 185.496 53.121 185.132 52.905 184.644C52.689 184.148 52.581 183.524 52.581 182.772C52.581 182.012 52.693 181.388 52.917 180.9C53.149 180.412 53.469 180.048 53.877 179.808C54.285 179.568 54.761 179.448 55.305 179.448C55.913 179.448 56.457 179.584 56.937 179.856C57.425 180.128 57.809 180.512 58.089 181.008C58.377 181.504 58.521 182.092 58.521 182.772C58.521 183.444 58.377 184.028 58.089 184.524C57.809 185.02 57.425 185.408 56.937 185.688C56.457 185.96 55.913 186.096 55.305 186.096ZM51.489 186V177.096H53.361V180.852L53.241 182.76L53.277 184.68V186H51.489ZM54.981 184.56C55.293 184.56 55.569 184.488 55.809 184.344C56.057 184.2 56.253 183.996 56.397 183.732C56.549 183.46 56.625 183.14 56.625 182.772C56.625 182.396 56.549 182.076 56.397 181.812C56.253 181.548 56.057 181.344 55.809 181.2C55.569 181.056 55.293 180.984 54.981 180.984C54.669 180.984 54.389 181.056 54.141 181.2C53.893 181.344 53.697 181.548 53.553 181.812C53.409 182.076 53.337 182.396 53.337 182.772C53.337 183.14 53.409 183.46 53.553 183.732C53.697 183.996 53.893 184.2 54.141 184.344C54.389 184.488 54.669 184.56 54.981 184.56ZM59.7742 186V177.096H61.6462V186H59.7742ZM66.5875 186.096C65.8515 186.096 65.2035 185.952 64.6435 185.664C64.0915 185.376 63.6635 184.984 63.3595 184.488C63.0555 183.984 62.9035 183.412 62.9035 182.772C62.9035 182.124 63.0515 181.552 63.3475 181.056C63.6515 180.552 64.0635 180.16 64.5835 179.88C65.1035 179.592 65.6915 179.448 66.3475 179.448C66.9795 179.448 67.5475 179.584 68.0515 179.856C68.5635 180.12 68.9675 180.504 69.2635 181.008C69.5595 181.504 69.7075 182.1 69.7075 182.796C69.7075 182.868 69.7035 182.952 69.6955 183.048C69.6875 183.136 69.6795 183.22 69.6715 183.3H64.4275V182.208H68.6875L67.9675 182.532C67.9675 182.196 67.8995 181.904 67.7635 181.656C67.6275 181.408 67.4395 181.216 67.1995 181.08C66.9595 180.936 66.6795 180.864 66.3595 180.864C66.0395 180.864 65.7555 180.936 65.5075 181.08C65.2675 181.216 65.0795 181.412 64.9435 181.668C64.8075 181.916 64.7395 182.212 64.7395 182.556V182.844C64.7395 183.196 64.8155 183.508 64.9675 183.78C65.1275 184.044 65.3475 184.248 65.6275 184.392C65.9155 184.528 66.2515 184.596 66.6355 184.596C66.9795 184.596 67.2795 184.544 67.5355 184.44C67.7995 184.336 68.0395 184.18 68.2555 183.972L69.2515 185.052C68.9555 185.388 68.5835 185.648 68.1355 185.832C67.6875 186.008 67.1715 186.096 66.5875 186.096ZM73.1258 186.096C72.5738 186.096 72.0418 186.032 71.5298 185.904C71.0258 185.768 70.6258 185.6 70.3298 185.4L70.9538 184.056C71.2498 184.24 71.5978 184.392 71.9978 184.512C72.4058 184.624 72.8058 184.68 73.1978 184.68C73.6298 184.68 73.9338 184.628 74.1098 184.524C74.2938 184.42 74.3858 184.276 74.3858 184.092C74.3858 183.94 74.3138 183.828 74.1698 183.756C74.0338 183.676 73.8498 183.616 73.6178 183.576C73.3858 183.536 73.1298 183.496 72.8498 183.456C72.5778 183.416 72.3018 183.364 72.0218 183.3C71.7418 183.228 71.4858 183.124 71.2538 182.988C71.0218 182.852 70.8338 182.668 70.6898 182.436C70.5538 182.204 70.4858 181.904 70.4858 181.536C70.4858 181.128 70.6018 180.768 70.8338 180.456C71.0738 180.144 71.4178 179.9 71.8658 179.724C72.3138 179.54 72.8498 179.448 73.4738 179.448C73.9138 179.448 74.3618 179.496 74.8178 179.592C75.2738 179.688 75.6538 179.828 75.9578 180.012L75.3338 181.344C75.0218 181.16 74.7058 181.036 74.3858 180.972C74.0738 180.9 73.7698 180.864 73.4738 180.864C73.0578 180.864 72.7538 180.92 72.5618 181.032C72.3698 181.144 72.2738 181.288 72.2738 181.464C72.2738 181.624 72.3418 181.744 72.4778 181.824C72.6218 181.904 72.8098 181.968 73.0418 182.016C73.2738 182.064 73.5258 182.108 73.7978 182.148C74.0778 182.18 74.3578 182.232 74.6378 182.304C74.9178 182.376 75.1698 182.48 75.3938 182.616C75.6258 182.744 75.8138 182.924 75.9578 183.156C76.1018 183.38 76.1738 183.676 76.1738 184.044C76.1738 184.444 76.0538 184.8 75.8138 185.112C75.5738 185.416 75.2258 185.656 74.7698 185.832C74.3218 186.008 73.7738 186.096 73.1258 186.096Z" fill="white"/>
<rect x="1" y="202" width="17" height="17" rx="2" fill="#43C4B6" fill-opacity="0.5" stroke="#46C6B8" stroke-width="2"/>
<path d="M40.512 206.6H41.388V215H40.512V206.6ZM35.256 215H34.368V206.6H35.256V215ZM40.596 211.124H35.16V210.344H40.596V211.124ZM43.9977 217.388C43.7017 217.388 43.4177 217.34 43.1457 217.244C42.8817 217.148 42.6537 217.004 42.4617 216.812L42.8577 216.176C43.0177 216.328 43.1897 216.444 43.3737 216.524C43.5657 216.612 43.7777 216.656 44.0097 216.656C44.2897 216.656 44.5297 216.576 44.7297 216.416C44.9377 216.264 45.1337 215.992 45.3177 215.6L45.7257 214.676L45.8217 214.544L48.4137 208.7H49.2537L46.0977 215.756C45.9217 216.164 45.7257 216.488 45.5097 216.728C45.3017 216.968 45.0737 217.136 44.8257 217.232C44.5777 217.336 44.3017 217.388 43.9977 217.388ZM45.6777 215.18L42.7737 208.7H43.6617L46.2297 214.484L45.6777 215.18ZM52.7858 215.06C52.1858 215.06 51.6458 214.924 51.1658 214.652C50.6938 214.38 50.3218 214.004 50.0498 213.524C49.7778 213.036 49.6418 212.476 49.6418 211.844C49.6418 211.204 49.7778 210.644 50.0498 210.164C50.3218 209.684 50.6938 209.312 51.1658 209.048C51.6458 208.776 52.1858 208.64 52.7858 208.64C53.3378 208.64 53.8298 208.764 54.2618 209.012C54.7018 209.26 55.0498 209.624 55.3058 210.104C55.5698 210.576 55.7018 211.156 55.7018 211.844C55.7018 212.524 55.5738 213.104 55.3178 213.584C55.0618 214.064 54.7138 214.432 54.2738 214.688C53.8418 214.936 53.3458 215.06 52.7858 215.06ZM52.8458 214.304C53.2938 214.304 53.6938 214.204 54.0458 214.004C54.4058 213.796 54.6858 213.508 54.8858 213.14C55.0938 212.764 55.1978 212.332 55.1978 211.844C55.1978 211.348 55.0938 210.916 54.8858 210.548C54.6858 210.18 54.4058 209.896 54.0458 209.696C53.6938 209.488 53.2938 209.384 52.8458 209.384C52.4058 209.384 52.0098 209.488 51.6578 209.696C51.3058 209.896 51.0258 210.18 50.8178 210.548C50.6098 210.916 50.5058 211.348 50.5058 211.844C50.5058 212.332 50.6098 212.764 50.8178 213.14C51.0258 213.508 51.3058 213.796 51.6578 214.004C52.0098 214.204 52.4058 214.304 52.8458 214.304ZM55.2218 215V213.104L55.3058 211.832L55.1858 210.56V206.096H56.0378V215H55.2218ZM58.4107 215V208.7H59.2267V210.416L59.1427 210.116C59.3187 209.636 59.6147 209.272 60.0307 209.024C60.4467 208.768 60.9627 208.64 61.5787 208.64V209.468C61.5467 209.468 61.5147 209.468 61.4827 209.468C61.4507 209.46 61.4187 209.456 61.3867 209.456C60.7227 209.456 60.2027 209.66 59.8267 210.068C59.4507 210.468 59.2627 211.04 59.2627 211.784V215H58.4107ZM65.6427 215.06C65.0347 215.06 64.4867 214.924 63.9987 214.652C63.5187 214.372 63.1387 213.992 62.8587 213.512C62.5787 213.024 62.4387 212.468 62.4387 211.844C62.4387 211.212 62.5787 210.656 62.8587 210.176C63.1387 209.696 63.5187 209.32 63.9987 209.048C64.4787 208.776 65.0267 208.64 65.6427 208.64C66.2667 208.64 66.8187 208.776 67.2987 209.048C67.7867 209.32 68.1667 209.696 68.4387 210.176C68.7187 210.656 68.8587 211.212 68.8587 211.844C68.8587 212.468 68.7187 213.024 68.4387 213.512C68.1667 213.992 67.7867 214.372 67.2987 214.652C66.8107 214.924 66.2587 215.06 65.6427 215.06ZM65.6427 214.304C66.0987 214.304 66.5027 214.204 66.8547 214.004C67.2067 213.796 67.4827 213.508 67.6827 213.14C67.8907 212.764 67.9947 212.332 67.9947 211.844C67.9947 211.348 67.8907 210.916 67.6827 210.548C67.4827 210.18 67.2067 209.896 66.8547 209.696C66.5027 209.488 66.1027 209.384 65.6547 209.384C65.2067 209.384 64.8067 209.488 64.4547 209.696C64.1027 209.896 63.8227 210.18 63.6147 210.548C63.4067 210.916 63.3027 211.348 63.3027 211.844C63.3027 212.332 63.4067 212.764 63.6147 213.14C63.8227 213.508 64.1027 213.796 64.4547 214.004C64.8067 214.204 65.2027 214.304 65.6427 214.304ZM73.2742 215.06C72.6182 215.06 72.0422 214.924 71.5462 214.652C71.0502 214.372 70.6622 213.992 70.3822 213.512C70.1022 213.024 69.9622 212.468 69.9622 211.844C69.9622 211.22 70.0942 210.668 70.3582 210.188C70.6302 209.708 70.9982 209.332 71.4622 209.06C71.9342 208.78 72.4622 208.64 73.0462 208.64C73.6382 208.64 74.1622 208.776 74.6182 209.048C75.0822 209.312 75.4462 209.688 75.7102 210.176C75.9742 210.656 76.1062 211.212 76.1062 211.844C76.1062 211.884 76.1022 211.928 76.0942 211.976C76.0942 212.016 76.0942 212.06 76.0942 212.108H70.6102V211.472H75.6382L75.3022 211.724C75.3022 211.268 75.2022 210.864 75.0022 210.512C74.8102 210.152 74.5462 209.872 74.2102 209.672C73.8742 209.472 73.4862 209.372 73.0462 209.372C72.6142 209.372 72.2262 209.472 71.8822 209.672C71.5382 209.872 71.2702 210.152 71.0782 210.512C70.8862 210.872 70.7902 211.284 70.7902 211.748V211.88C70.7902 212.36 70.8942 212.784 71.1022 213.152C71.3182 213.512 71.6142 213.796 71.9902 214.004C72.3742 214.204 72.8102 214.304 73.2982 214.304C73.6822 214.304 74.0382 214.236 74.3662 214.1C74.7022 213.964 74.9902 213.756 75.2302 213.476L75.7102 214.028C75.4302 214.364 75.0782 214.62 74.6542 214.796C74.2382 214.972 73.7782 215.06 73.2742 215.06ZM77.8403 215V206.096H78.6923V215H77.8403ZM83.739 215.06C83.083 215.06 82.507 214.924 82.011 214.652C81.515 214.372 81.127 213.992 80.847 213.512C80.567 213.024 80.427 212.468 80.427 211.844C80.427 211.22 80.559 210.668 80.823 210.188C81.095 209.708 81.463 209.332 81.927 209.06C82.399 208.78 82.927 208.64 83.511 208.64C84.103 208.64 84.627 208.776 85.083 209.048C85.547 209.312 85.911 209.688 86.175 210.176C86.439 210.656 86.571 211.212 86.571 211.844C86.571 211.884 86.567 211.928 86.559 211.976C86.559 212.016 86.559 212.06 86.559 212.108H81.075V211.472H86.103L85.767 211.724C85.767 211.268 85.667 210.864 85.467 210.512C85.275 210.152 85.011 209.872 84.675 209.672C84.339 209.472 83.951 209.372 83.511 209.372C83.079 209.372 82.691 209.472 82.347 209.672C82.003 209.872 81.735 210.152 81.543 210.512C81.351 210.872 81.255 211.284 81.255 211.748V211.88C81.255 212.36 81.359 212.784 81.567 213.152C81.783 213.512 82.079 213.796 82.455 214.004C82.839 214.204 83.275 214.304 83.763 214.304C84.147 214.304 84.503 214.236 84.831 214.1C85.167 213.964 85.455 213.756 85.695 213.476L86.175 214.028C85.895 214.364 85.543 214.62 85.119 214.796C84.703 214.972 84.243 215.06 83.739 215.06ZM90.9212 215.06C90.2972 215.06 89.7372 214.924 89.2412 214.652C88.7532 214.372 88.3692 213.992 88.0892 213.512C87.8092 213.024 87.6692 212.468 87.6692 211.844C87.6692 211.212 87.8092 210.656 88.0892 210.176C88.3692 209.696 88.7532 209.32 89.2412 209.048C89.7372 208.776 90.2972 208.64 90.9212 208.64C91.4572 208.64 91.9412 208.744 92.3732 208.952C92.8052 209.16 93.1452 209.472 93.3932 209.888L92.7572 210.32C92.5412 210 92.2732 209.764 91.9532 209.612C91.6332 209.46 91.2852 209.384 90.9092 209.384C90.4612 209.384 90.0572 209.488 89.6972 209.696C89.3372 209.896 89.0532 210.18 88.8452 210.548C88.6372 210.916 88.5332 211.348 88.5332 211.844C88.5332 212.34 88.6372 212.772 88.8452 213.14C89.0532 213.508 89.3372 213.796 89.6972 214.004C90.0572 214.204 90.4612 214.304 90.9092 214.304C91.2852 214.304 91.6332 214.228 91.9532 214.076C92.2732 213.924 92.5412 213.692 92.7572 213.38L93.3932 213.812C93.1452 214.22 92.8052 214.532 92.3732 214.748C91.9412 214.956 91.4572 215.06 90.9212 215.06ZM97.1292 215.06C96.5372 215.06 96.0812 214.9 95.7612 214.58C95.4412 214.26 95.2812 213.808 95.2812 213.224V207.308H96.1332V213.176C96.1332 213.544 96.2252 213.828 96.4092 214.028C96.6012 214.228 96.8732 214.328 97.2252 214.328C97.6012 214.328 97.9132 214.22 98.1612 214.004L98.4612 214.616C98.2932 214.768 98.0892 214.88 97.8492 214.952C97.6172 215.024 97.3772 215.06 97.1292 215.06ZM94.1532 209.408V208.7H98.0532V209.408H94.1532ZM100.012 215V208.7H100.828V210.416L100.744 210.116C100.92 209.636 101.216 209.272 101.632 209.024C102.048 208.768 102.564 208.64 103.18 208.64V209.468C103.148 209.468 103.116 209.468 103.084 209.468C103.052 209.46 103.02 209.456 102.988 209.456C102.324 209.456 101.804 209.66 101.428 210.068C101.052 210.468 100.864 211.04 100.864 211.784V215H100.012ZM104.735 215V208.7H105.587V215H104.735ZM105.167 207.308C104.991 207.308 104.843 207.248 104.723 207.128C104.603 207.008 104.543 206.864 104.543 206.696C104.543 206.528 104.603 206.388 104.723 206.276C104.843 206.156 104.991 206.096 105.167 206.096C105.343 206.096 105.491 206.152 105.611 206.264C105.731 206.376 105.791 206.516 105.791 206.684C105.791 206.86 105.731 207.008 105.611 207.128C105.499 207.248 105.351 207.308 105.167 207.308ZM110.574 215.06C109.95 215.06 109.39 214.924 108.894 214.652C108.406 214.372 108.022 213.992 107.742 213.512C107.462 213.024 107.322 212.468 107.322 211.844C107.322 211.212 107.462 210.656 107.742 210.176C108.022 209.696 108.406 209.32 108.894 209.048C109.39 208.776 109.95 208.64 110.574 208.64C111.11 208.64 111.594 208.744 112.026 208.952C112.458 209.16 112.798 209.472 113.046 209.888L112.41 210.32C112.194 210 111.926 209.764 111.606 209.612C111.286 209.46 110.938 209.384 110.562 209.384C110.114 209.384 109.71 209.488 109.35 209.696C108.99 209.896 108.706 210.18 108.498 210.548C108.29 210.916 108.186 211.348 108.186 211.844C108.186 212.34 108.29 212.772 108.498 213.14C108.706 213.508 108.99 213.796 109.35 214.004C109.71 214.204 110.114 214.304 110.562 214.304C110.938 214.304 111.286 214.228 111.606 214.076C111.926 213.924 112.194 213.692 112.41 213.38L113.046 213.812C112.798 214.22 112.458 214.532 112.026 214.748C111.594 214.956 111.11 215.06 110.574 215.06Z" fill="white"/>
<g clip-path="url(#clip3_766_6000)">
<rect x="1" y="233" width="17" height="17" rx="2" fill="#C4F86F" fill-opacity="0.5" stroke="#C4F86F" stroke-width="2"/>
<path d="M34.368 246V237.6H37.992C38.928 237.6 39.652 237.788 40.164 238.164C40.684 238.54 40.944 239.072 40.944 239.76C40.944 240.216 40.836 240.6 40.62 240.912C40.412 241.224 40.124 241.46 39.756 241.62C39.396 241.78 39 241.86 38.568 241.86L38.772 241.572C39.308 241.572 39.768 241.656 40.152 241.824C40.544 241.984 40.848 242.228 41.064 242.556C41.28 242.876 41.388 243.276 41.388 243.756C41.388 244.468 41.124 245.02 40.596 245.412C40.076 245.804 39.288 246 38.232 246H34.368ZM35.256 245.268H38.22C38.956 245.268 39.52 245.144 39.912 244.896C40.304 244.64 40.5 244.236 40.5 243.684C40.5 243.14 40.304 242.744 39.912 242.496C39.52 242.24 38.956 242.112 38.22 242.112H35.16V241.38H37.932C38.604 241.38 39.124 241.252 39.492 240.996C39.868 240.74 40.056 240.36 40.056 239.856C40.056 239.344 39.868 238.964 39.492 238.716C39.124 238.46 38.604 238.332 37.932 238.332H35.256V245.268ZM43.2349 246V239.7H44.0869V246H43.2349ZM43.6669 238.308C43.4909 238.308 43.3429 238.248 43.2229 238.128C43.1029 238.008 43.0429 237.864 43.0429 237.696C43.0429 237.528 43.1029 237.388 43.2229 237.276C43.3429 237.156 43.4909 237.096 43.6669 237.096C43.8429 237.096 43.9909 237.152 44.1109 237.264C44.2309 237.376 44.2909 237.516 44.2909 237.684C44.2909 237.86 44.2309 238.008 44.1109 238.128C43.9989 238.248 43.8509 238.308 43.6669 238.308ZM49.0255 246.06C48.4175 246.06 47.8695 245.924 47.3815 245.652C46.9015 245.372 46.5215 244.992 46.2415 244.512C45.9615 244.024 45.8215 243.468 45.8215 242.844C45.8215 242.212 45.9615 241.656 46.2415 241.176C46.5215 240.696 46.9015 240.32 47.3815 240.048C47.8615 239.776 48.4095 239.64 49.0255 239.64C49.6495 239.64 50.2015 239.776 50.6815 240.048C51.1695 240.32 51.5495 240.696 51.8215 241.176C52.1015 241.656 52.2415 242.212 52.2415 242.844C52.2415 243.468 52.1015 244.024 51.8215 244.512C51.5495 244.992 51.1695 245.372 50.6815 245.652C50.1935 245.924 49.6415 246.06 49.0255 246.06ZM49.0255 245.304C49.4815 245.304 49.8855 245.204 50.2375 245.004C50.5895 244.796 50.8655 244.508 51.0655 244.14C51.2735 243.764 51.3775 243.332 51.3775 242.844C51.3775 242.348 51.2735 241.916 51.0655 241.548C50.8655 241.18 50.5895 240.896 50.2375 240.696C49.8855 240.488 49.4855 240.384 49.0375 240.384C48.5895 240.384 48.1895 240.488 47.8375 240.696C47.4855 240.896 47.2055 241.18 46.9975 241.548C46.7895 241.916 46.6855 242.348 46.6855 242.844C46.6855 243.332 46.7895 243.764 46.9975 244.14C47.2055 244.508 47.4855 244.796 47.8375 245.004C48.1895 245.204 48.5855 245.304 49.0255 245.304ZM56.657 246.06C56.001 246.06 55.425 245.924 54.929 245.652C54.433 245.372 54.045 244.992 53.765 244.512C53.485 244.024 53.345 243.468 53.345 242.844C53.345 242.22 53.477 241.668 53.741 241.188C54.013 240.708 54.381 240.332 54.845 240.06C55.317 239.78 55.845 239.64 56.429 239.64C57.021 239.64 57.545 239.776 58.001 240.048C58.465 240.312 58.829 240.688 59.093 241.176C59.357 241.656 59.489 242.212 59.489 242.844C59.489 242.884 59.485 242.928 59.477 242.976C59.477 243.016 59.477 243.06 59.477 243.108H53.993V242.472H59.021L58.685 242.724C58.685 242.268 58.585 241.864 58.385 241.512C58.193 241.152 57.929 240.872 57.593 240.672C57.257 240.472 56.869 240.372 56.429 240.372C55.997 240.372 55.609 240.472 55.265 240.672C54.921 240.872 54.653 241.152 54.461 241.512C54.269 241.872 54.173 242.284 54.173 242.748V242.88C54.173 243.36 54.277 243.784 54.485 244.152C54.701 244.512 54.997 244.796 55.373 245.004C55.757 245.204 56.193 245.304 56.681 245.304C57.065 245.304 57.421 245.236 57.749 245.1C58.085 244.964 58.373 244.756 58.613 244.476L59.093 245.028C58.813 245.364 58.461 245.62 58.037 245.796C57.621 245.972 57.161 246.06 56.657 246.06ZM64.4392 239.64C64.9512 239.64 65.3992 239.74 65.7832 239.94C66.1752 240.132 66.4792 240.428 66.6952 240.828C66.9192 241.228 67.0312 241.732 67.0312 242.34V246H66.1792V242.424C66.1792 241.76 66.0112 241.26 65.6752 240.924C65.3472 240.58 64.8832 240.408 64.2832 240.408C63.8352 240.408 63.4432 240.5 63.1072 240.684C62.7792 240.86 62.5232 241.12 62.3392 241.464C62.1632 241.8 62.0752 242.208 62.0752 242.688V246H61.2232V239.7H62.0392V241.428L61.9072 241.104C62.1072 240.648 62.4272 240.292 62.8672 240.036C63.3072 239.772 63.8312 239.64 64.4392 239.64ZM72.0085 246.06C71.3525 246.06 70.7765 245.924 70.2805 245.652C69.7845 245.372 69.3965 244.992 69.1165 244.512C68.8365 244.024 68.6965 243.468 68.6965 242.844C68.6965 242.22 68.8285 241.668 69.0925 241.188C69.3645 240.708 69.7325 240.332 70.1965 240.06C70.6685 239.78 71.1965 239.64 71.7805 239.64C72.3725 239.64 72.8965 239.776 73.3525 240.048C73.8165 240.312 74.1805 240.688 74.4445 241.176C74.7085 241.656 74.8405 242.212 74.8405 242.844C74.8405 242.884 74.8365 242.928 74.8285 242.976C74.8285 243.016 74.8285 243.06 74.8285 243.108H69.3445V242.472H74.3725L74.0365 242.724C74.0365 242.268 73.9365 241.864 73.7365 241.512C73.5445 241.152 73.2805 240.872 72.9445 240.672C72.6085 240.472 72.2205 240.372 71.7805 240.372C71.3485 240.372 70.9605 240.472 70.6165 240.672C70.2725 240.872 70.0045 241.152 69.8125 241.512C69.6205 241.872 69.5245 242.284 69.5245 242.748V242.88C69.5245 243.36 69.6285 243.784 69.8365 244.152C70.0525 244.512 70.3485 244.796 70.7245 245.004C71.1085 245.204 71.5445 245.304 72.0325 245.304C72.4165 245.304 72.7725 245.236 73.1005 245.1C73.4365 244.964 73.7245 244.756 73.9645 244.476L74.4445 245.028C74.1645 245.364 73.8125 245.62 73.3885 245.796C72.9725 245.972 72.5125 246.06 72.0085 246.06ZM76.5747 246V239.7H77.3907V241.416L77.3067 241.116C77.4827 240.636 77.7787 240.272 78.1947 240.024C78.6107 239.768 79.1267 239.64 79.7427 239.64V240.468C79.7107 240.468 79.6787 240.468 79.6467 240.468C79.6147 240.46 79.5827 240.456 79.5507 240.456C78.8867 240.456 78.3667 240.66 77.9907 241.068C77.6147 241.468 77.4267 242.04 77.4267 242.784V246H76.5747ZM83.9268 248.388C83.3508 248.388 82.7988 248.304 82.2708 248.136C81.7428 247.968 81.3148 247.728 80.9868 247.416L81.4188 246.768C81.7148 247.032 82.0788 247.24 82.5108 247.392C82.9508 247.552 83.4148 247.632 83.9028 247.632C84.7028 247.632 85.2908 247.444 85.6668 247.068C86.0428 246.7 86.2308 246.124 86.2308 245.34V243.768L86.3508 242.688L86.2668 241.608V239.7H87.0828V245.232C87.0828 246.32 86.8148 247.116 86.2788 247.62C85.7508 248.132 84.9668 248.388 83.9268 248.388ZM83.7708 245.76C83.1708 245.76 82.6308 245.632 82.1508 245.376C81.6708 245.112 81.2908 244.748 81.0108 244.284C80.7388 243.82 80.6028 243.288 80.6028 242.688C80.6028 242.088 80.7388 241.56 81.0108 241.104C81.2908 240.64 81.6708 240.28 82.1508 240.024C82.6308 239.768 83.1708 239.64 83.7708 239.64C84.3308 239.64 84.8348 239.756 85.2828 239.988C85.7308 240.22 86.0868 240.564 86.3508 241.02C86.6148 241.476 86.7468 242.032 86.7468 242.688C86.7468 243.344 86.6148 243.9 86.3508 244.356C86.0868 244.812 85.7308 245.16 85.2828 245.4C84.8348 245.64 84.3308 245.76 83.7708 245.76ZM83.8548 245.004C84.3188 245.004 84.7308 244.908 85.0908 244.716C85.4508 244.516 85.7348 244.244 85.9428 243.9C86.1508 243.548 86.2548 243.144 86.2548 242.688C86.2548 242.232 86.1508 241.832 85.9428 241.488C85.7348 241.144 85.4508 240.876 85.0908 240.684C84.7308 240.484 84.3188 240.384 83.8548 240.384C83.3988 240.384 82.9868 240.484 82.6188 240.684C82.2588 240.876 81.9748 241.144 81.7668 241.488C81.5668 241.832 81.4668 242.232 81.4668 242.688C81.4668 243.144 81.5668 243.548 81.7668 243.9C81.9748 244.244 82.2588 244.516 82.6188 244.716C82.9868 244.908 83.3988 245.004 83.8548 245.004ZM89.5016 248.388C89.2056 248.388 88.9216 248.34 88.6496 248.244C88.3856 248.148 88.1576 248.004 87.9656 247.812L88.3616 247.176C88.5216 247.328 88.6936 247.444 88.8776 247.524C89.0696 247.612 89.2816 247.656 89.5136 247.656C89.7936 247.656 90.0336 247.576 90.2336 247.416C90.4416 247.264 90.6376 246.992 90.8216 246.6L91.2296 245.676L91.3256 245.544L93.9176 239.7H94.7576L91.6016 246.756C91.4256 247.164 91.2296 247.488 91.0136 247.728C90.8056 247.968 90.5776 248.136 90.3296 248.232C90.0816 248.336 89.8056 248.388 89.5016 248.388ZM91.1816 246.18L88.2776 239.7H89.1656L91.7336 245.484L91.1816 246.18Z" fill="white"/>
</g>
<g clip-path="url(#clip4_766_6000)">
<rect x="1" y="262.5" width="17" height="17" rx="2" fill="#FF63E3" fill-opacity="0.5" stroke="#FF63E3" stroke-width="2"/>
<path d="M36.276 275.5L33.444 267.1H34.356L37.008 275.008H36.552L39.288 267.1H40.104L42.804 275.008H42.372L45.048 267.1H45.9L43.068 275.5H42.132L39.552 268H39.792L37.2 275.5H36.276ZM47.313 275.5V269.2H48.165V275.5H47.313ZM47.745 267.808C47.569 267.808 47.421 267.748 47.301 267.628C47.181 267.508 47.121 267.364 47.121 267.196C47.121 267.028 47.181 266.888 47.301 266.776C47.421 266.656 47.569 266.596 47.745 266.596C47.921 266.596 48.069 266.652 48.189 266.764C48.309 266.876 48.369 267.016 48.369 267.184C48.369 267.36 48.309 267.508 48.189 267.628C48.077 267.748 47.929 267.808 47.745 267.808ZM53.7517 269.14C54.2637 269.14 54.7117 269.24 55.0957 269.44C55.4877 269.632 55.7917 269.928 56.0077 270.328C56.2317 270.728 56.3437 271.232 56.3437 271.84V275.5H55.4917V271.924C55.4917 271.26 55.3237 270.76 54.9877 270.424C54.6597 270.08 54.1957 269.908 53.5957 269.908C53.1477 269.908 52.7557 270 52.4197 270.184C52.0917 270.36 51.8357 270.62 51.6517 270.964C51.4757 271.3 51.3877 271.708 51.3877 272.188V275.5H50.5357V269.2H51.3517V270.928L51.2197 270.604C51.4197 270.148 51.7397 269.792 52.1797 269.536C52.6197 269.272 53.1437 269.14 53.7517 269.14ZM61.153 275.56C60.553 275.56 60.013 275.424 59.533 275.152C59.061 274.88 58.689 274.504 58.417 274.024C58.145 273.536 58.009 272.976 58.009 272.344C58.009 271.704 58.145 271.144 58.417 270.664C58.689 270.184 59.061 269.812 59.533 269.548C60.013 269.276 60.553 269.14 61.153 269.14C61.705 269.14 62.197 269.264 62.629 269.512C63.069 269.76 63.417 270.124 63.673 270.604C63.937 271.076 64.069 271.656 64.069 272.344C64.069 273.024 63.941 273.604 63.685 274.084C63.429 274.564 63.081 274.932 62.641 275.188C62.209 275.436 61.713 275.56 61.153 275.56ZM61.213 274.804C61.661 274.804 62.061 274.704 62.413 274.504C62.773 274.296 63.053 274.008 63.253 273.64C63.461 273.264 63.565 272.832 63.565 272.344C63.565 271.848 63.461 271.416 63.253 271.048C63.053 270.68 62.773 270.396 62.413 270.196C62.061 269.988 61.661 269.884 61.213 269.884C60.773 269.884 60.377 269.988 60.025 270.196C59.673 270.396 59.393 270.68 59.185 271.048C58.977 271.416 58.873 271.848 58.873 272.344C58.873 272.832 58.977 273.264 59.185 273.64C59.393 274.008 59.673 274.296 60.025 274.504C60.377 274.704 60.773 274.804 61.213 274.804ZM63.589 275.5V273.604L63.673 272.332L63.553 271.06V266.596H64.405V275.5H63.589Z" fill="white"/>
</g>
<g clip-path="url(#clip5_766_6000)">
<rect x="1" y="293" width="17" height="17" rx="2" fill="#F2CF1B" fill-opacity="0.5" stroke="#F2CF1B" stroke-width="2"/>
<path d="M36.684 306.072C36.06 306.072 35.46 305.972 34.884 305.772C34.316 305.564 33.876 305.3 33.564 304.98L33.912 304.296C34.208 304.584 34.604 304.828 35.1 305.028C35.604 305.22 36.132 305.316 36.684 305.316C37.212 305.316 37.64 305.252 37.968 305.124C38.304 304.988 38.548 304.808 38.7 304.584C38.86 304.36 38.94 304.112 38.94 303.84C38.94 303.512 38.844 303.248 38.652 303.048C38.468 302.848 38.224 302.692 37.92 302.58C37.616 302.46 37.28 302.356 36.912 302.268C36.544 302.18 36.176 302.088 35.808 301.992C35.44 301.888 35.1 301.752 34.788 301.584C34.484 301.416 34.236 301.196 34.044 300.924C33.86 300.644 33.768 300.28 33.768 299.832C33.768 299.416 33.876 299.036 34.092 298.692C34.316 298.34 34.656 298.06 35.112 297.852C35.568 297.636 36.152 297.528 36.864 297.528C37.336 297.528 37.804 297.596 38.268 297.732C38.732 297.86 39.132 298.04 39.468 298.272L39.168 298.98C38.808 298.74 38.424 298.564 38.016 298.452C37.616 298.34 37.228 298.284 36.852 298.284C36.348 298.284 35.932 298.352 35.604 298.488C35.276 298.624 35.032 298.808 34.872 299.04C34.72 299.264 34.644 299.52 34.644 299.808C34.644 300.136 34.736 300.4 34.92 300.6C35.112 300.8 35.36 300.956 35.664 301.068C35.976 301.18 36.316 301.28 36.684 301.368C37.052 301.456 37.416 301.552 37.776 301.656C38.144 301.76 38.48 301.896 38.784 302.064C39.096 302.224 39.344 302.44 39.528 302.712C39.72 302.984 39.816 303.34 39.816 303.78C39.816 304.188 39.704 304.568 39.48 304.92C39.256 305.264 38.912 305.544 38.448 305.76C37.992 305.968 37.404 306.072 36.684 306.072ZM44.1388 306.06C43.5308 306.06 42.9828 305.924 42.4948 305.652C42.0148 305.372 41.6348 304.992 41.3548 304.512C41.0748 304.024 40.9348 303.468 40.9348 302.844C40.9348 302.212 41.0748 301.656 41.3548 301.176C41.6348 300.696 42.0148 300.32 42.4948 300.048C42.9748 299.776 43.5228 299.64 44.1388 299.64C44.7628 299.64 45.3148 299.776 45.7948 300.048C46.2828 300.32 46.6628 300.696 46.9348 301.176C47.2148 301.656 47.3548 302.212 47.3548 302.844C47.3548 303.468 47.2148 304.024 46.9348 304.512C46.6628 304.992 46.2828 305.372 45.7948 305.652C45.3068 305.924 44.7548 306.06 44.1388 306.06ZM44.1388 305.304C44.5948 305.304 44.9988 305.204 45.3508 305.004C45.7028 304.796 45.9788 304.508 46.1788 304.14C46.3868 303.764 46.4908 303.332 46.4908 302.844C46.4908 302.348 46.3868 301.916 46.1788 301.548C45.9788 301.18 45.7028 300.896 45.3508 300.696C44.9988 300.488 44.5988 300.384 44.1508 300.384C43.7028 300.384 43.3028 300.488 42.9508 300.696C42.5988 300.896 42.3188 301.18 42.1108 301.548C41.9028 301.916 41.7988 302.348 41.7988 302.844C41.7988 303.332 41.9028 303.764 42.1108 304.14C42.3188 304.508 42.5988 304.796 42.9508 305.004C43.3028 305.204 43.6988 305.304 44.1388 305.304ZM49.0943 306V297.096H49.9463V306H49.0943ZM56.2649 306V304.608L56.2289 304.38V302.052C56.2289 301.516 56.0769 301.104 55.7729 300.816C55.4769 300.528 55.0329 300.384 54.4409 300.384C54.0329 300.384 53.6449 300.452 53.2769 300.588C52.9089 300.724 52.5969 300.904 52.3409 301.128L51.9569 300.492C52.2769 300.22 52.6609 300.012 53.1089 299.868C53.5569 299.716 54.0289 299.64 54.5249 299.64C55.3409 299.64 55.9689 299.844 56.4089 300.252C56.8569 300.652 57.0809 301.264 57.0809 302.088V306H56.2649ZM54.0929 306.06C53.6209 306.06 53.2089 305.984 52.8569 305.832C52.5129 305.672 52.2489 305.456 52.0649 305.184C51.8809 304.904 51.7889 304.584 51.7889 304.224C51.7889 303.896 51.8649 303.6 52.0169 303.336C52.1769 303.064 52.4329 302.848 52.7849 302.688C53.1449 302.52 53.6249 302.436 54.2249 302.436H56.3969V303.072H54.2489C53.6409 303.072 53.2169 303.18 52.9769 303.396C52.7449 303.612 52.6289 303.88 52.6289 304.2C52.6289 304.56 52.7689 304.848 53.0489 305.064C53.3289 305.28 53.7209 305.388 54.2249 305.388C54.7049 305.388 55.1169 305.28 55.4609 305.064C55.8129 304.84 56.0689 304.52 56.2289 304.104L56.4209 304.692C56.2609 305.108 55.9809 305.44 55.5809 305.688C55.1889 305.936 54.6929 306.06 54.0929 306.06ZM59.395 306V299.7H60.211V301.416L60.127 301.116C60.303 300.636 60.599 300.272 61.015 300.024C61.431 299.768 61.947 299.64 62.563 299.64V300.468C62.531 300.468 62.499 300.468 62.467 300.468C62.435 300.46 62.403 300.456 62.371 300.456C61.707 300.456 61.187 300.66 60.811 301.068C60.435 301.468 60.247 302.04 60.247 302.784V306H59.395Z" fill="white"/>
</g>
<defs>
<clipPath id="clip0_766_6000">
<rect width="80" height="19" fill="white" transform="translate(0 87)"/>
</clipPath>
<clipPath id="clip1_766_6000">
<rect width="60" height="19" fill="white" transform="translate(0 116)"/>
</clipPath>
<clipPath id="clip2_766_6000">
<rect width="103" height="19" fill="white" transform="translate(0 145)"/>
</clipPath>
<clipPath id="clip3_766_6000">
<rect width="95" height="19" fill="white" transform="translate(0 232)"/>
</clipPath>
<clipPath id="clip4_766_6000">
<rect width="78" height="20" fill="white" transform="translate(0 261)"/>
</clipPath>
<clipPath id="clip5_766_6000">
<rect width="69" height="21" fill="white" transform="translate(0 291)"/>
</clipPath>
</defs>
</svg>
