<svg width="1091" height="15" viewBox="0 0 1091 15" fill="none" xmlns="http://www.w3.org/2000/svg">
<circle cx="7.5" cy="7.5" r="7.5" fill="#925CFF"/>
<path d="M22.16 7.668H26.6V8.436H22.16V7.668ZM22.256 12H21.368V3.6H27.128V4.368H22.256V12ZM28.7818 12V3.096H29.6338V12H28.7818ZM34.5724 12.06C33.9644 12.06 33.4164 11.924 32.9284 11.652C32.4484 11.372 32.0684 10.992 31.7884 10.512C31.5084 10.024 31.3684 9.468 31.3684 8.844C31.3684 8.212 31.5084 7.656 31.7884 7.176C32.0684 6.696 32.4484 6.32 32.9284 6.048C33.4084 5.776 33.9564 5.64 34.5724 5.64C35.1964 5.64 35.7484 5.776 36.2284 6.048C36.7164 6.32 37.0964 6.696 37.3684 7.176C37.6484 7.656 37.7884 8.212 37.7884 8.844C37.7884 9.468 37.6484 10.024 37.3684 10.512C37.0964 10.992 36.7164 11.372 36.2284 11.652C35.7404 11.924 35.1884 12.06 34.5724 12.06ZM34.5724 11.304C35.0284 11.304 35.4324 11.204 35.7844 11.004C36.1364 10.796 36.4124 10.508 36.6124 10.14C36.8204 9.764 36.9244 9.332 36.9244 8.844C36.9244 8.348 36.8204 7.916 36.6124 7.548C36.4124 7.18 36.1364 6.896 35.7844 6.696C35.4324 6.488 35.0324 6.384 34.5844 6.384C34.1364 6.384 33.7364 6.488 33.3844 6.696C33.0324 6.896 32.7524 7.18 32.5444 7.548C32.3364 7.916 32.2324 8.348 32.2324 8.844C32.2324 9.332 32.3364 9.764 32.5444 10.14C32.7524 10.508 33.0324 10.796 33.3844 11.004C33.7364 11.204 34.1324 11.304 34.5724 11.304ZM42.0958 12.06C41.4878 12.06 40.9398 11.924 40.4518 11.652C39.9718 11.372 39.5918 10.992 39.3118 10.512C39.0318 10.024 38.8918 9.468 38.8918 8.844C38.8918 8.212 39.0318 7.656 39.3118 7.176C39.5918 6.696 39.9718 6.32 40.4518 6.048C40.9318 5.776 41.4798 5.64 42.0958 5.64C42.7198 5.64 43.2718 5.776 43.7518 6.048C44.2398 6.32 44.6198 6.696 44.8918 7.176C45.1718 7.656 45.3118 8.212 45.3118 8.844C45.3118 9.468 45.1718 10.024 44.8918 10.512C44.6198 10.992 44.2398 11.372 43.7518 11.652C43.2638 11.924 42.7118 12.06 42.0958 12.06ZM42.0958 11.304C42.5518 11.304 42.9558 11.204 43.3078 11.004C43.6598 10.796 43.9358 10.508 44.1358 10.14C44.3438 9.764 44.4478 9.332 44.4478 8.844C44.4478 8.348 44.3438 7.916 44.1358 7.548C43.9358 7.18 43.6598 6.896 43.3078 6.696C42.9558 6.488 42.5558 6.384 42.1078 6.384C41.6598 6.384 41.2598 6.488 40.9078 6.696C40.5558 6.896 40.2758 7.18 40.0678 7.548C39.8598 7.916 39.7558 8.348 39.7558 8.844C39.7558 9.332 39.8598 9.764 40.0678 10.14C40.2758 10.508 40.5558 10.796 40.9078 11.004C41.2598 11.204 41.6558 11.304 42.0958 11.304ZM49.5593 12.06C48.9593 12.06 48.4193 11.924 47.9393 11.652C47.4673 11.38 47.0953 11.004 46.8233 10.524C46.5513 10.036 46.4153 9.476 46.4153 8.844C46.4153 8.204 46.5513 7.644 46.8233 7.164C47.0953 6.684 47.4673 6.312 47.9393 6.048C48.4193 5.776 48.9593 5.64 49.5593 5.64C50.1113 5.64 50.6033 5.764 51.0353 6.012C51.4753 6.26 51.8233 6.624 52.0793 7.104C52.3433 7.576 52.4753 8.156 52.4753 8.844C52.4753 9.524 52.3473 10.104 52.0913 10.584C51.8353 11.064 51.4873 11.432 51.0473 11.688C50.6153 11.936 50.1193 12.06 49.5593 12.06ZM49.6193 11.304C50.0673 11.304 50.4673 11.204 50.8193 11.004C51.1793 10.796 51.4593 10.508 51.6593 10.14C51.8673 9.764 51.9713 9.332 51.9713 8.844C51.9713 8.348 51.8673 7.916 51.6593 7.548C51.4593 7.18 51.1793 6.896 50.8193 6.696C50.4673 6.488 50.0673 6.384 49.6193 6.384C49.1793 6.384 48.7833 6.488 48.4313 6.696C48.0793 6.896 47.7993 7.18 47.5913 7.548C47.3833 7.916 47.2793 8.348 47.2793 8.844C47.2793 9.332 47.3833 9.764 47.5913 10.14C47.7993 10.508 48.0793 10.796 48.4313 11.004C48.7833 11.204 49.1793 11.304 49.6193 11.304ZM51.9953 12V10.104L52.0793 8.832L51.9593 7.56V3.096H52.8113V12H51.9953ZM55.1841 12V5.7H56.0361V12H55.1841ZM55.6161 4.308C55.4401 4.308 55.2921 4.248 55.1721 4.128C55.0521 4.008 54.9921 3.864 54.9921 3.696C54.9921 3.528 55.0521 3.388 55.1721 3.276C55.2921 3.156 55.4401 3.096 55.6161 3.096C55.7921 3.096 55.9401 3.152 56.0601 3.264C56.1801 3.376 56.2401 3.516 56.2401 3.684C56.2401 3.86 56.1801 4.008 56.0601 4.128C55.9481 4.248 55.8001 4.308 55.6161 4.308ZM61.6228 5.64C62.1348 5.64 62.5828 5.74 62.9668 5.94C63.3588 6.132 63.6628 6.428 63.8788 6.828C64.1028 7.228 64.2148 7.732 64.2148 8.34V12H63.3628V8.424C63.3628 7.76 63.1948 7.26 62.8588 6.924C62.5308 6.58 62.0668 6.408 61.4668 6.408C61.0188 6.408 60.6268 6.5 60.2908 6.684C59.9628 6.86 59.7068 7.12 59.5228 7.464C59.3468 7.8 59.2588 8.208 59.2588 8.688V12H58.4068V5.7H59.2228V7.428L59.0908 7.104C59.2908 6.648 59.6108 6.292 60.0508 6.036C60.4908 5.772 61.0148 5.64 61.6228 5.64ZM69.2041 14.388C68.6281 14.388 68.0761 14.304 67.5481 14.136C67.0201 13.968 66.5921 13.728 66.2641 13.416L66.6961 12.768C66.9921 13.032 67.3561 13.24 67.7881 13.392C68.2281 13.552 68.6921 13.632 69.1801 13.632C69.9801 13.632 70.5681 13.444 70.9441 13.068C71.3201 12.7 71.5081 12.124 71.5081 11.34V9.768L71.6281 8.688L71.5441 7.608V5.7H72.3601V11.232C72.3601 12.32 72.0921 13.116 71.5561 13.62C71.0281 14.132 70.2441 14.388 69.2041 14.388ZM69.0481 11.76C68.4481 11.76 67.9081 11.632 67.4281 11.376C66.9481 11.112 66.5681 10.748 66.2881 10.284C66.0161 9.82 65.8801 9.288 65.8801 8.688C65.8801 8.088 66.0161 7.56 66.2881 7.104C66.5681 6.64 66.9481 6.28 67.4281 6.024C67.9081 5.768 68.4481 5.64 69.0481 5.64C69.6081 5.64 70.1121 5.756 70.5601 5.988C71.0081 6.22 71.3641 6.564 71.6281 7.02C71.8921 7.476 72.0241 8.032 72.0241 8.688C72.0241 9.344 71.8921 9.9 71.6281 10.356C71.3641 10.812 71.0081 11.16 70.5601 11.4C70.1121 11.64 69.6081 11.76 69.0481 11.76ZM69.1321 11.004C69.5961 11.004 70.0081 10.908 70.3681 10.716C70.7281 10.516 71.0121 10.244 71.2201 9.9C71.4281 9.548 71.5321 9.144 71.5321 8.688C71.5321 8.232 71.4281 7.832 71.2201 7.488C71.0121 7.144 70.7281 6.876 70.3681 6.684C70.0081 6.484 69.5961 6.384 69.1321 6.384C68.6761 6.384 68.2641 6.484 67.8961 6.684C67.5361 6.876 67.2521 7.144 67.0441 7.488C66.8441 7.832 66.7441 8.232 66.7441 8.688C66.7441 9.144 66.8441 9.548 67.0441 9.9C67.2521 10.244 67.5361 10.516 67.8961 10.716C68.2641 10.908 68.6761 11.004 69.1321 11.004Z" fill="white"/>
<circle cx="104.5" cy="7.5" r="7.5" fill="#A1A2A5"/>
<path d="M124.512 3.6H125.388V12H124.512V3.6ZM119.256 12H118.368V3.6H119.256V12ZM124.596 8.124H119.16V7.344H124.596V8.124ZM130.554 12.06C130.018 12.06 129.55 11.96 129.15 11.76C128.75 11.56 128.438 11.26 128.214 10.86C127.998 10.46 127.89 9.96 127.89 9.36V5.7H128.742V9.264C128.742 9.936 128.906 10.444 129.234 10.788C129.57 11.124 130.038 11.292 130.638 11.292C131.078 11.292 131.458 11.204 131.778 11.028C132.106 10.844 132.354 10.58 132.522 10.236C132.698 9.892 132.786 9.48 132.786 9V5.7H133.638V12H132.822V10.272L132.954 10.584C132.754 11.048 132.442 11.412 132.018 11.676C131.602 11.932 131.114 12.06 130.554 12.06ZM136.012 12V5.7H136.828V7.416L136.744 7.116C136.92 6.636 137.216 6.272 137.632 6.024C138.048 5.768 138.564 5.64 139.18 5.64V6.468C139.148 6.468 139.116 6.468 139.084 6.468C139.052 6.46 139.02 6.456 138.988 6.456C138.324 6.456 137.804 6.66 137.428 7.068C137.052 7.468 136.864 8.04 136.864 8.784V12H136.012ZM140.735 12V5.7H141.551V7.416L141.467 7.116C141.643 6.636 141.939 6.272 142.355 6.024C142.771 5.768 143.287 5.64 143.903 5.64V6.468C143.871 6.468 143.839 6.468 143.807 6.468C143.775 6.46 143.743 6.456 143.711 6.456C143.047 6.456 142.527 6.66 142.151 7.068C141.775 7.468 141.587 8.04 141.587 8.784V12H140.735ZM145.458 12V5.7H146.31V12H145.458ZM145.89 4.308C145.714 4.308 145.566 4.248 145.446 4.128C145.326 4.008 145.266 3.864 145.266 3.696C145.266 3.528 145.326 3.388 145.446 3.276C145.566 3.156 145.714 3.096 145.89 3.096C146.066 3.096 146.214 3.152 146.334 3.264C146.454 3.376 146.514 3.516 146.514 3.684C146.514 3.86 146.454 4.008 146.334 4.128C146.222 4.248 146.074 4.308 145.89 4.308ZM151.296 12.06C150.672 12.06 150.112 11.924 149.616 11.652C149.128 11.372 148.744 10.992 148.464 10.512C148.184 10.024 148.044 9.468 148.044 8.844C148.044 8.212 148.184 7.656 148.464 7.176C148.744 6.696 149.128 6.32 149.616 6.048C150.112 5.776 150.672 5.64 151.296 5.64C151.832 5.64 152.316 5.744 152.748 5.952C153.18 6.16 153.52 6.472 153.768 6.888L153.132 7.32C152.916 7 152.648 6.764 152.328 6.612C152.008 6.46 151.66 6.384 151.284 6.384C150.836 6.384 150.432 6.488 150.072 6.696C149.712 6.896 149.428 7.18 149.22 7.548C149.012 7.916 148.908 8.348 148.908 8.844C148.908 9.34 149.012 9.772 149.22 10.14C149.428 10.508 149.712 10.796 150.072 11.004C150.432 11.204 150.836 11.304 151.284 11.304C151.66 11.304 152.008 11.228 152.328 11.076C152.648 10.924 152.916 10.692 153.132 10.38L153.768 10.812C153.52 11.22 153.18 11.532 152.748 11.748C152.316 11.956 151.832 12.06 151.296 12.06ZM159.39 12V10.608L159.354 10.38V8.052C159.354 7.516 159.202 7.104 158.898 6.816C158.602 6.528 158.158 6.384 157.566 6.384C157.158 6.384 156.77 6.452 156.402 6.588C156.034 6.724 155.722 6.904 155.466 7.128L155.082 6.492C155.402 6.22 155.786 6.012 156.234 5.868C156.682 5.716 157.154 5.64 157.65 5.64C158.466 5.64 159.094 5.844 159.534 6.252C159.982 6.652 160.206 7.264 160.206 8.088V12H159.39ZM157.218 12.06C156.746 12.06 156.334 11.984 155.982 11.832C155.638 11.672 155.374 11.456 155.19 11.184C155.006 10.904 154.914 10.584 154.914 10.224C154.914 9.896 154.99 9.6 155.142 9.336C155.302 9.064 155.558 8.848 155.91 8.688C156.27 8.52 156.75 8.436 157.35 8.436H159.522V9.072H157.374C156.766 9.072 156.342 9.18 156.102 9.396C155.87 9.612 155.754 9.88 155.754 10.2C155.754 10.56 155.894 10.848 156.174 11.064C156.454 11.28 156.846 11.388 157.35 11.388C157.83 11.388 158.242 11.28 158.586 11.064C158.938 10.84 159.194 10.52 159.354 10.104L159.546 10.692C159.386 11.108 159.106 11.44 158.706 11.688C158.314 11.936 157.818 12.06 157.218 12.06ZM165.736 5.64C166.248 5.64 166.696 5.74 167.08 5.94C167.472 6.132 167.776 6.428 167.992 6.828C168.216 7.228 168.328 7.732 168.328 8.34V12H167.476V8.424C167.476 7.76 167.308 7.26 166.972 6.924C166.644 6.58 166.18 6.408 165.58 6.408C165.132 6.408 164.74 6.5 164.404 6.684C164.076 6.86 163.82 7.12 163.636 7.464C163.46 7.8 163.372 8.208 163.372 8.688V12H162.52V5.7H163.336V7.428L163.204 7.104C163.404 6.648 163.724 6.292 164.164 6.036C164.604 5.772 165.128 5.64 165.736 5.64ZM173.305 12.06C172.649 12.06 172.073 11.924 171.577 11.652C171.081 11.372 170.693 10.992 170.413 10.512C170.133 10.024 169.993 9.468 169.993 8.844C169.993 8.22 170.125 7.668 170.389 7.188C170.661 6.708 171.029 6.332 171.493 6.06C171.965 5.78 172.493 5.64 173.077 5.64C173.669 5.64 174.193 5.776 174.649 6.048C175.113 6.312 175.477 6.688 175.741 7.176C176.005 7.656 176.137 8.212 176.137 8.844C176.137 8.884 176.133 8.928 176.125 8.976C176.125 9.016 176.125 9.06 176.125 9.108H170.641V8.472H175.669L175.333 8.724C175.333 8.268 175.233 7.864 175.033 7.512C174.841 7.152 174.577 6.872 174.241 6.672C173.905 6.472 173.517 6.372 173.077 6.372C172.645 6.372 172.257 6.472 171.913 6.672C171.569 6.872 171.301 7.152 171.109 7.512C170.917 7.872 170.821 8.284 170.821 8.748V8.88C170.821 9.36 170.925 9.784 171.133 10.152C171.349 10.512 171.645 10.796 172.021 11.004C172.405 11.204 172.841 11.304 173.329 11.304C173.713 11.304 174.069 11.236 174.397 11.1C174.733 10.964 175.021 10.756 175.261 10.476L175.741 11.028C175.461 11.364 175.109 11.62 174.685 11.796C174.269 11.972 173.809 12.06 173.305 12.06ZM179.564 12.06C179.044 12.06 178.552 11.988 178.088 11.844C177.624 11.692 177.26 11.504 176.996 11.28L177.38 10.608C177.636 10.8 177.964 10.968 178.364 11.112C178.764 11.248 179.184 11.316 179.624 11.316C180.224 11.316 180.656 11.224 180.92 11.04C181.184 10.848 181.316 10.596 181.316 10.284C181.316 10.052 181.24 9.872 181.088 9.744C180.944 9.608 180.752 9.508 180.512 9.444C180.272 9.372 180.004 9.312 179.708 9.264C179.412 9.216 179.116 9.16 178.82 9.096C178.532 9.032 178.268 8.94 178.028 8.82C177.788 8.692 177.592 8.52 177.44 8.304C177.296 8.088 177.224 7.8 177.224 7.44C177.224 7.096 177.32 6.788 177.512 6.516C177.704 6.244 177.984 6.032 178.352 5.88C178.728 5.72 179.184 5.64 179.72 5.64C180.128 5.64 180.536 5.696 180.944 5.808C181.352 5.912 181.688 6.052 181.952 6.228L181.58 6.912C181.3 6.72 181 6.584 180.68 6.504C180.36 6.416 180.04 6.372 179.72 6.372C179.152 6.372 178.732 6.472 178.46 6.672C178.196 6.864 178.064 7.112 178.064 7.416C178.064 7.656 178.136 7.844 178.28 7.98C178.432 8.116 178.628 8.224 178.868 8.304C179.116 8.376 179.384 8.436 179.672 8.484C179.968 8.532 180.26 8.592 180.548 8.664C180.844 8.728 181.112 8.82 181.352 8.94C181.6 9.052 181.796 9.216 181.94 9.432C182.092 9.64 182.168 9.916 182.168 10.26C182.168 10.628 182.064 10.948 181.856 11.22C181.656 11.484 181.36 11.692 180.968 11.844C180.584 11.988 180.116 12.06 179.564 12.06Z" fill="white"/>
<circle cx="213.5" cy="7.5" r="7.5" fill="#35D8CC"/>
<path d="M231.016 12.072C230.384 12.072 229.8 11.968 229.264 11.76C228.728 11.544 228.264 11.244 227.872 10.86C227.48 10.476 227.172 10.024 226.948 9.504C226.732 8.984 226.624 8.416 226.624 7.8C226.624 7.184 226.732 6.616 226.948 6.096C227.172 5.576 227.48 5.124 227.872 4.74C228.272 4.356 228.74 4.06 229.276 3.852C229.812 3.636 230.396 3.528 231.028 3.528C231.636 3.528 232.208 3.632 232.744 3.84C233.28 4.04 233.732 4.344 234.1 4.752L233.536 5.316C233.192 4.964 232.812 4.712 232.396 4.56C231.98 4.4 231.532 4.32 231.052 4.32C230.548 4.32 230.08 4.408 229.648 4.584C229.216 4.752 228.84 4.996 228.52 5.316C228.2 5.628 227.948 5.996 227.764 6.42C227.588 6.836 227.5 7.296 227.5 7.8C227.5 8.304 227.588 8.768 227.764 9.192C227.948 9.608 228.2 9.976 228.52 10.296C228.84 10.608 229.216 10.852 229.648 11.028C230.08 11.196 230.548 11.28 231.052 11.28C231.532 11.28 231.98 11.2 232.396 11.04C232.812 10.88 233.192 10.624 233.536 10.272L234.1 10.836C233.732 11.244 233.28 11.552 232.744 11.76C232.208 11.968 231.632 12.072 231.016 12.072ZM238.1 12.06C237.492 12.06 236.944 11.924 236.456 11.652C235.976 11.372 235.596 10.992 235.316 10.512C235.036 10.024 234.896 9.468 234.896 8.844C234.896 8.212 235.036 7.656 235.316 7.176C235.596 6.696 235.976 6.32 236.456 6.048C236.936 5.776 237.484 5.64 238.1 5.64C238.724 5.64 239.276 5.776 239.756 6.048C240.244 6.32 240.624 6.696 240.896 7.176C241.176 7.656 241.316 8.212 241.316 8.844C241.316 9.468 241.176 10.024 240.896 10.512C240.624 10.992 240.244 11.372 239.756 11.652C239.268 11.924 238.716 12.06 238.1 12.06ZM238.1 11.304C238.556 11.304 238.96 11.204 239.312 11.004C239.664 10.796 239.94 10.508 240.14 10.14C240.348 9.764 240.452 9.332 240.452 8.844C240.452 8.348 240.348 7.916 240.14 7.548C239.94 7.18 239.664 6.896 239.312 6.696C238.96 6.488 238.56 6.384 238.112 6.384C237.664 6.384 237.264 6.488 236.912 6.696C236.56 6.896 236.28 7.18 236.072 7.548C235.864 7.916 235.76 8.348 235.76 8.844C235.76 9.332 235.864 9.764 236.072 10.14C236.28 10.508 236.56 10.796 236.912 11.004C237.264 11.204 237.66 11.304 238.1 11.304ZM246.968 12V10.608L246.932 10.38V8.052C246.932 7.516 246.78 7.104 246.476 6.816C246.18 6.528 245.736 6.384 245.144 6.384C244.736 6.384 244.348 6.452 243.98 6.588C243.612 6.724 243.3 6.904 243.044 7.128L242.66 6.492C242.98 6.22 243.364 6.012 243.812 5.868C244.26 5.716 244.732 5.64 245.228 5.64C246.044 5.64 246.672 5.844 247.112 6.252C247.56 6.652 247.784 7.264 247.784 8.088V12H246.968ZM244.796 12.06C244.324 12.06 243.912 11.984 243.56 11.832C243.216 11.672 242.952 11.456 242.768 11.184C242.584 10.904 242.492 10.584 242.492 10.224C242.492 9.896 242.568 9.6 242.72 9.336C242.88 9.064 243.136 8.848 243.488 8.688C243.848 8.52 244.328 8.436 244.928 8.436H247.1V9.072H244.952C244.344 9.072 243.92 9.18 243.68 9.396C243.448 9.612 243.332 9.88 243.332 10.2C243.332 10.56 243.472 10.848 243.752 11.064C244.032 11.28 244.424 11.388 244.928 11.388C245.408 11.388 245.82 11.28 246.164 11.064C246.516 10.84 246.772 10.52 246.932 10.104L247.124 10.692C246.964 11.108 246.684 11.44 246.284 11.688C245.892 11.936 245.396 12.06 244.796 12.06ZM251.79 12.06C251.27 12.06 250.778 11.988 250.314 11.844C249.85 11.692 249.486 11.504 249.222 11.28L249.606 10.608C249.862 10.8 250.19 10.968 250.59 11.112C250.99 11.248 251.41 11.316 251.85 11.316C252.45 11.316 252.882 11.224 253.146 11.04C253.41 10.848 253.542 10.596 253.542 10.284C253.542 10.052 253.466 9.872 253.314 9.744C253.17 9.608 252.978 9.508 252.738 9.444C252.498 9.372 252.23 9.312 251.934 9.264C251.638 9.216 251.342 9.16 251.046 9.096C250.758 9.032 250.494 8.94 250.254 8.82C250.014 8.692 249.818 8.52 249.666 8.304C249.522 8.088 249.45 7.8 249.45 7.44C249.45 7.096 249.546 6.788 249.738 6.516C249.93 6.244 250.21 6.032 250.578 5.88C250.954 5.72 251.41 5.64 251.946 5.64C252.354 5.64 252.762 5.696 253.17 5.808C253.578 5.912 253.914 6.052 254.178 6.228L253.806 6.912C253.526 6.72 253.226 6.584 252.906 6.504C252.586 6.416 252.266 6.372 251.946 6.372C251.378 6.372 250.958 6.472 250.686 6.672C250.422 6.864 250.29 7.112 250.29 7.416C250.29 7.656 250.362 7.844 250.506 7.98C250.658 8.116 250.854 8.224 251.094 8.304C251.342 8.376 251.61 8.436 251.898 8.484C252.194 8.532 252.486 8.592 252.774 8.664C253.07 8.728 253.338 8.82 253.578 8.94C253.826 9.052 254.022 9.216 254.166 9.432C254.318 9.64 254.394 9.916 254.394 10.26C254.394 10.628 254.29 10.948 254.082 11.22C253.882 11.484 253.586 11.692 253.194 11.844C252.81 11.988 252.342 12.06 251.79 12.06ZM257.95 12.06C257.358 12.06 256.902 11.9 256.582 11.58C256.262 11.26 256.102 10.808 256.102 10.224V4.308H256.954V10.176C256.954 10.544 257.046 10.828 257.23 11.028C257.422 11.228 257.694 11.328 258.046 11.328C258.422 11.328 258.734 11.22 258.982 11.004L259.282 11.616C259.114 11.768 258.91 11.88 258.67 11.952C258.438 12.024 258.198 12.06 257.95 12.06ZM254.974 6.408V5.7H258.874V6.408H254.974ZM264.781 12V10.608L264.745 10.38V8.052C264.745 7.516 264.593 7.104 264.289 6.816C263.993 6.528 263.549 6.384 262.957 6.384C262.549 6.384 262.161 6.452 261.793 6.588C261.425 6.724 261.113 6.904 260.857 7.128L260.473 6.492C260.793 6.22 261.177 6.012 261.625 5.868C262.073 5.716 262.545 5.64 263.041 5.64C263.857 5.64 264.485 5.844 264.925 6.252C265.373 6.652 265.597 7.264 265.597 8.088V12H264.781ZM262.609 12.06C262.137 12.06 261.725 11.984 261.373 11.832C261.029 11.672 260.765 11.456 260.581 11.184C260.397 10.904 260.305 10.584 260.305 10.224C260.305 9.896 260.381 9.6 260.533 9.336C260.693 9.064 260.949 8.848 261.301 8.688C261.661 8.52 262.141 8.436 262.741 8.436H264.913V9.072H262.765C262.157 9.072 261.733 9.18 261.493 9.396C261.261 9.612 261.145 9.88 261.145 10.2C261.145 10.56 261.285 10.848 261.565 11.064C261.845 11.28 262.237 11.388 262.741 11.388C263.221 11.388 263.633 11.28 263.977 11.064C264.329 10.84 264.585 10.52 264.745 10.104L264.937 10.692C264.777 11.108 264.497 11.44 264.097 11.688C263.705 11.936 263.209 12.06 262.609 12.06ZM267.911 12V3.096H268.763V12H267.911ZM276.77 12.072C276.146 12.072 275.546 11.972 274.97 11.772C274.402 11.564 273.962 11.3 273.65 10.98L273.998 10.296C274.294 10.584 274.69 10.828 275.186 11.028C275.69 11.22 276.218 11.316 276.77 11.316C277.298 11.316 277.726 11.252 278.054 11.124C278.39 10.988 278.634 10.808 278.786 10.584C278.946 10.36 279.026 10.112 279.026 9.84C279.026 9.512 278.93 9.248 278.738 9.048C278.554 8.848 278.31 8.692 278.006 8.58C277.702 8.46 277.366 8.356 276.998 8.268C276.63 8.18 276.262 8.088 275.894 7.992C275.526 7.888 275.186 7.752 274.874 7.584C274.57 7.416 274.322 7.196 274.13 6.924C273.946 6.644 273.854 6.28 273.854 5.832C273.854 5.416 273.962 5.036 274.178 4.692C274.402 4.34 274.742 4.06 275.198 3.852C275.654 3.636 276.238 3.528 276.95 3.528C277.422 3.528 277.89 3.596 278.354 3.732C278.818 3.86 279.218 4.04 279.554 4.272L279.254 4.98C278.894 4.74 278.51 4.564 278.102 4.452C277.702 4.34 277.314 4.284 276.938 4.284C276.434 4.284 276.018 4.352 275.69 4.488C275.362 4.624 275.118 4.808 274.958 5.04C274.806 5.264 274.73 5.52 274.73 5.808C274.73 6.136 274.822 6.4 275.006 6.6C275.198 6.8 275.446 6.956 275.75 7.068C276.062 7.18 276.402 7.28 276.77 7.368C277.138 7.456 277.502 7.552 277.862 7.656C278.23 7.76 278.566 7.896 278.87 8.064C279.182 8.224 279.43 8.44 279.614 8.712C279.806 8.984 279.902 9.34 279.902 9.78C279.902 10.188 279.79 10.568 279.566 10.92C279.342 11.264 278.998 11.544 278.534 11.76C278.078 11.968 277.49 12.072 276.77 12.072ZM283.649 12.06C283.057 12.06 282.601 11.9 282.281 11.58C281.961 11.26 281.801 10.808 281.801 10.224V4.308H282.653V10.176C282.653 10.544 282.745 10.828 282.929 11.028C283.121 11.228 283.393 11.328 283.745 11.328C284.121 11.328 284.433 11.22 284.681 11.004L284.981 11.616C284.813 11.768 284.609 11.88 284.369 11.952C284.137 12.024 283.897 12.06 283.649 12.06ZM280.673 6.408V5.7H284.573V6.408H280.673ZM288.877 12.06C288.269 12.06 287.721 11.924 287.233 11.652C286.753 11.372 286.373 10.992 286.093 10.512C285.813 10.024 285.673 9.468 285.673 8.844C285.673 8.212 285.813 7.656 286.093 7.176C286.373 6.696 286.753 6.32 287.233 6.048C287.713 5.776 288.261 5.64 288.877 5.64C289.501 5.64 290.053 5.776 290.533 6.048C291.021 6.32 291.401 6.696 291.673 7.176C291.953 7.656 292.093 8.212 292.093 8.844C292.093 9.468 291.953 10.024 291.673 10.512C291.401 10.992 291.021 11.372 290.533 11.652C290.045 11.924 289.493 12.06 288.877 12.06ZM288.877 11.304C289.333 11.304 289.737 11.204 290.089 11.004C290.441 10.796 290.717 10.508 290.917 10.14C291.125 9.764 291.229 9.332 291.229 8.844C291.229 8.348 291.125 7.916 290.917 7.548C290.717 7.18 290.441 6.896 290.089 6.696C289.737 6.488 289.337 6.384 288.889 6.384C288.441 6.384 288.041 6.488 287.689 6.696C287.337 6.896 287.057 7.18 286.849 7.548C286.641 7.916 286.537 8.348 286.537 8.844C286.537 9.332 286.641 9.764 286.849 10.14C287.057 10.508 287.337 10.796 287.689 11.004C288.041 11.204 288.437 11.304 288.877 11.304ZM293.833 12V5.7H294.649V7.416L294.565 7.116C294.741 6.636 295.037 6.272 295.453 6.024C295.869 5.768 296.385 5.64 297.001 5.64V6.468C296.969 6.468 296.937 6.468 296.905 6.468C296.873 6.46 296.841 6.456 296.809 6.456C296.145 6.456 295.625 6.66 295.249 7.068C294.873 7.468 294.685 8.04 294.685 8.784V12H293.833ZM306.427 5.64C306.939 5.64 307.383 5.74 307.759 5.94C308.143 6.132 308.439 6.428 308.647 6.828C308.863 7.228 308.971 7.732 308.971 8.34V12H308.119V8.424C308.119 7.76 307.959 7.26 307.639 6.924C307.327 6.58 306.883 6.408 306.307 6.408C305.875 6.408 305.499 6.5 305.179 6.684C304.867 6.86 304.623 7.12 304.447 7.464C304.279 7.8 304.195 8.208 304.195 8.688V12H303.343V8.424C303.343 7.76 303.183 7.26 302.863 6.924C302.543 6.58 302.095 6.408 301.519 6.408C301.095 6.408 300.723 6.5 300.403 6.684C300.083 6.86 299.835 7.12 299.659 7.464C299.491 7.8 299.407 8.208 299.407 8.688V12H298.555V5.7H299.371V7.404L299.239 7.104C299.431 6.648 299.739 6.292 300.163 6.036C300.595 5.772 301.103 5.64 301.687 5.64C302.303 5.64 302.827 5.796 303.259 6.108C303.691 6.412 303.971 6.872 304.099 7.488L303.763 7.356C303.947 6.844 304.271 6.432 304.735 6.12C305.207 5.8 305.771 5.64 306.427 5.64ZM312.974 12.06C312.454 12.06 311.962 11.988 311.498 11.844C311.034 11.692 310.67 11.504 310.406 11.28L310.79 10.608C311.046 10.8 311.374 10.968 311.774 11.112C312.174 11.248 312.594 11.316 313.034 11.316C313.634 11.316 314.066 11.224 314.33 11.04C314.594 10.848 314.726 10.596 314.726 10.284C314.726 10.052 314.65 9.872 314.498 9.744C314.354 9.608 314.162 9.508 313.922 9.444C313.682 9.372 313.414 9.312 313.118 9.264C312.822 9.216 312.526 9.16 312.23 9.096C311.942 9.032 311.678 8.94 311.438 8.82C311.198 8.692 311.002 8.52 310.85 8.304C310.706 8.088 310.634 7.8 310.634 7.44C310.634 7.096 310.73 6.788 310.922 6.516C311.114 6.244 311.394 6.032 311.762 5.88C312.138 5.72 312.594 5.64 313.13 5.64C313.538 5.64 313.946 5.696 314.354 5.808C314.762 5.912 315.098 6.052 315.362 6.228L314.99 6.912C314.71 6.72 314.41 6.584 314.09 6.504C313.77 6.416 313.45 6.372 313.13 6.372C312.562 6.372 312.142 6.472 311.87 6.672C311.606 6.864 311.474 7.112 311.474 7.416C311.474 7.656 311.546 7.844 311.69 7.98C311.842 8.116 312.038 8.224 312.278 8.304C312.526 8.376 312.794 8.436 313.082 8.484C313.378 8.532 313.67 8.592 313.958 8.664C314.254 8.728 314.522 8.82 314.762 8.94C315.01 9.052 315.206 9.216 315.35 9.432C315.502 9.64 315.578 9.916 315.578 10.26C315.578 10.628 315.474 10.948 315.266 11.22C315.066 11.484 314.77 11.692 314.378 11.844C313.994 11.988 313.526 12.06 312.974 12.06Z" fill="white"/>
<circle cx="346.5" cy="7.5" r="7.5" fill="#AB8FFF"/>
<path d="M362.684 12.072C362.06 12.072 361.46 11.972 360.884 11.772C360.316 11.564 359.876 11.3 359.564 10.98L359.912 10.296C360.208 10.584 360.604 10.828 361.1 11.028C361.604 11.22 362.132 11.316 362.684 11.316C363.212 11.316 363.64 11.252 363.968 11.124C364.304 10.988 364.548 10.808 364.7 10.584C364.86 10.36 364.94 10.112 364.94 9.84C364.94 9.512 364.844 9.248 364.652 9.048C364.468 8.848 364.224 8.692 363.92 8.58C363.616 8.46 363.28 8.356 362.912 8.268C362.544 8.18 362.176 8.088 361.808 7.992C361.44 7.888 361.1 7.752 360.788 7.584C360.484 7.416 360.236 7.196 360.044 6.924C359.86 6.644 359.768 6.28 359.768 5.832C359.768 5.416 359.876 5.036 360.092 4.692C360.316 4.34 360.656 4.06 361.112 3.852C361.568 3.636 362.152 3.528 362.864 3.528C363.336 3.528 363.804 3.596 364.268 3.732C364.732 3.86 365.132 4.04 365.468 4.272L365.168 4.98C364.808 4.74 364.424 4.564 364.016 4.452C363.616 4.34 363.228 4.284 362.852 4.284C362.348 4.284 361.932 4.352 361.604 4.488C361.276 4.624 361.032 4.808 360.872 5.04C360.72 5.264 360.644 5.52 360.644 5.808C360.644 6.136 360.736 6.4 360.92 6.6C361.112 6.8 361.36 6.956 361.664 7.068C361.976 7.18 362.316 7.28 362.684 7.368C363.052 7.456 363.416 7.552 363.776 7.656C364.144 7.76 364.48 7.896 364.784 8.064C365.096 8.224 365.344 8.44 365.528 8.712C365.72 8.984 365.816 9.34 365.816 9.78C365.816 10.188 365.704 10.568 365.48 10.92C365.256 11.264 364.912 11.544 364.448 11.76C363.992 11.968 363.404 12.072 362.684 12.072ZM370.247 12.06C369.591 12.06 369.015 11.924 368.519 11.652C368.023 11.372 367.635 10.992 367.355 10.512C367.075 10.024 366.935 9.468 366.935 8.844C366.935 8.22 367.067 7.668 367.331 7.188C367.603 6.708 367.971 6.332 368.435 6.06C368.907 5.78 369.435 5.64 370.019 5.64C370.611 5.64 371.135 5.776 371.591 6.048C372.055 6.312 372.419 6.688 372.683 7.176C372.947 7.656 373.079 8.212 373.079 8.844C373.079 8.884 373.075 8.928 373.067 8.976C373.067 9.016 373.067 9.06 373.067 9.108H367.583V8.472H372.611L372.275 8.724C372.275 8.268 372.175 7.864 371.975 7.512C371.783 7.152 371.519 6.872 371.183 6.672C370.847 6.472 370.459 6.372 370.019 6.372C369.587 6.372 369.199 6.472 368.855 6.672C368.511 6.872 368.243 7.152 368.051 7.512C367.859 7.872 367.763 8.284 367.763 8.748V8.88C367.763 9.36 367.867 9.784 368.075 10.152C368.291 10.512 368.587 10.796 368.963 11.004C369.347 11.204 369.783 11.304 370.271 11.304C370.655 11.304 371.011 11.236 371.339 11.1C371.675 10.964 371.963 10.756 372.203 10.476L372.683 11.028C372.403 11.364 372.051 11.62 371.627 11.796C371.211 11.972 370.751 12.06 370.247 12.06ZM378.585 12V10.608L378.549 10.38V8.052C378.549 7.516 378.397 7.104 378.093 6.816C377.797 6.528 377.353 6.384 376.761 6.384C376.353 6.384 375.965 6.452 375.597 6.588C375.229 6.724 374.917 6.904 374.661 7.128L374.277 6.492C374.597 6.22 374.981 6.012 375.429 5.868C375.877 5.716 376.349 5.64 376.845 5.64C377.661 5.64 378.289 5.844 378.729 6.252C379.177 6.652 379.401 7.264 379.401 8.088V12H378.585ZM376.413 12.06C375.941 12.06 375.529 11.984 375.177 11.832C374.833 11.672 374.569 11.456 374.385 11.184C374.201 10.904 374.109 10.584 374.109 10.224C374.109 9.896 374.185 9.6 374.337 9.336C374.497 9.064 374.753 8.848 375.105 8.688C375.465 8.52 375.945 8.436 376.545 8.436H378.717V9.072H376.569C375.961 9.072 375.537 9.18 375.297 9.396C375.065 9.612 374.949 9.88 374.949 10.2C374.949 10.56 375.089 10.848 375.369 11.064C375.649 11.28 376.041 11.388 376.545 11.388C377.025 11.388 377.437 11.28 377.781 11.064C378.133 10.84 378.389 10.52 378.549 10.104L378.741 10.692C378.581 11.108 378.301 11.44 377.901 11.688C377.509 11.936 377.013 12.06 376.413 12.06ZM385.036 12V3.6H385.924V11.232H390.628V12H385.036ZM394.505 12.06C393.849 12.06 393.273 11.924 392.777 11.652C392.281 11.372 391.893 10.992 391.613 10.512C391.333 10.024 391.193 9.468 391.193 8.844C391.193 8.22 391.325 7.668 391.589 7.188C391.861 6.708 392.229 6.332 392.693 6.06C393.165 5.78 393.693 5.64 394.277 5.64C394.869 5.64 395.393 5.776 395.849 6.048C396.313 6.312 396.677 6.688 396.941 7.176C397.205 7.656 397.337 8.212 397.337 8.844C397.337 8.884 397.333 8.928 397.325 8.976C397.325 9.016 397.325 9.06 397.325 9.108H391.841V8.472H396.869L396.533 8.724C396.533 8.268 396.433 7.864 396.233 7.512C396.041 7.152 395.777 6.872 395.441 6.672C395.105 6.472 394.717 6.372 394.277 6.372C393.845 6.372 393.457 6.472 393.113 6.672C392.769 6.872 392.501 7.152 392.309 7.512C392.117 7.872 392.021 8.284 392.021 8.748V8.88C392.021 9.36 392.125 9.784 392.333 10.152C392.549 10.512 392.845 10.796 393.221 11.004C393.605 11.204 394.041 11.304 394.529 11.304C394.913 11.304 395.269 11.236 395.597 11.1C395.933 10.964 396.221 10.756 396.461 10.476L396.941 11.028C396.661 11.364 396.309 11.62 395.885 11.796C395.469 11.972 395.009 12.06 394.505 12.06ZM400.574 12L397.778 5.7H398.666L401.234 11.544H400.814L403.418 5.7H404.258L401.45 12H400.574ZM407.958 12.06C407.302 12.06 406.726 11.924 406.23 11.652C405.734 11.372 405.346 10.992 405.066 10.512C404.786 10.024 404.646 9.468 404.646 8.844C404.646 8.22 404.778 7.668 405.042 7.188C405.314 6.708 405.682 6.332 406.146 6.06C406.618 5.78 407.146 5.64 407.73 5.64C408.322 5.64 408.846 5.776 409.302 6.048C409.766 6.312 410.13 6.688 410.394 7.176C410.658 7.656 410.79 8.212 410.79 8.844C410.79 8.884 410.786 8.928 410.778 8.976C410.778 9.016 410.778 9.06 410.778 9.108H405.294V8.472H410.322L409.986 8.724C409.986 8.268 409.886 7.864 409.686 7.512C409.494 7.152 409.23 6.872 408.894 6.672C408.558 6.472 408.17 6.372 407.73 6.372C407.298 6.372 406.91 6.472 406.566 6.672C406.222 6.872 405.954 7.152 405.762 7.512C405.57 7.872 405.474 8.284 405.474 8.748V8.88C405.474 9.36 405.578 9.784 405.786 10.152C406.002 10.512 406.298 10.796 406.674 11.004C407.058 11.204 407.494 11.304 407.982 11.304C408.366 11.304 408.722 11.236 409.05 11.1C409.386 10.964 409.674 10.756 409.914 10.476L410.394 11.028C410.114 11.364 409.762 11.62 409.338 11.796C408.922 11.972 408.462 12.06 407.958 12.06ZM412.524 12V3.096H413.376V12H412.524ZM417.439 12.06C416.919 12.06 416.427 11.988 415.963 11.844C415.499 11.692 415.135 11.504 414.871 11.28L415.255 10.608C415.511 10.8 415.839 10.968 416.239 11.112C416.639 11.248 417.059 11.316 417.499 11.316C418.099 11.316 418.531 11.224 418.795 11.04C419.059 10.848 419.191 10.596 419.191 10.284C419.191 10.052 419.115 9.872 418.963 9.744C418.819 9.608 418.627 9.508 418.387 9.444C418.147 9.372 417.879 9.312 417.583 9.264C417.287 9.216 416.991 9.16 416.695 9.096C416.407 9.032 416.143 8.94 415.903 8.82C415.663 8.692 415.467 8.52 415.315 8.304C415.171 8.088 415.099 7.8 415.099 7.44C415.099 7.096 415.195 6.788 415.387 6.516C415.579 6.244 415.859 6.032 416.227 5.88C416.603 5.72 417.059 5.64 417.595 5.64C418.003 5.64 418.411 5.696 418.819 5.808C419.227 5.912 419.563 6.052 419.827 6.228L419.455 6.912C419.175 6.72 418.875 6.584 418.555 6.504C418.235 6.416 417.915 6.372 417.595 6.372C417.027 6.372 416.607 6.472 416.335 6.672C416.071 6.864 415.939 7.112 415.939 7.416C415.939 7.656 416.011 7.844 416.155 7.98C416.307 8.116 416.503 8.224 416.743 8.304C416.991 8.376 417.259 8.436 417.547 8.484C417.843 8.532 418.135 8.592 418.423 8.664C418.719 8.728 418.987 8.82 419.227 8.94C419.475 9.052 419.671 9.216 419.815 9.432C419.967 9.64 420.043 9.916 420.043 10.26C420.043 10.628 419.939 10.948 419.731 11.22C419.531 11.484 419.235 11.692 418.843 11.844C418.459 11.988 417.991 12.06 417.439 12.06Z" fill="white"/>
<circle cx="451.5" cy="7.5" r="7.5" fill="#FAFAFA"/>
<path d="M465.368 12V3.6H466.1L469.94 10.152H469.556L473.36 3.6H474.092V12H473.24V4.932H473.444L469.94 10.932H469.52L465.992 4.932H466.22V12H465.368ZM479.325 12.06C478.669 12.06 478.093 11.924 477.597 11.652C477.101 11.372 476.713 10.992 476.433 10.512C476.153 10.024 476.013 9.468 476.013 8.844C476.013 8.22 476.145 7.668 476.409 7.188C476.681 6.708 477.049 6.332 477.513 6.06C477.985 5.78 478.513 5.64 479.097 5.64C479.689 5.64 480.213 5.776 480.669 6.048C481.133 6.312 481.497 6.688 481.761 7.176C482.025 7.656 482.157 8.212 482.157 8.844C482.157 8.884 482.153 8.928 482.145 8.976C482.145 9.016 482.145 9.06 482.145 9.108H476.661V8.472H481.689L481.353 8.724C481.353 8.268 481.253 7.864 481.053 7.512C480.861 7.152 480.597 6.872 480.261 6.672C479.925 6.472 479.537 6.372 479.097 6.372C478.665 6.372 478.277 6.472 477.933 6.672C477.589 6.872 477.321 7.152 477.129 7.512C476.937 7.872 476.841 8.284 476.841 8.748V8.88C476.841 9.36 476.945 9.784 477.153 10.152C477.369 10.512 477.665 10.796 478.041 11.004C478.425 11.204 478.861 11.304 479.349 11.304C479.733 11.304 480.089 11.236 480.417 11.1C480.753 10.964 481.041 10.756 481.281 10.476L481.761 11.028C481.481 11.364 481.129 11.62 480.705 11.796C480.289 11.972 479.829 12.06 479.325 12.06ZM483.891 12V3.096H484.743V12H483.891ZM489.141 12.06C488.549 12.06 488.093 11.9 487.773 11.58C487.453 11.26 487.293 10.808 487.293 10.224V4.308H488.145V10.176C488.145 10.544 488.237 10.828 488.421 11.028C488.613 11.228 488.885 11.328 489.237 11.328C489.613 11.328 489.925 11.22 490.173 11.004L490.473 11.616C490.305 11.768 490.101 11.88 489.861 11.952C489.629 12.024 489.389 12.06 489.141 12.06ZM486.165 6.408V5.7H490.065V6.408H486.165ZM492.024 12V5.7H492.876V12H492.024ZM492.456 4.308C492.28 4.308 492.132 4.248 492.012 4.128C491.892 4.008 491.832 3.864 491.832 3.696C491.832 3.528 491.892 3.388 492.012 3.276C492.132 3.156 492.28 3.096 492.456 3.096C492.632 3.096 492.78 3.152 492.9 3.264C493.02 3.376 493.08 3.516 493.08 3.684C493.08 3.86 493.02 4.008 492.9 4.128C492.788 4.248 492.64 4.308 492.456 4.308ZM498.463 5.64C498.975 5.64 499.423 5.74 499.807 5.94C500.199 6.132 500.503 6.428 500.719 6.828C500.943 7.228 501.055 7.732 501.055 8.34V12H500.203V8.424C500.203 7.76 500.035 7.26 499.699 6.924C499.371 6.58 498.907 6.408 498.307 6.408C497.859 6.408 497.467 6.5 497.131 6.684C496.803 6.86 496.547 7.12 496.363 7.464C496.187 7.8 496.099 8.208 496.099 8.688V12H495.247V5.7H496.063V7.428L495.931 7.104C496.131 6.648 496.451 6.292 496.891 6.036C497.331 5.772 497.855 5.64 498.463 5.64ZM506.044 14.388C505.468 14.388 504.916 14.304 504.388 14.136C503.86 13.968 503.432 13.728 503.104 13.416L503.536 12.768C503.832 13.032 504.196 13.24 504.628 13.392C505.068 13.552 505.532 13.632 506.02 13.632C506.82 13.632 507.408 13.444 507.784 13.068C508.16 12.7 508.348 12.124 508.348 11.34V9.768L508.468 8.688L508.384 7.608V5.7H509.2V11.232C509.2 12.32 508.932 13.116 508.396 13.62C507.868 14.132 507.084 14.388 506.044 14.388ZM505.888 11.76C505.288 11.76 504.748 11.632 504.268 11.376C503.788 11.112 503.408 10.748 503.128 10.284C502.856 9.82 502.72 9.288 502.72 8.688C502.72 8.088 502.856 7.56 503.128 7.104C503.408 6.64 503.788 6.28 504.268 6.024C504.748 5.768 505.288 5.64 505.888 5.64C506.448 5.64 506.952 5.756 507.4 5.988C507.848 6.22 508.204 6.564 508.468 7.02C508.732 7.476 508.864 8.032 508.864 8.688C508.864 9.344 508.732 9.9 508.468 10.356C508.204 10.812 507.848 11.16 507.4 11.4C506.952 11.64 506.448 11.76 505.888 11.76ZM505.972 11.004C506.436 11.004 506.848 10.908 507.208 10.716C507.568 10.516 507.852 10.244 508.06 9.9C508.268 9.548 508.372 9.144 508.372 8.688C508.372 8.232 508.268 7.832 508.06 7.488C507.852 7.144 507.568 6.876 507.208 6.684C506.848 6.484 506.436 6.384 505.972 6.384C505.516 6.384 505.104 6.484 504.736 6.684C504.376 6.876 504.092 7.144 503.884 7.488C503.684 7.832 503.584 8.232 503.584 8.688C503.584 9.144 503.684 9.548 503.884 9.9C504.092 10.244 504.376 10.516 504.736 10.716C505.104 10.908 505.516 11.004 505.972 11.004ZM514.891 12V3.6H515.779V12H514.891ZM520.949 12.06C520.325 12.06 519.765 11.924 519.269 11.652C518.781 11.372 518.397 10.992 518.117 10.512C517.837 10.024 517.697 9.468 517.697 8.844C517.697 8.212 517.837 7.656 518.117 7.176C518.397 6.696 518.781 6.32 519.269 6.048C519.765 5.776 520.325 5.64 520.949 5.64C521.485 5.64 521.969 5.744 522.401 5.952C522.833 6.16 523.173 6.472 523.421 6.888L522.785 7.32C522.569 7 522.301 6.764 521.981 6.612C521.661 6.46 521.313 6.384 520.937 6.384C520.489 6.384 520.085 6.488 519.725 6.696C519.365 6.896 519.081 7.18 518.873 7.548C518.665 7.916 518.561 8.348 518.561 8.844C518.561 9.34 518.665 9.772 518.873 10.14C519.081 10.508 519.365 10.796 519.725 11.004C520.085 11.204 520.489 11.304 520.937 11.304C521.313 11.304 521.661 11.228 521.981 11.076C522.301 10.924 522.569 10.692 522.785 10.38L523.421 10.812C523.173 11.22 522.833 11.532 522.401 11.748C521.969 11.956 521.485 12.06 520.949 12.06ZM527.665 12.06C527.009 12.06 526.433 11.924 525.937 11.652C525.441 11.372 525.053 10.992 524.773 10.512C524.493 10.024 524.353 9.468 524.353 8.844C524.353 8.22 524.485 7.668 524.749 7.188C525.021 6.708 525.389 6.332 525.853 6.06C526.325 5.78 526.853 5.64 527.437 5.64C528.029 5.64 528.553 5.776 529.009 6.048C529.473 6.312 529.837 6.688 530.101 7.176C530.365 7.656 530.497 8.212 530.497 8.844C530.497 8.884 530.493 8.928 530.485 8.976C530.485 9.016 530.485 9.06 530.485 9.108H525.001V8.472H530.029L529.693 8.724C529.693 8.268 529.593 7.864 529.393 7.512C529.201 7.152 528.937 6.872 528.601 6.672C528.265 6.472 527.877 6.372 527.437 6.372C527.005 6.372 526.617 6.472 526.273 6.672C525.929 6.872 525.661 7.152 525.469 7.512C525.277 7.872 525.181 8.284 525.181 8.748V8.88C525.181 9.36 525.285 9.784 525.493 10.152C525.709 10.512 526.005 10.796 526.381 11.004C526.765 11.204 527.201 11.304 527.689 11.304C528.073 11.304 528.429 11.236 528.757 11.1C529.093 10.964 529.381 10.756 529.621 10.476L530.101 11.028C529.821 11.364 529.469 11.62 529.045 11.796C528.629 11.972 528.169 12.06 527.665 12.06ZM539.2 12.072C538.568 12.072 537.984 11.968 537.448 11.76C536.912 11.544 536.448 11.244 536.056 10.86C535.664 10.476 535.356 10.024 535.132 9.504C534.916 8.984 534.808 8.416 534.808 7.8C534.808 7.184 534.916 6.616 535.132 6.096C535.356 5.576 535.664 5.124 536.056 4.74C536.456 4.356 536.924 4.06 537.46 3.852C537.996 3.636 538.58 3.528 539.212 3.528C539.82 3.528 540.392 3.632 540.928 3.84C541.464 4.04 541.916 4.344 542.284 4.752L541.72 5.316C541.376 4.964 540.996 4.712 540.58 4.56C540.164 4.4 539.716 4.32 539.236 4.32C538.732 4.32 538.264 4.408 537.832 4.584C537.4 4.752 537.024 4.996 536.704 5.316C536.384 5.628 536.132 5.996 535.948 6.42C535.772 6.836 535.684 7.296 535.684 7.8C535.684 8.304 535.772 8.768 535.948 9.192C536.132 9.608 536.384 9.976 536.704 10.296C537.024 10.608 537.4 10.852 537.832 11.028C538.264 11.196 538.732 11.28 539.236 11.28C539.716 11.28 540.164 11.2 540.58 11.04C540.996 10.88 541.376 10.624 541.72 10.272L542.284 10.836C541.916 11.244 541.464 11.552 540.928 11.76C540.392 11.968 539.816 12.072 539.2 12.072ZM547.851 12V10.608L547.815 10.38V8.052C547.815 7.516 547.663 7.104 547.359 6.816C547.063 6.528 546.619 6.384 546.027 6.384C545.619 6.384 545.231 6.452 544.863 6.588C544.495 6.724 544.183 6.904 543.927 7.128L543.543 6.492C543.863 6.22 544.247 6.012 544.695 5.868C545.143 5.716 545.615 5.64 546.111 5.64C546.927 5.64 547.555 5.844 547.995 6.252C548.443 6.652 548.667 7.264 548.667 8.088V12H547.851ZM545.679 12.06C545.207 12.06 544.795 11.984 544.443 11.832C544.099 11.672 543.835 11.456 543.651 11.184C543.467 10.904 543.375 10.584 543.375 10.224C543.375 9.896 543.451 9.6 543.603 9.336C543.763 9.064 544.019 8.848 544.371 8.688C544.731 8.52 545.211 8.436 545.811 8.436H547.983V9.072H545.835C545.227 9.072 544.803 9.18 544.563 9.396C544.331 9.612 544.215 9.88 544.215 10.2C544.215 10.56 544.355 10.848 544.635 11.064C544.915 11.28 545.307 11.388 545.811 11.388C546.291 11.388 546.703 11.28 547.047 11.064C547.399 10.84 547.655 10.52 547.815 10.104L548.007 10.692C547.847 11.108 547.567 11.44 547.167 11.688C546.775 11.936 546.279 12.06 545.679 12.06ZM554.233 12.06C553.689 12.06 553.197 11.936 552.757 11.688C552.317 11.432 551.965 11.068 551.701 10.596C551.445 10.116 551.317 9.532 551.317 8.844C551.317 8.156 551.445 7.576 551.701 7.104C551.957 6.624 552.305 6.26 552.745 6.012C553.185 5.764 553.681 5.64 554.233 5.64C554.833 5.64 555.369 5.776 555.841 6.048C556.321 6.312 556.697 6.688 556.969 7.176C557.241 7.656 557.377 8.212 557.377 8.844C557.377 9.484 557.241 10.044 556.969 10.524C556.697 11.004 556.321 11.38 555.841 11.652C555.369 11.924 554.833 12.06 554.233 12.06ZM550.981 14.328V5.7H551.797V7.596L551.713 8.856L551.833 10.128V14.328H550.981ZM554.173 11.304C554.621 11.304 555.021 11.204 555.373 11.004C555.725 10.796 556.005 10.508 556.213 10.14C556.421 9.764 556.525 9.332 556.525 8.844C556.525 8.356 556.421 7.928 556.213 7.56C556.005 7.192 555.725 6.904 555.373 6.696C555.021 6.488 554.621 6.384 554.173 6.384C553.725 6.384 553.321 6.488 552.961 6.696C552.609 6.904 552.329 7.192 552.121 7.56C551.921 7.928 551.821 8.356 551.821 8.844C551.821 9.332 551.921 9.764 552.121 10.14C552.329 10.508 552.609 10.796 552.961 11.004C553.321 11.204 553.725 11.304 554.173 11.304ZM560.806 12.06C560.286 12.06 559.794 11.988 559.33 11.844C558.866 11.692 558.502 11.504 558.238 11.28L558.622 10.608C558.878 10.8 559.206 10.968 559.606 11.112C560.006 11.248 560.426 11.316 560.866 11.316C561.466 11.316 561.898 11.224 562.162 11.04C562.426 10.848 562.558 10.596 562.558 10.284C562.558 10.052 562.482 9.872 562.33 9.744C562.186 9.608 561.994 9.508 561.754 9.444C561.514 9.372 561.246 9.312 560.95 9.264C560.654 9.216 560.358 9.16 560.062 9.096C559.774 9.032 559.51 8.94 559.27 8.82C559.03 8.692 558.834 8.52 558.682 8.304C558.538 8.088 558.466 7.8 558.466 7.44C558.466 7.096 558.562 6.788 558.754 6.516C558.946 6.244 559.226 6.032 559.594 5.88C559.97 5.72 560.426 5.64 560.962 5.64C561.37 5.64 561.778 5.696 562.186 5.808C562.594 5.912 562.93 6.052 563.194 6.228L562.822 6.912C562.542 6.72 562.242 6.584 561.922 6.504C561.602 6.416 561.282 6.372 560.962 6.372C560.394 6.372 559.974 6.472 559.702 6.672C559.438 6.864 559.306 7.112 559.306 7.416C559.306 7.656 559.378 7.844 559.522 7.98C559.674 8.116 559.87 8.224 560.11 8.304C560.358 8.376 560.626 8.436 560.914 8.484C561.21 8.532 561.502 8.592 561.79 8.664C562.086 8.728 562.354 8.82 562.594 8.94C562.842 9.052 563.038 9.216 563.182 9.432C563.334 9.64 563.41 9.916 563.41 10.26C563.41 10.628 563.306 10.948 563.098 11.22C562.898 11.484 562.602 11.692 562.21 11.844C561.826 11.988 561.358 12.06 560.806 12.06Z" fill="white"/>
<circle cx="594.5" cy="7.5" r="7.5" fill="#FF4646"/>
<path d="M610.276 12L607.444 3.6H608.356L611.008 11.508H610.552L613.288 3.6H614.104L616.804 11.508H616.372L619.048 3.6H619.9L617.068 12H616.132L613.552 4.5H613.792L611.2 12H610.276ZM621.313 12V5.7H622.165V12H621.313ZM621.745 4.308C621.569 4.308 621.421 4.248 621.301 4.128C621.181 4.008 621.121 3.864 621.121 3.696C621.121 3.528 621.181 3.388 621.301 3.276C621.421 3.156 621.569 3.096 621.745 3.096C621.921 3.096 622.069 3.152 622.189 3.264C622.309 3.376 622.369 3.516 622.369 3.684C622.369 3.86 622.309 4.008 622.189 4.128C622.077 4.248 621.929 4.308 621.745 4.308ZM624.536 12V3.096H625.388V12H624.536ZM630.266 12.06C629.666 12.06 629.126 11.924 628.646 11.652C628.174 11.38 627.802 11.004 627.53 10.524C627.258 10.036 627.122 9.476 627.122 8.844C627.122 8.204 627.258 7.644 627.53 7.164C627.802 6.684 628.174 6.312 628.646 6.048C629.126 5.776 629.666 5.64 630.266 5.64C630.818 5.64 631.31 5.764 631.742 6.012C632.182 6.26 632.53 6.624 632.786 7.104C633.05 7.576 633.182 8.156 633.182 8.844C633.182 9.524 633.054 10.104 632.798 10.584C632.542 11.064 632.194 11.432 631.754 11.688C631.322 11.936 630.826 12.06 630.266 12.06ZM630.326 11.304C630.774 11.304 631.174 11.204 631.526 11.004C631.886 10.796 632.166 10.508 632.366 10.14C632.574 9.764 632.678 9.332 632.678 8.844C632.678 8.348 632.574 7.916 632.366 7.548C632.166 7.18 631.886 6.896 631.526 6.696C631.174 6.488 630.774 6.384 630.326 6.384C629.886 6.384 629.49 6.488 629.138 6.696C628.786 6.896 628.506 7.18 628.298 7.548C628.09 7.916 627.986 8.348 627.986 8.844C627.986 9.332 628.09 9.764 628.298 10.14C628.506 10.508 628.786 10.796 629.138 11.004C629.49 11.204 629.886 11.304 630.326 11.304ZM632.702 12V10.104L632.786 8.832L632.666 7.56V3.096H633.518V12H632.702ZM636.07 12V4.908C636.07 4.348 636.234 3.896 636.562 3.552C636.89 3.208 637.362 3.036 637.978 3.036C638.218 3.036 638.45 3.068 638.674 3.132C638.898 3.196 639.086 3.296 639.238 3.432L638.95 4.068C638.83 3.964 638.69 3.888 638.53 3.84C638.37 3.784 638.198 3.756 638.014 3.756C637.654 3.756 637.378 3.856 637.186 4.056C636.994 4.256 636.898 4.552 636.898 4.944V5.904L636.922 6.3V12H636.07ZM634.942 6.408V5.7H638.842V6.408H634.942ZM639.994 12V5.7H640.846V12H639.994ZM640.426 4.308C640.25 4.308 640.102 4.248 639.982 4.128C639.862 4.008 639.802 3.864 639.802 3.696C639.802 3.528 639.862 3.388 639.982 3.276C640.102 3.156 640.25 3.096 640.426 3.096C640.602 3.096 640.75 3.152 640.87 3.264C640.99 3.376 641.05 3.516 641.05 3.684C641.05 3.86 640.99 4.008 640.87 4.128C640.758 4.248 640.61 4.308 640.426 4.308ZM643.239 12V5.7H644.055V7.416L643.971 7.116C644.147 6.636 644.443 6.272 644.859 6.024C645.275 5.768 645.791 5.64 646.407 5.64V6.468C646.375 6.468 646.343 6.468 646.311 6.468C646.279 6.46 646.247 6.456 646.215 6.456C645.551 6.456 645.031 6.66 644.655 7.068C644.279 7.468 644.091 8.04 644.091 8.784V12H643.239ZM650.579 12.06C649.923 12.06 649.347 11.924 648.851 11.652C648.355 11.372 647.967 10.992 647.687 10.512C647.407 10.024 647.267 9.468 647.267 8.844C647.267 8.22 647.399 7.668 647.663 7.188C647.935 6.708 648.303 6.332 648.767 6.06C649.239 5.78 649.767 5.64 650.351 5.64C650.943 5.64 651.467 5.776 651.923 6.048C652.387 6.312 652.751 6.688 653.015 7.176C653.279 7.656 653.411 8.212 653.411 8.844C653.411 8.884 653.407 8.928 653.399 8.976C653.399 9.016 653.399 9.06 653.399 9.108H647.915V8.472H652.943L652.607 8.724C652.607 8.268 652.507 7.864 652.307 7.512C652.115 7.152 651.851 6.872 651.515 6.672C651.179 6.472 650.791 6.372 650.351 6.372C649.919 6.372 649.531 6.472 649.187 6.672C648.843 6.872 648.575 7.152 648.383 7.512C648.191 7.872 648.095 8.284 648.095 8.748V8.88C648.095 9.36 648.199 9.784 648.407 10.152C648.623 10.512 648.919 10.796 649.295 11.004C649.679 11.204 650.115 11.304 650.603 11.304C650.987 11.304 651.343 11.236 651.671 11.1C652.007 10.964 652.295 10.756 652.535 10.476L653.015 11.028C652.735 11.364 652.383 11.62 651.959 11.796C651.543 11.972 651.083 12.06 650.579 12.06ZM656.837 12.06C656.317 12.06 655.825 11.988 655.361 11.844C654.897 11.692 654.533 11.504 654.269 11.28L654.653 10.608C654.909 10.8 655.237 10.968 655.637 11.112C656.037 11.248 656.457 11.316 656.897 11.316C657.497 11.316 657.929 11.224 658.193 11.04C658.457 10.848 658.589 10.596 658.589 10.284C658.589 10.052 658.513 9.872 658.361 9.744C658.217 9.608 658.025 9.508 657.785 9.444C657.545 9.372 657.277 9.312 656.981 9.264C656.685 9.216 656.389 9.16 656.093 9.096C655.805 9.032 655.541 8.94 655.301 8.82C655.061 8.692 654.865 8.52 654.713 8.304C654.569 8.088 654.497 7.8 654.497 7.44C654.497 7.096 654.593 6.788 654.785 6.516C654.977 6.244 655.257 6.032 655.625 5.88C656.001 5.72 656.457 5.64 656.993 5.64C657.401 5.64 657.809 5.696 658.217 5.808C658.625 5.912 658.961 6.052 659.225 6.228L658.853 6.912C658.573 6.72 658.273 6.584 657.953 6.504C657.633 6.416 657.313 6.372 656.993 6.372C656.425 6.372 656.005 6.472 655.733 6.672C655.469 6.864 655.337 7.112 655.337 7.416C655.337 7.656 655.409 7.844 655.553 7.98C655.705 8.116 655.901 8.224 656.141 8.304C656.389 8.376 656.657 8.436 656.945 8.484C657.241 8.532 657.533 8.592 657.821 8.664C658.117 8.728 658.385 8.82 658.625 8.94C658.873 9.052 659.069 9.216 659.213 9.432C659.365 9.64 659.441 9.916 659.441 10.26C659.441 10.628 659.337 10.948 659.129 11.22C658.929 11.484 658.633 11.692 658.241 11.844C657.857 11.988 657.389 12.06 656.837 12.06Z" fill="white"/>
<circle cx="690.5" cy="7.5" r="7.5" fill="#EB8D00"/>
<path d="M710.512 3.6H711.388V12H710.512V3.6ZM705.256 12H704.368V3.6H705.256V12ZM710.596 8.124H705.16V7.344H710.596V8.124ZM716.626 12.06C715.97 12.06 715.394 11.924 714.898 11.652C714.402 11.372 714.014 10.992 713.734 10.512C713.454 10.024 713.314 9.468 713.314 8.844C713.314 8.22 713.446 7.668 713.71 7.188C713.982 6.708 714.35 6.332 714.814 6.06C715.286 5.78 715.814 5.64 716.398 5.64C716.99 5.64 717.514 5.776 717.97 6.048C718.434 6.312 718.798 6.688 719.062 7.176C719.326 7.656 719.458 8.212 719.458 8.844C719.458 8.884 719.454 8.928 719.446 8.976C719.446 9.016 719.446 9.06 719.446 9.108H713.962V8.472H718.99L718.654 8.724C718.654 8.268 718.554 7.864 718.354 7.512C718.162 7.152 717.898 6.872 717.562 6.672C717.226 6.472 716.838 6.372 716.398 6.372C715.966 6.372 715.578 6.472 715.234 6.672C714.89 6.872 714.622 7.152 714.43 7.512C714.238 7.872 714.142 8.284 714.142 8.748V8.88C714.142 9.36 714.246 9.784 714.454 10.152C714.67 10.512 714.966 10.796 715.342 11.004C715.726 11.204 716.162 11.304 716.65 11.304C717.034 11.304 717.39 11.236 717.718 11.1C718.054 10.964 718.342 10.756 718.582 10.476L719.062 11.028C718.782 11.364 718.43 11.62 718.006 11.796C717.59 11.972 717.13 12.06 716.626 12.06ZM724.964 12V10.608L724.928 10.38V8.052C724.928 7.516 724.776 7.104 724.472 6.816C724.176 6.528 723.732 6.384 723.14 6.384C722.732 6.384 722.344 6.452 721.976 6.588C721.608 6.724 721.296 6.904 721.04 7.128L720.656 6.492C720.976 6.22 721.36 6.012 721.808 5.868C722.256 5.716 722.728 5.64 723.224 5.64C724.04 5.64 724.668 5.844 725.108 6.252C725.556 6.652 725.78 7.264 725.78 8.088V12H724.964ZM722.792 12.06C722.32 12.06 721.908 11.984 721.556 11.832C721.212 11.672 720.948 11.456 720.764 11.184C720.58 10.904 720.488 10.584 720.488 10.224C720.488 9.896 720.564 9.6 720.716 9.336C720.876 9.064 721.132 8.848 721.484 8.688C721.844 8.52 722.324 8.436 722.924 8.436H725.096V9.072H722.948C722.34 9.072 721.916 9.18 721.676 9.396C721.444 9.612 721.328 9.88 721.328 10.2C721.328 10.56 721.468 10.848 721.748 11.064C722.028 11.28 722.42 11.388 722.924 11.388C723.404 11.388 723.816 11.28 724.16 11.064C724.512 10.84 724.768 10.52 724.928 10.104L725.12 10.692C724.96 11.108 724.68 11.44 724.28 11.688C723.888 11.936 723.392 12.06 722.792 12.06ZM730.086 12.06C729.494 12.06 729.038 11.9 728.718 11.58C728.398 11.26 728.238 10.808 728.238 10.224V4.308H729.09V10.176C729.09 10.544 729.182 10.828 729.366 11.028C729.558 11.228 729.83 11.328 730.182 11.328C730.558 11.328 730.87 11.22 731.118 11.004L731.418 11.616C731.25 11.768 731.046 11.88 730.806 11.952C730.574 12.024 730.334 12.06 730.086 12.06ZM727.11 6.408V5.7H731.01V6.408H727.11ZM738.198 12L735.366 3.6H736.278L738.93 11.508H738.474L741.21 3.6H742.026L744.726 11.508H744.294L746.97 3.6H747.822L744.99 12H744.054L741.474 4.5H741.714L739.122 12H738.198ZM752.738 12V10.608L752.702 10.38V8.052C752.702 7.516 752.55 7.104 752.246 6.816C751.95 6.528 751.506 6.384 750.914 6.384C750.506 6.384 750.118 6.452 749.75 6.588C749.382 6.724 749.07 6.904 748.814 7.128L748.43 6.492C748.75 6.22 749.134 6.012 749.582 5.868C750.03 5.716 750.502 5.64 750.998 5.64C751.814 5.64 752.442 5.844 752.882 6.252C753.33 6.652 753.554 7.264 753.554 8.088V12H752.738ZM750.566 12.06C750.094 12.06 749.682 11.984 749.33 11.832C748.986 11.672 748.722 11.456 748.538 11.184C748.354 10.904 748.262 10.584 748.262 10.224C748.262 9.896 748.338 9.6 748.49 9.336C748.65 9.064 748.906 8.848 749.258 8.688C749.618 8.52 750.098 8.436 750.698 8.436H752.87V9.072H750.722C750.114 9.072 749.69 9.18 749.45 9.396C749.218 9.612 749.102 9.88 749.102 10.2C749.102 10.56 749.242 10.848 749.522 11.064C749.802 11.28 750.194 11.388 750.698 11.388C751.178 11.388 751.59 11.28 751.934 11.064C752.286 10.84 752.542 10.52 752.702 10.104L752.894 10.692C752.734 11.108 752.454 11.44 752.054 11.688C751.662 11.936 751.166 12.06 750.566 12.06ZM757.371 12L754.575 5.7H755.463L758.031 11.544H757.611L760.215 5.7H761.055L758.247 12H757.371ZM764.755 12.06C764.099 12.06 763.523 11.924 763.027 11.652C762.531 11.372 762.143 10.992 761.863 10.512C761.583 10.024 761.443 9.468 761.443 8.844C761.443 8.22 761.575 7.668 761.839 7.188C762.111 6.708 762.479 6.332 762.943 6.06C763.415 5.78 763.943 5.64 764.527 5.64C765.119 5.64 765.643 5.776 766.099 6.048C766.563 6.312 766.927 6.688 767.191 7.176C767.455 7.656 767.587 8.212 767.587 8.844C767.587 8.884 767.583 8.928 767.575 8.976C767.575 9.016 767.575 9.06 767.575 9.108H762.091V8.472H767.119L766.783 8.724C766.783 8.268 766.683 7.864 766.483 7.512C766.291 7.152 766.027 6.872 765.691 6.672C765.355 6.472 764.967 6.372 764.527 6.372C764.095 6.372 763.707 6.472 763.363 6.672C763.019 6.872 762.751 7.152 762.559 7.512C762.367 7.872 762.271 8.284 762.271 8.748V8.88C762.271 9.36 762.375 9.784 762.583 10.152C762.799 10.512 763.095 10.796 763.471 11.004C763.855 11.204 764.291 11.304 764.779 11.304C765.163 11.304 765.519 11.236 765.847 11.1C766.183 10.964 766.471 10.756 766.711 10.476L767.191 11.028C766.911 11.364 766.559 11.62 766.135 11.796C765.719 11.972 765.259 12.06 764.755 12.06ZM771.013 12.06C770.493 12.06 770.001 11.988 769.537 11.844C769.073 11.692 768.709 11.504 768.445 11.28L768.829 10.608C769.085 10.8 769.413 10.968 769.813 11.112C770.213 11.248 770.633 11.316 771.073 11.316C771.673 11.316 772.105 11.224 772.369 11.04C772.633 10.848 772.765 10.596 772.765 10.284C772.765 10.052 772.689 9.872 772.537 9.744C772.393 9.608 772.201 9.508 771.961 9.444C771.721 9.372 771.453 9.312 771.157 9.264C770.861 9.216 770.565 9.16 770.269 9.096C769.981 9.032 769.717 8.94 769.477 8.82C769.237 8.692 769.041 8.52 768.889 8.304C768.745 8.088 768.673 7.8 768.673 7.44C768.673 7.096 768.769 6.788 768.961 6.516C769.153 6.244 769.433 6.032 769.801 5.88C770.177 5.72 770.633 5.64 771.169 5.64C771.577 5.64 771.985 5.696 772.393 5.808C772.801 5.912 773.137 6.052 773.401 6.228L773.029 6.912C772.749 6.72 772.449 6.584 772.129 6.504C771.809 6.416 771.489 6.372 771.169 6.372C770.601 6.372 770.181 6.472 769.909 6.672C769.645 6.864 769.513 7.112 769.513 7.416C769.513 7.656 769.585 7.844 769.729 7.98C769.881 8.116 770.077 8.224 770.317 8.304C770.565 8.376 770.833 8.436 771.121 8.484C771.417 8.532 771.709 8.592 771.997 8.664C772.293 8.728 772.561 8.82 772.801 8.94C773.049 9.052 773.245 9.216 773.389 9.432C773.541 9.64 773.617 9.916 773.617 10.26C773.617 10.628 773.513 10.948 773.305 11.22C773.105 11.484 772.809 11.692 772.417 11.844C772.033 11.988 771.565 12.06 771.013 12.06Z" fill="white"/>
<circle cx="804.5" cy="7.5" r="7.5" fill="#6BA4FF"/>
<path d="M818.368 12V3.6H821.512C822.224 3.6 822.836 3.716 823.348 3.948C823.86 4.172 824.252 4.5 824.524 4.932C824.804 5.356 824.944 5.872 824.944 6.48C824.944 7.072 824.804 7.584 824.524 8.016C824.252 8.44 823.86 8.768 823.348 9C822.836 9.232 822.224 9.348 821.512 9.348H818.86L819.256 8.928V12H818.368ZM819.256 9L818.86 8.568H821.488C822.328 8.568 822.964 8.388 823.396 8.028C823.836 7.66 824.056 7.144 824.056 6.48C824.056 5.808 823.836 5.288 823.396 4.92C822.964 4.552 822.328 4.368 821.488 4.368H818.86L819.256 3.948V9ZM826.532 12V5.7H827.348V7.416L827.264 7.116C827.44 6.636 827.736 6.272 828.152 6.024C828.568 5.768 829.084 5.64 829.7 5.64V6.468C829.668 6.468 829.636 6.468 829.604 6.468C829.572 6.46 829.54 6.456 829.508 6.456C828.844 6.456 828.324 6.66 827.948 7.068C827.572 7.468 827.384 8.04 827.384 8.784V12H826.532ZM833.872 12.06C833.216 12.06 832.64 11.924 832.144 11.652C831.648 11.372 831.26 10.992 830.98 10.512C830.7 10.024 830.56 9.468 830.56 8.844C830.56 8.22 830.692 7.668 830.956 7.188C831.228 6.708 831.596 6.332 832.06 6.06C832.532 5.78 833.06 5.64 833.644 5.64C834.236 5.64 834.76 5.776 835.216 6.048C835.68 6.312 836.044 6.688 836.308 7.176C836.572 7.656 836.704 8.212 836.704 8.844C836.704 8.884 836.7 8.928 836.692 8.976C836.692 9.016 836.692 9.06 836.692 9.108H831.208V8.472H836.236L835.9 8.724C835.9 8.268 835.8 7.864 835.6 7.512C835.408 7.152 835.144 6.872 834.808 6.672C834.472 6.472 834.084 6.372 833.644 6.372C833.212 6.372 832.824 6.472 832.48 6.672C832.136 6.872 831.868 7.152 831.676 7.512C831.484 7.872 831.388 8.284 831.388 8.748V8.88C831.388 9.36 831.492 9.784 831.7 10.152C831.916 10.512 832.212 10.796 832.588 11.004C832.972 11.204 833.408 11.304 833.896 11.304C834.28 11.304 834.636 11.236 834.964 11.1C835.3 10.964 835.588 10.756 835.828 10.476L836.308 11.028C836.028 11.364 835.676 11.62 835.252 11.796C834.836 11.972 834.376 12.06 833.872 12.06ZM841.054 12.06C840.43 12.06 839.87 11.924 839.374 11.652C838.886 11.372 838.502 10.992 838.222 10.512C837.942 10.024 837.802 9.468 837.802 8.844C837.802 8.212 837.942 7.656 838.222 7.176C838.502 6.696 838.886 6.32 839.374 6.048C839.87 5.776 840.43 5.64 841.054 5.64C841.59 5.64 842.074 5.744 842.506 5.952C842.938 6.16 843.278 6.472 843.526 6.888L842.89 7.32C842.674 7 842.406 6.764 842.086 6.612C841.766 6.46 841.418 6.384 841.042 6.384C840.594 6.384 840.19 6.488 839.83 6.696C839.47 6.896 839.186 7.18 838.978 7.548C838.77 7.916 838.666 8.348 838.666 8.844C838.666 9.34 838.77 9.772 838.978 10.14C839.186 10.508 839.47 10.796 839.83 11.004C840.19 11.204 840.594 11.304 841.042 11.304C841.418 11.304 841.766 11.228 842.086 11.076C842.406 10.924 842.674 10.692 842.89 10.38L843.526 10.812C843.278 11.22 842.938 11.532 842.506 11.748C842.074 11.956 841.59 12.06 841.054 12.06ZM845.106 12V5.7H845.958V12H845.106ZM845.538 4.308C845.362 4.308 845.214 4.248 845.094 4.128C844.974 4.008 844.914 3.864 844.914 3.696C844.914 3.528 844.974 3.388 845.094 3.276C845.214 3.156 845.362 3.096 845.538 3.096C845.714 3.096 845.862 3.152 845.982 3.264C846.102 3.376 846.162 3.516 846.162 3.684C846.162 3.86 846.102 4.008 845.982 4.128C845.87 4.248 845.722 4.308 845.538 4.308ZM851.581 12.06C851.037 12.06 850.545 11.936 850.105 11.688C849.665 11.432 849.313 11.068 849.049 10.596C848.793 10.116 848.665 9.532 848.665 8.844C848.665 8.156 848.793 7.576 849.049 7.104C849.305 6.624 849.653 6.26 850.093 6.012C850.533 5.764 851.029 5.64 851.581 5.64C852.181 5.64 852.717 5.776 853.189 6.048C853.669 6.312 854.045 6.688 854.317 7.176C854.589 7.656 854.725 8.212 854.725 8.844C854.725 9.484 854.589 10.044 854.317 10.524C854.045 11.004 853.669 11.38 853.189 11.652C852.717 11.924 852.181 12.06 851.581 12.06ZM848.329 14.328V5.7H849.145V7.596L849.061 8.856L849.181 10.128V14.328H848.329ZM851.521 11.304C851.969 11.304 852.369 11.204 852.721 11.004C853.073 10.796 853.353 10.508 853.561 10.14C853.769 9.764 853.873 9.332 853.873 8.844C853.873 8.356 853.769 7.928 853.561 7.56C853.353 7.192 853.073 6.904 852.721 6.696C852.369 6.488 851.969 6.384 851.521 6.384C851.073 6.384 850.669 6.488 850.309 6.696C849.957 6.904 849.677 7.192 849.469 7.56C849.269 7.928 849.169 8.356 849.169 8.844C849.169 9.332 849.269 9.764 849.469 10.14C849.677 10.508 849.957 10.796 850.309 11.004C850.669 11.204 851.073 11.304 851.521 11.304ZM856.461 12V5.7H857.313V12H856.461ZM856.893 4.308C856.717 4.308 856.569 4.248 856.449 4.128C856.329 4.008 856.269 3.864 856.269 3.696C856.269 3.528 856.329 3.388 856.449 3.276C856.569 3.156 856.717 3.096 856.893 3.096C857.069 3.096 857.217 3.152 857.337 3.264C857.457 3.376 857.517 3.516 857.517 3.684C857.517 3.86 857.457 4.008 857.337 4.128C857.225 4.248 857.077 4.308 856.893 4.308ZM861.676 12.06C861.084 12.06 860.628 11.9 860.308 11.58C859.988 11.26 859.828 10.808 859.828 10.224V4.308H860.68V10.176C860.68 10.544 860.772 10.828 860.956 11.028C861.148 11.228 861.42 11.328 861.772 11.328C862.148 11.328 862.46 11.22 862.708 11.004L863.008 11.616C862.84 11.768 862.636 11.88 862.396 11.952C862.164 12.024 861.924 12.06 861.676 12.06ZM858.7 6.408V5.7H862.6V6.408H858.7ZM868.507 12V10.608L868.471 10.38V8.052C868.471 7.516 868.319 7.104 868.015 6.816C867.719 6.528 867.275 6.384 866.683 6.384C866.275 6.384 865.887 6.452 865.519 6.588C865.151 6.724 864.839 6.904 864.583 7.128L864.199 6.492C864.519 6.22 864.903 6.012 865.351 5.868C865.799 5.716 866.271 5.64 866.767 5.64C867.583 5.64 868.211 5.844 868.651 6.252C869.099 6.652 869.323 7.264 869.323 8.088V12H868.507ZM866.335 12.06C865.863 12.06 865.451 11.984 865.099 11.832C864.755 11.672 864.491 11.456 864.307 11.184C864.123 10.904 864.031 10.584 864.031 10.224C864.031 9.896 864.107 9.6 864.259 9.336C864.419 9.064 864.675 8.848 865.027 8.688C865.387 8.52 865.867 8.436 866.467 8.436H868.639V9.072H866.491C865.883 9.072 865.459 9.18 865.219 9.396C864.987 9.612 864.871 9.88 864.871 10.2C864.871 10.56 865.011 10.848 865.291 11.064C865.571 11.28 865.963 11.388 866.467 11.388C866.947 11.388 867.359 11.28 867.703 11.064C868.055 10.84 868.311 10.52 868.471 10.104L868.663 10.692C868.503 11.108 868.223 11.44 867.823 11.688C867.431 11.936 866.935 12.06 866.335 12.06ZM873.629 12.06C873.037 12.06 872.581 11.9 872.261 11.58C871.941 11.26 871.781 10.808 871.781 10.224V4.308H872.633V10.176C872.633 10.544 872.725 10.828 872.909 11.028C873.101 11.228 873.373 11.328 873.725 11.328C874.101 11.328 874.413 11.22 874.661 11.004L874.961 11.616C874.793 11.768 874.589 11.88 874.349 11.952C874.117 12.024 873.877 12.06 873.629 12.06ZM870.653 6.408V5.7H874.553V6.408H870.653ZM876.512 12V5.7H877.364V12H876.512ZM876.944 4.308C876.768 4.308 876.62 4.248 876.5 4.128C876.38 4.008 876.32 3.864 876.32 3.696C876.32 3.528 876.38 3.388 876.5 3.276C876.62 3.156 876.768 3.096 876.944 3.096C877.12 3.096 877.268 3.152 877.388 3.264C877.508 3.376 877.568 3.516 877.568 3.684C877.568 3.86 877.508 4.008 877.388 4.128C877.276 4.248 877.128 4.308 876.944 4.308ZM882.303 12.06C881.695 12.06 881.147 11.924 880.659 11.652C880.179 11.372 879.799 10.992 879.519 10.512C879.239 10.024 879.099 9.468 879.099 8.844C879.099 8.212 879.239 7.656 879.519 7.176C879.799 6.696 880.179 6.32 880.659 6.048C881.139 5.776 881.687 5.64 882.303 5.64C882.927 5.64 883.479 5.776 883.959 6.048C884.447 6.32 884.827 6.696 885.099 7.176C885.379 7.656 885.519 8.212 885.519 8.844C885.519 9.468 885.379 10.024 885.099 10.512C884.827 10.992 884.447 11.372 883.959 11.652C883.471 11.924 882.919 12.06 882.303 12.06ZM882.303 11.304C882.759 11.304 883.163 11.204 883.515 11.004C883.867 10.796 884.143 10.508 884.343 10.14C884.551 9.764 884.655 9.332 884.655 8.844C884.655 8.348 884.551 7.916 884.343 7.548C884.143 7.18 883.867 6.896 883.515 6.696C883.163 6.488 882.763 6.384 882.315 6.384C881.867 6.384 881.467 6.488 881.115 6.696C880.763 6.896 880.483 7.18 880.275 7.548C880.067 7.916 879.963 8.348 879.963 8.844C879.963 9.332 880.067 9.764 880.275 10.14C880.483 10.508 880.763 10.796 881.115 11.004C881.467 11.204 881.863 11.304 882.303 11.304ZM890.474 5.64C890.986 5.64 891.434 5.74 891.818 5.94C892.21 6.132 892.514 6.428 892.73 6.828C892.954 7.228 893.066 7.732 893.066 8.34V12H892.214V8.424C892.214 7.76 892.046 7.26 891.71 6.924C891.382 6.58 890.918 6.408 890.318 6.408C889.87 6.408 889.478 6.5 889.142 6.684C888.814 6.86 888.558 7.12 888.374 7.464C888.198 7.8 888.11 8.208 888.11 8.688V12H887.258V5.7H888.074V7.428L887.942 7.104C888.142 6.648 888.462 6.292 888.902 6.036C889.342 5.772 889.866 5.64 890.474 5.64Z" fill="white"/>
<circle cx="925.5" cy="7.5" r="7.5" fill="#93C83D"/>
<path d="M941 12V4.368H938.048V3.6H944.84V4.368H941.888V12H941ZM947.302 12.06C946.782 12.06 946.29 11.988 945.826 11.844C945.362 11.692 944.998 11.504 944.734 11.28L945.118 10.608C945.374 10.8 945.702 10.968 946.102 11.112C946.502 11.248 946.922 11.316 947.362 11.316C947.962 11.316 948.394 11.224 948.658 11.04C948.922 10.848 949.054 10.596 949.054 10.284C949.054 10.052 948.978 9.872 948.826 9.744C948.682 9.608 948.49 9.508 948.25 9.444C948.01 9.372 947.742 9.312 947.446 9.264C947.15 9.216 946.854 9.16 946.558 9.096C946.27 9.032 946.006 8.94 945.766 8.82C945.526 8.692 945.33 8.52 945.178 8.304C945.034 8.088 944.962 7.8 944.962 7.44C944.962 7.096 945.058 6.788 945.25 6.516C945.442 6.244 945.722 6.032 946.09 5.88C946.466 5.72 946.922 5.64 947.458 5.64C947.866 5.64 948.274 5.696 948.682 5.808C949.09 5.912 949.426 6.052 949.69 6.228L949.318 6.912C949.038 6.72 948.738 6.584 948.418 6.504C948.098 6.416 947.778 6.372 947.458 6.372C946.89 6.372 946.47 6.472 946.198 6.672C945.934 6.864 945.802 7.112 945.802 7.416C945.802 7.656 945.874 7.844 946.018 7.98C946.17 8.116 946.366 8.224 946.606 8.304C946.854 8.376 947.122 8.436 947.41 8.484C947.706 8.532 947.998 8.592 948.286 8.664C948.582 8.728 948.85 8.82 949.09 8.94C949.338 9.052 949.534 9.216 949.678 9.432C949.83 9.64 949.906 9.916 949.906 10.26C949.906 10.628 949.802 10.948 949.594 11.22C949.394 11.484 949.098 11.692 948.706 11.844C948.322 11.988 947.854 12.06 947.302 12.06ZM954.073 12.06C953.537 12.06 953.069 11.96 952.669 11.76C952.269 11.56 951.957 11.26 951.733 10.86C951.517 10.46 951.409 9.96 951.409 9.36V5.7H952.261V9.264C952.261 9.936 952.425 10.444 952.753 10.788C953.089 11.124 953.557 11.292 954.157 11.292C954.597 11.292 954.977 11.204 955.297 11.028C955.625 10.844 955.873 10.58 956.041 10.236C956.217 9.892 956.305 9.48 956.305 9V5.7H957.157V12H956.341V10.272L956.473 10.584C956.273 11.048 955.961 11.412 955.537 11.676C955.121 11.932 954.633 12.06 954.073 12.06ZM962.748 5.64C963.26 5.64 963.708 5.74 964.092 5.94C964.484 6.132 964.788 6.428 965.004 6.828C965.228 7.228 965.34 7.732 965.34 8.34V12H964.488V8.424C964.488 7.76 964.32 7.26 963.984 6.924C963.656 6.58 963.192 6.408 962.592 6.408C962.144 6.408 961.752 6.5 961.416 6.684C961.088 6.86 960.832 7.12 960.648 7.464C960.472 7.8 960.384 8.208 960.384 8.688V12H959.532V5.7H960.348V7.428L960.216 7.104C960.416 6.648 960.736 6.292 961.176 6.036C961.616 5.772 962.14 5.64 962.748 5.64ZM971.589 12V10.608L971.553 10.38V8.052C971.553 7.516 971.401 7.104 971.097 6.816C970.801 6.528 970.357 6.384 969.765 6.384C969.357 6.384 968.969 6.452 968.601 6.588C968.233 6.724 967.921 6.904 967.665 7.128L967.281 6.492C967.601 6.22 967.985 6.012 968.433 5.868C968.881 5.716 969.353 5.64 969.849 5.64C970.665 5.64 971.293 5.844 971.733 6.252C972.181 6.652 972.405 7.264 972.405 8.088V12H971.589ZM969.417 12.06C968.945 12.06 968.533 11.984 968.181 11.832C967.837 11.672 967.573 11.456 967.389 11.184C967.205 10.904 967.113 10.584 967.113 10.224C967.113 9.896 967.189 9.6 967.341 9.336C967.501 9.064 967.757 8.848 968.109 8.688C968.469 8.52 968.949 8.436 969.549 8.436H971.721V9.072H969.573C968.965 9.072 968.541 9.18 968.301 9.396C968.069 9.612 967.953 9.88 967.953 10.2C967.953 10.56 968.093 10.848 968.373 11.064C968.653 11.28 969.045 11.388 969.549 11.388C970.029 11.388 970.441 11.28 970.785 11.064C971.137 10.84 971.393 10.52 971.553 10.104L971.745 10.692C971.585 11.108 971.305 11.44 970.905 11.688C970.513 11.936 970.017 12.06 969.417 12.06ZM982.591 5.64C983.103 5.64 983.547 5.74 983.923 5.94C984.307 6.132 984.603 6.428 984.811 6.828C985.027 7.228 985.135 7.732 985.135 8.34V12H984.283V8.424C984.283 7.76 984.123 7.26 983.803 6.924C983.491 6.58 983.047 6.408 982.471 6.408C982.039 6.408 981.663 6.5 981.343 6.684C981.031 6.86 980.787 7.12 980.611 7.464C980.443 7.8 980.359 8.208 980.359 8.688V12H979.507V8.424C979.507 7.76 979.347 7.26 979.027 6.924C978.707 6.58 978.259 6.408 977.683 6.408C977.259 6.408 976.887 6.5 976.567 6.684C976.247 6.86 975.999 7.12 975.823 7.464C975.655 7.8 975.571 8.208 975.571 8.688V12H974.719V5.7H975.535V7.404L975.403 7.104C975.595 6.648 975.903 6.292 976.327 6.036C976.759 5.772 977.267 5.64 977.851 5.64C978.467 5.64 978.991 5.796 979.423 6.108C979.855 6.412 980.135 6.872 980.263 7.488L979.927 7.356C980.111 6.844 980.435 6.432 980.899 6.12C981.371 5.8 981.935 5.64 982.591 5.64ZM987.446 12V5.7H988.298V12H987.446ZM987.878 4.308C987.702 4.308 987.554 4.248 987.434 4.128C987.314 4.008 987.254 3.864 987.254 3.696C987.254 3.528 987.314 3.388 987.434 3.276C987.554 3.156 987.702 3.096 987.878 3.096C988.054 3.096 988.202 3.152 988.322 3.264C988.442 3.376 988.502 3.516 988.502 3.684C988.502 3.86 988.442 4.008 988.322 4.128C988.21 4.248 988.062 4.308 987.878 4.308Z" fill="white"/>
<circle cx="1020.5" cy="7.5" r="7.5" fill="#FFEE00"/>
<path d="M1034.37 12V3.6H1037.79C1038.68 3.6 1039.47 3.78 1040.14 4.14C1040.82 4.492 1041.35 4.984 1041.72 5.616C1042.1 6.248 1042.29 6.976 1042.29 7.8C1042.29 8.624 1042.1 9.352 1041.72 9.984C1041.35 10.616 1040.82 11.112 1040.14 11.472C1039.47 11.824 1038.68 12 1037.79 12H1034.37ZM1035.26 11.232H1037.74C1038.48 11.232 1039.13 11.088 1039.67 10.8C1040.22 10.504 1040.65 10.1 1040.96 9.588C1041.26 9.068 1041.41 8.472 1041.41 7.8C1041.41 7.12 1041.26 6.524 1040.96 6.012C1040.65 5.5 1040.22 5.1 1039.67 4.812C1039.13 4.516 1038.48 4.368 1037.74 4.368H1035.26V11.232ZM1044.1 12V5.7H1044.92V7.416L1044.83 7.116C1045.01 6.636 1045.31 6.272 1045.72 6.024C1046.14 5.768 1046.65 5.64 1047.27 5.64V6.468C1047.24 6.468 1047.21 6.468 1047.17 6.468C1047.14 6.46 1047.11 6.456 1047.08 6.456C1046.41 6.456 1045.89 6.66 1045.52 7.068C1045.14 7.468 1044.95 8.04 1044.95 8.784V12H1044.1ZM1051.33 12.06C1050.73 12.06 1050.18 11.924 1049.69 11.652C1049.21 11.372 1048.83 10.992 1048.55 10.512C1048.27 10.024 1048.13 9.468 1048.13 8.844C1048.13 8.212 1048.27 7.656 1048.55 7.176C1048.83 6.696 1049.21 6.32 1049.69 6.048C1050.17 5.776 1050.72 5.64 1051.33 5.64C1051.96 5.64 1052.51 5.776 1052.99 6.048C1053.48 6.32 1053.86 6.696 1054.13 7.176C1054.41 7.656 1054.55 8.212 1054.55 8.844C1054.55 9.468 1054.41 10.024 1054.13 10.512C1053.86 10.992 1053.48 11.372 1052.99 11.652C1052.5 11.924 1051.95 12.06 1051.33 12.06ZM1051.33 11.304C1051.79 11.304 1052.19 11.204 1052.55 11.004C1052.9 10.796 1053.17 10.508 1053.37 10.14C1053.58 9.764 1053.69 9.332 1053.69 8.844C1053.69 8.348 1053.58 7.916 1053.37 7.548C1053.17 7.18 1052.9 6.896 1052.55 6.696C1052.19 6.488 1051.79 6.384 1051.35 6.384C1050.9 6.384 1050.5 6.488 1050.15 6.696C1049.79 6.896 1049.51 7.18 1049.31 7.548C1049.1 7.916 1048.99 8.348 1048.99 8.844C1048.99 9.332 1049.1 9.764 1049.31 10.14C1049.51 10.508 1049.79 10.796 1050.15 11.004C1050.5 11.204 1050.89 11.304 1051.33 11.304ZM1058.89 12.06C1058.36 12.06 1057.89 11.96 1057.49 11.76C1057.09 11.56 1056.78 11.26 1056.55 10.86C1056.34 10.46 1056.23 9.96 1056.23 9.36V5.7H1057.08V9.264C1057.08 9.936 1057.25 10.444 1057.57 10.788C1057.91 11.124 1058.38 11.292 1058.98 11.292C1059.42 11.292 1059.8 11.204 1060.12 11.028C1060.45 10.844 1060.69 10.58 1060.86 10.236C1061.04 9.892 1061.13 9.48 1061.13 9V5.7H1061.98V12H1061.16V10.272L1061.29 10.584C1061.09 11.048 1060.78 11.412 1060.36 11.676C1059.94 11.932 1059.45 12.06 1058.89 12.06ZM1067.04 14.388C1066.46 14.388 1065.91 14.304 1065.38 14.136C1064.86 13.968 1064.43 13.728 1064.1 13.416L1064.53 12.768C1064.83 13.032 1065.19 13.24 1065.62 13.392C1066.06 13.552 1066.53 13.632 1067.02 13.632C1067.82 13.632 1068.4 13.444 1068.78 13.068C1069.16 12.7 1069.34 12.124 1069.34 11.34V9.768L1069.46 8.688L1069.38 7.608V5.7H1070.2V11.232C1070.2 12.32 1069.93 13.116 1069.39 13.62C1068.86 14.132 1068.08 14.388 1067.04 14.388ZM1066.88 11.76C1066.28 11.76 1065.74 11.632 1065.26 11.376C1064.78 11.112 1064.4 10.748 1064.12 10.284C1063.85 9.82 1063.72 9.288 1063.72 8.688C1063.72 8.088 1063.85 7.56 1064.12 7.104C1064.4 6.64 1064.78 6.28 1065.26 6.024C1065.74 5.768 1066.28 5.64 1066.88 5.64C1067.44 5.64 1067.95 5.756 1068.4 5.988C1068.84 6.22 1069.2 6.564 1069.46 7.02C1069.73 7.476 1069.86 8.032 1069.86 8.688C1069.86 9.344 1069.73 9.9 1069.46 10.356C1069.2 10.812 1068.84 11.16 1068.4 11.4C1067.95 11.64 1067.44 11.76 1066.88 11.76ZM1066.97 11.004C1067.43 11.004 1067.84 10.908 1068.2 10.716C1068.56 10.516 1068.85 10.244 1069.06 9.9C1069.26 9.548 1069.37 9.144 1069.37 8.688C1069.37 8.232 1069.26 7.832 1069.06 7.488C1068.85 7.144 1068.56 6.876 1068.2 6.684C1067.84 6.484 1067.43 6.384 1066.97 6.384C1066.51 6.384 1066.1 6.484 1065.73 6.684C1065.37 6.876 1065.09 7.144 1064.88 7.488C1064.68 7.832 1064.58 8.232 1064.58 8.688C1064.58 9.144 1064.68 9.548 1064.88 9.9C1065.09 10.244 1065.37 10.516 1065.73 10.716C1066.1 10.908 1066.51 11.004 1066.97 11.004ZM1075.78 5.64C1076.29 5.64 1076.74 5.74 1077.13 5.94C1077.52 6.132 1077.82 6.428 1078.04 6.828C1078.26 7.228 1078.37 7.732 1078.37 8.34V12H1077.52V8.424C1077.52 7.76 1077.35 7.26 1077.02 6.924C1076.69 6.58 1076.23 6.408 1075.63 6.408C1075.18 6.408 1074.79 6.5 1074.45 6.684C1074.12 6.86 1073.87 7.12 1073.68 7.464C1073.51 7.8 1073.42 8.208 1073.42 8.688V12H1072.57V3.096H1073.42V7.428L1073.25 7.104C1073.45 6.648 1073.77 6.292 1074.21 6.036C1074.65 5.772 1075.17 5.64 1075.78 5.64ZM1082.67 12.06C1082.08 12.06 1081.62 11.9 1081.3 11.58C1080.98 11.26 1080.82 10.808 1080.82 10.224V4.308H1081.67V10.176C1081.67 10.544 1081.76 10.828 1081.95 11.028C1082.14 11.228 1082.41 11.328 1082.76 11.328C1083.14 11.328 1083.45 11.22 1083.7 11.004L1084 11.616C1083.83 11.768 1083.63 11.88 1083.39 11.952C1083.16 12.024 1082.92 12.06 1082.67 12.06ZM1079.69 6.408V5.7H1083.59V6.408H1079.69ZM1087.24 12.06C1086.72 12.06 1086.23 11.988 1085.77 11.844C1085.3 11.692 1084.94 11.504 1084.68 11.28L1085.06 10.608C1085.32 10.8 1085.64 10.968 1086.04 11.112C1086.44 11.248 1086.86 11.316 1087.3 11.316C1087.9 11.316 1088.34 11.224 1088.6 11.04C1088.86 10.848 1089 10.596 1089 10.284C1089 10.052 1088.92 9.872 1088.77 9.744C1088.62 9.608 1088.43 9.508 1088.19 9.444C1087.95 9.372 1087.68 9.312 1087.39 9.264C1087.09 9.216 1086.8 9.16 1086.5 9.096C1086.21 9.032 1085.95 8.94 1085.71 8.82C1085.47 8.692 1085.27 8.52 1085.12 8.304C1084.98 8.088 1084.9 7.8 1084.9 7.44C1084.9 7.096 1085 6.788 1085.19 6.516C1085.38 6.244 1085.66 6.032 1086.03 5.88C1086.41 5.72 1086.86 5.64 1087.4 5.64C1087.81 5.64 1088.22 5.696 1088.62 5.808C1089.03 5.912 1089.37 6.052 1089.63 6.228L1089.26 6.912C1088.98 6.72 1088.68 6.584 1088.36 6.504C1088.04 6.416 1087.72 6.372 1087.4 6.372C1086.83 6.372 1086.41 6.472 1086.14 6.672C1085.88 6.864 1085.74 7.112 1085.74 7.416C1085.74 7.656 1085.82 7.844 1085.96 7.98C1086.11 8.116 1086.31 8.224 1086.55 8.304C1086.8 8.376 1087.06 8.436 1087.35 8.484C1087.65 8.532 1087.94 8.592 1088.23 8.664C1088.52 8.728 1088.79 8.82 1089.03 8.94C1089.28 9.052 1089.48 9.216 1089.62 9.432C1089.77 9.64 1089.85 9.916 1089.85 10.26C1089.85 10.628 1089.74 10.948 1089.54 11.22C1089.34 11.484 1089.04 11.692 1088.65 11.844C1088.26 11.988 1087.8 12.06 1087.24 12.06Z" fill="white"/>
</svg>
