<svg version="1.1" viewBox="0.0 0.0 960.0 720.0" fill="none" stroke="none" stroke-linecap="square" stroke-miterlimit="10" xmlns:xlink="http://www.w3.org/1999/xlink" xmlns="http://www.w3.org/2000/svg"><clipPath id="p.0"><path d="m0 0l960.0 0l0 720.0l-960.0 0l0 -720.0z" clip-rule="nonzero"/></clipPath><g clip-path="url(#p.0)"><path fill="#000000" fill-opacity="0.0" d="m0 0l960.0 0l0 720.0l-960.0 0z" fill-rule="evenodd"/><defs><linearGradient id="p.1" gradientUnits="userSpaceOnUse" gradientTransform="matrix(25.91750199494985 0.0 0.0 25.91750199494985 0.0 0.0)" spreadMethod="pad" x1="15.850819588014783" y1="0.9314693239868606" x2="15.850726229502722" y2="26.848971318768562"><stop offset="0.0" stop-color="#ff0000"/><stop offset="0.5" stop-color="#ffffff"/><stop offset="0.99999994" stop-color="#0000ff"/><stop offset="1.0" stop-color="#737373"/></linearGradient></defs><path fill="url(#p.1)" d="m410.81366 41.30218l0 0c0 -9.477455 7.6829834 -17.160448 17.16043 -17.160448l68.63974 0l0 0c4.551239 0 8.916046 1.80797 12.134277 5.0261784c3.2182007 3.2182083 5.026184 7.5830345 5.026184 12.13427l0 637.3956c0 9.477478 -7.683014 17.160461 -17.160461 17.160461l-68.63974 0c-9.4774475 0 -17.16043 -7.6829834 -17.16043 -17.160461z" fill-rule="evenodd"/><path fill="#000000" fill-opacity="0.0" d="m410.81366 72.0l122.2677 0" fill-rule="evenodd"/><path stroke="#ffffff" stroke-width="2.0" stroke-linejoin="round" stroke-linecap="butt" stroke-dasharray="8.0,6.0" d="m410.81366 72.0l122.2677 0" fill-rule="evenodd"/><path fill="#000000" fill-opacity="0.0" d="m410.81366 656.0l122.2677 0" fill-rule="evenodd"/><path stroke="#ffffff" stroke-width="2.0" stroke-linejoin="round" stroke-linecap="butt" stroke-dasharray="8.0,6.0" d="m410.81366 656.0l122.2677 0" fill-rule="evenodd"/><path fill="#000000" fill-opacity="0.0" d="m525.58795 50.992126l102.96063 0l0 42.015747l-102.96063 0z" fill-rule="evenodd"/><path fill="#ffffff" d="m537.83795 77.912125l0 -12.5l0.59375 0.640625l-3.671875 0l0 -1.203125l4.421875 0l0 13.0625l-1.34375 0zm8.578613 0.109375q-1.40625 0 -2.671875 -0.453125q-1.265625 -0.453125 -2.015625 -1.21875l0.65625 -1.0625q0.609375 0.640625 1.6875 1.078125q1.078125 0.421875 2.328125 0.421875q1.65625 0 2.515625 -0.734375q0.875 -0.734375 0.875 -1.921875q0 -0.84375 -0.40625 -1.453125q-0.390625 -0.609375 -1.34375 -0.9375q-0.953125 -0.34375 -2.609375 -0.34375l-2.78125 0l0.671875 -6.546875l7.140625 0l0 1.203125l-6.609375 0l0.703125 -0.65625l-0.578125 5.484375l-0.703125 -0.671875l2.453125 0q1.96875 0 3.15625 0.484375q1.203125 0.484375 1.734375 1.359375q0.53125 0.859375 0.53125 2.015625q0 1.09375 -0.53125 2.0q-0.515625 0.90625 -1.5625 1.4375q-1.03125 0.515625 -2.640625 0.515625zm7.4500732 -0.015625q-0.421875 0 -0.71875 -0.296875q-0.28125 -0.296875 -0.28125 -0.734375q0 -0.4375 0.28125 -0.71875q0.296875 -0.28125 0.71875 -0.28125q0.40625 0 0.6875 0.28125q0.296875 0.28125 0.296875 0.71875q0 0.4375 -0.296875 0.734375q-0.28125 0.296875 -0.6875 0.296875zm2.8917847 -0.09375l0 -0.953125l5.421875 -5.3125q0.75 -0.734375 1.125 -1.28125q0.375 -0.546875 0.5 -1.03125q0.125 -0.484375 0.125 -0.921875q0 -1.140625 -0.78125 -1.78125q-0.765625 -0.65625 -2.28125 -0.65625q-1.15625 0 -2.046875 0.359375q-0.875 0.34375 -1.515625 1.09375l-0.953125 -0.828125q0.765625 -0.890625 1.953125 -1.375q1.203125 -0.484375 2.6875 -0.484375q1.3125 0 2.28125 0.421875q0.984375 0.421875 1.515625 1.21875q0.53125 0.796875 0.53125 1.890625q0 0.625 -0.1875 1.25q-0.171875 0.609375 -0.640625 1.296875q-0.453125 0.671875 -1.328125 1.53125l-4.96875 4.890625l-0.375 -0.515625l8.09375 0l0 1.1875l-9.15625 0zm13.768616 -7.234375q-0.828125 0 -1.515625 -0.40625q-0.671875 -0.40625 -1.0625 -1.0625q-0.390625 -0.65625 -0.390625 -1.5q0 -0.828125 0.390625 -1.5q0.390625 -0.671875 1.0625 -1.0625q0.6875 -0.390625 1.515625 -0.390625q0.828125 0 1.5 0.390625q0.6875 0.390625 1.078125 1.0625q0.40625 0.671875 0.40625 1.5q0 0.8125 -0.40625 1.484375q-0.390625 0.671875 -1.078125 1.078125q-0.671875 0.40625 -1.5 0.40625zm0.015625 -0.78125q0.59375 0 1.078125 -0.296875q0.5 -0.3125 0.78125 -0.796875q0.28125 -0.484375 0.28125 -1.09375q0 -0.625 -0.28125 -1.109375q-0.28125 -0.5 -0.78125 -0.78125q-0.484375 -0.28125 -1.078125 -0.28125q-0.625 0 -1.125 0.28125q-0.484375 0.28125 -0.765625 0.78125q-0.28125 0.484375 -0.28125 1.109375q0 0.609375 0.28125 1.109375q0.28125 0.5 0.765625 0.796875q0.5 0.28125 1.125 0.28125zm11.878662 8.125q-1.46875 0 -2.71875 -0.484375q-1.25 -0.5 -2.171875 -1.390625q-0.90625 -0.90625 -1.421875 -2.109375q-0.515625 -1.21875 -0.515625 -2.65625q0 -1.4375 0.515625 -2.640625q0.515625 -1.21875 1.4375 -2.109375q0.921875 -0.90625 2.171875 -1.390625q1.25 -0.5 2.71875 -0.5q1.421875 0 2.671875 0.484375q1.25 0.46875 2.109375 1.421875l-0.875 0.875q-0.8125 -0.828125 -1.78125 -1.1875q-0.96875 -0.359375 -2.078125 -0.359375q-1.1875 0 -2.1875 0.40625q-1.0 0.390625 -1.75 1.140625q-0.75 0.734375 -1.171875 1.71875q-0.421875 0.96875 -0.421875 2.140625q0 1.171875 0.421875 2.15625q0.421875 0.984375 1.171875 1.71875q0.75 0.734375 1.75 1.140625q1.0 0.390625 2.1875 0.390625q1.109375 0 2.078125 -0.359375q0.96875 -0.375 1.78125 -1.203125l0.875 0.875q-0.859375 0.953125 -2.109375 1.4375q-1.25 0.484375 -2.6875 0.484375z" fill-rule="nonzero"/><path fill="#000000" fill-opacity="0.0" d="m533.08136 634.9921l102.96063 0l0 42.015747l-102.96063 0z" fill-rule="evenodd"/><path fill="#ffffff" d="m543.20636 657.42773l0 -1.15625l4.875 0l0 1.15625l-4.875 0zm8.934387 4.484375l0 -12.5l0.59375 0.640625l-3.671875 0l0 -1.203125l4.421875 0l0 13.0625l-1.34375 0zm9.422363 0.109375q-1.578125 0 -2.703125 -0.4375q-1.125 -0.453125 -1.734375 -1.296875q-0.609375 -0.859375 -0.609375 -2.015625q0 -1.109375 0.59375 -1.90625q0.59375 -0.796875 1.71875 -1.21875q1.125 -0.4375 2.734375 -0.4375q1.578125 0 2.71875 0.4375q1.140625 0.421875 1.734375 1.21875q0.609375 0.796875 0.609375 1.90625q0 1.15625 -0.609375 2.015625q-0.609375 0.84375 -1.75 1.296875q-1.140625 0.4375 -2.703125 0.4375zm0 -1.140625q1.734375 0 2.703125 -0.703125q0.984375 -0.703125 0.984375 -1.921875q0 -1.21875 -0.984375 -1.90625q-0.96875 -0.703125 -2.703125 -0.703125q-1.734375 0 -2.71875 0.703125q-0.96875 0.6875 -0.96875 1.90625q0 1.21875 0.96875 1.921875q0.984375 0.703125 2.71875 0.703125zm0 -6.296875q1.53125 0 2.375 -0.625q0.859375 -0.640625 0.859375 -1.703125q0 -1.125 -0.890625 -1.75q-0.875 -0.625 -2.34375 -0.625q-1.484375 0 -2.359375 0.625q-0.875 0.625 -0.875 1.71875q0 1.09375 0.84375 1.734375q0.859375 0.625 2.390625 0.625zm0 0.890625q-1.453125 0 -2.484375 -0.390625q-1.015625 -0.390625 -1.5625 -1.125q-0.53125 -0.734375 -0.53125 -1.765625q0 -1.078125 0.5625 -1.84375q0.578125 -0.78125 1.59375 -1.1875q1.03125 -0.421875 2.421875 -0.421875q1.375 0 2.40625 0.421875q1.046875 0.40625 1.625 1.1875q0.578125 0.765625 0.578125 1.84375q0 1.03125 -0.546875 1.765625q-0.546875 0.734375 -1.578125 1.125q-1.03125 0.390625 -2.484375 0.390625zm8.13623 6.53125q-0.421875 0 -0.71875 -0.296875q-0.28125 -0.296875 -0.28125 -0.734375q0 -0.4375 0.28125 -0.71875q0.296875 -0.28125 0.71875 -0.28125q0.40625 0 0.6875 0.28125q0.296875 0.28125 0.296875 0.71875q0 0.4375 -0.296875 0.734375q-0.28125 0.296875 -0.6875 0.296875zm2.8917847 -0.09375l0 -0.953125l5.421875 -5.3125q0.75 -0.734375 1.125 -1.28125q0.375 -0.546875 0.5 -1.03125q0.125 -0.484375 0.125 -0.921875q0 -1.140625 -0.78125 -1.78125q-0.765625 -0.65625 -2.28125 -0.65625q-1.15625 0 -2.046875 0.359375q-0.875 0.34375 -1.515625 1.09375l-0.953125 -0.828125q0.765625 -0.890625 1.953125 -1.375q1.203125 -0.484375 2.6875 -0.484375q1.3125 0 2.28125 0.421875q0.984375 0.421875 1.515625 1.21875q0.53125 0.796875 0.53125 1.890625q0 0.625 -0.1875 1.25q-0.171875 0.609375 -0.640625 1.296875q-0.453125 0.671875 -1.328125 1.53125l-4.96875 4.890625l-0.375 -0.515625l8.09375 0l0 1.1875l-9.15625 0zm13.768677 -7.234375q-0.828125 0 -1.515625 -0.40625q-0.671875 -0.40625 -1.0625 -1.0625q-0.390625 -0.65625 -0.390625 -1.5q0 -0.828125 0.390625 -1.5q0.390625 -0.671875 1.0625 -1.0625q0.6875 -0.390625 1.515625 -0.390625q0.828125 0 1.5 0.390625q0.6875 0.390625 1.078125 1.0625q0.40625 0.671875 0.40625 1.5q0 0.8125 -0.40625 1.484375q-0.390625 0.671875 -1.078125 1.078125q-0.671875 0.40625 -1.5 0.40625zm0.015625 -0.78125q0.59375 0 1.078125 -0.296875q0.5 -0.3125 0.78125 -0.796875q0.28125 -0.484375 0.28125 -1.09375q0 -0.625 -0.28125 -1.109375q-0.28125 -0.5 -0.78125 -0.78125q-0.484375 -0.28125 -1.078125 -0.28125q-0.625 0 -1.125 0.28125q-0.484375 0.28125 -0.765625 0.78125q-0.28125 0.484375 -0.28125 1.109375q0 0.609375 0.28125 1.109375q0.28125 0.5 0.765625 0.796875q0.5 0.28125 1.125 0.28125zm11.878601 8.125q-1.46875 0 -2.71875 -0.484375q-1.25 -0.5 -2.171875 -1.390625q-0.90625 -0.90625 -1.421875 -2.109375q-0.515625 -1.21875 -0.515625 -2.65625q0 -1.4375 0.515625 -2.640625q0.515625 -1.21875 1.4375 -2.109375q0.921875 -0.90625 2.171875 -1.390625q1.25 -0.5 2.71875 -0.5q1.421875 0 2.671875 0.484375q1.25 0.46875 2.109375 1.421875l-0.875 0.875q-0.8125 -0.828125 -1.78125 -1.1875q-0.96875 -0.359375 -2.078125 -0.359375q-1.1875 0 -2.1875 0.40625q-1.0 0.390625 -1.75 1.140625q-0.75 0.734375 -1.171875 1.71875q-0.421875 0.96875 -0.421875 2.140625q0 1.171875 0.421875 2.15625q0.421875 0.984375 1.171875 1.71875q0.75 0.734375 1.75 1.140625q1.0 0.390625 2.1875 0.390625q1.109375 0 2.078125 -0.359375q0.96875 -0.375 1.78125 -1.203125l0.875 0.875q-0.859375 0.953125 -2.109375 1.4375q-1.25 0.484375 -2.6875 0.484375z" fill-rule="nonzero"/></g></svg>