<svg width="103" height="352" viewBox="0 0 103 352" fill="none" xmlns="http://www.w3.org/2000/svg">
<rect x="23" y="26" width="20" height="300" rx="10" fill="url(#paint0_linear_858_5674)"/>
<path d="M12.072 268.316C12.072 268.94 11.972 269.54 11.772 270.116C11.564 270.684 11.3 271.124 10.98 271.436L10.296 271.088C10.584 270.792 10.828 270.396 11.028 269.9C11.22 269.396 11.316 268.868 11.316 268.316C11.316 267.788 11.252 267.36 11.124 267.032C10.988 266.696 10.808 266.452 10.584 266.3C10.36 266.14 10.112 266.06 9.84 266.06C9.512 266.06 9.248 266.156 9.048 266.348C8.848 266.532 8.692 266.776 8.58 267.08C8.46 267.384 8.356 267.72 8.268 268.088C8.18 268.456 8.088 268.824 7.992 269.192C7.888 269.56 7.752 269.9 7.584 270.212C7.416 270.516 7.196 270.764 6.924 270.956C6.644 271.14 6.28 271.232 5.832 271.232C5.416 271.232 5.036 271.124 4.692 270.908C4.34 270.684 4.06 270.344 3.852 269.888C3.636 269.432 3.528 268.848 3.528 268.136C3.528 267.664 3.596 267.196 3.732 266.732C3.86 266.268 4.04 265.868 4.272 265.532L4.98 265.832C4.74 266.192 4.564 266.576 4.452 266.984C4.34 267.384 4.284 267.772 4.284 268.148C4.284 268.652 4.352 269.068 4.488 269.396C4.624 269.724 4.808 269.968 5.04 270.128C5.264 270.28 5.52 270.356 5.808 270.356C6.136 270.356 6.4 270.264 6.6 270.08C6.8 269.888 6.956 269.64 7.068 269.336C7.18 269.024 7.28 268.684 7.368 268.316C7.456 267.948 7.552 267.584 7.656 267.224C7.76 266.856 7.896 266.52 8.064 266.216C8.224 265.904 8.44 265.656 8.712 265.472C8.984 265.28 9.34 265.184 9.78 265.184C10.188 265.184 10.568 265.296 10.92 265.52C11.264 265.744 11.544 266.088 11.76 266.552C11.968 267.008 12.072 267.596 12.072 268.316ZM12.06 260.825C12.06 261.361 11.96 261.829 11.76 262.229C11.56 262.629 11.26 262.941 10.86 263.165C10.46 263.381 9.96 263.489 9.36 263.489H5.7V262.637H9.264C9.936 262.637 10.444 262.473 10.788 262.145C11.124 261.809 11.292 261.341 11.292 260.741C11.292 260.301 11.204 259.921 11.028 259.601C10.844 259.273 10.58 259.025 10.236 258.857C9.892 258.681 9.48 258.593 9 258.593H5.7V257.741H12V258.557H10.272L10.584 258.425C11.048 258.625 11.412 258.937 11.676 259.361C11.932 259.777 12.06 260.265 12.06 260.825ZM12 255.367H5.7V254.551H7.416L7.116 254.635C6.636 254.459 6.272 254.163 6.024 253.747C5.768 253.331 5.64 252.815 5.64 252.199H6.468C6.468 252.231 6.468 252.263 6.468 252.295C6.46 252.327 6.456 252.359 6.456 252.391C6.456 253.055 6.66 253.575 7.068 253.951C7.468 254.327 8.04 254.515 8.784 254.515H12V255.367ZM12 250.406H4.908C4.348 250.406 3.896 250.242 3.552 249.914C3.208 249.586 3.036 249.114 3.036 248.498C3.036 248.258 3.068 248.026 3.132 247.802C3.196 247.578 3.296 247.39 3.432 247.238L4.068 247.526C3.964 247.646 3.888 247.786 3.84 247.946C3.784 248.106 3.756 248.278 3.756 248.462C3.756 248.822 3.856 249.098 4.056 249.29C4.256 249.482 4.552 249.578 4.944 249.578H5.904L6.3 249.554H12V250.406ZM6.408 251.534H5.7L5.7 247.634H6.408L6.408 251.534ZM12 242.653H10.608L10.38 242.689H8.052C7.516 242.689 7.104 242.841 6.816 243.145C6.528 243.441 6.384 243.885 6.384 244.477C6.384 244.885 6.452 245.273 6.588 245.641C6.724 246.009 6.904 246.321 7.128 246.577L6.492 246.961C6.22 246.641 6.012 246.257 5.868 245.809C5.716 245.361 5.64 244.889 5.64 244.393C5.64 243.577 5.844 242.949 6.252 242.509C6.652 242.061 7.264 241.837 8.088 241.837H12V242.653ZM12.06 244.825C12.06 245.297 11.984 245.709 11.832 246.061C11.672 246.405 11.456 246.669 11.184 246.853C10.904 247.037 10.584 247.129 10.224 247.129C9.896 247.129 9.6 247.053 9.336 246.901C9.064 246.741 8.848 246.485 8.688 246.133C8.52 245.773 8.436 245.293 8.436 244.693V242.521H9.072V244.669C9.072 245.277 9.18 245.701 9.396 245.941C9.612 246.173 9.88 246.289 10.2 246.289C10.56 246.289 10.848 246.149 11.064 245.869C11.28 245.589 11.388 245.197 11.388 244.693C11.388 244.213 11.28 243.801 11.064 243.457C10.84 243.105 10.52 242.849 10.104 242.689L10.692 242.497C11.108 242.657 11.44 242.937 11.688 243.337C11.936 243.729 12.06 244.225 12.06 244.825ZM12.06 236.907C12.06 237.531 11.924 238.091 11.652 238.587C11.372 239.075 10.992 239.459 10.512 239.739C10.024 240.019 9.468 240.159 8.844 240.159C8.212 240.159 7.656 240.019 7.176 239.739C6.696 239.459 6.32 239.075 6.048 238.587C5.776 238.091 5.64 237.531 5.64 236.907C5.64 236.371 5.744 235.887 5.952 235.455C6.16 235.023 6.472 234.683 6.888 234.435L7.32 235.071C7 235.287 6.764 235.555 6.612 235.875C6.46 236.195 6.384 236.543 6.384 236.919C6.384 237.367 6.488 237.771 6.696 238.131C6.896 238.491 7.18 238.775 7.548 238.983C7.916 239.191 8.348 239.295 8.844 239.295C9.34 239.295 9.772 239.191 10.14 238.983C10.508 238.775 10.796 238.491 11.004 238.131C11.204 237.771 11.304 237.367 11.304 236.919C11.304 236.543 11.228 236.195 11.076 235.875C10.924 235.555 10.692 235.287 10.38 235.071L10.812 234.435C11.22 234.683 11.532 235.023 11.748 235.455C11.956 235.887 12.06 236.371 12.06 236.907ZM12.06 230.191C12.06 230.847 11.924 231.423 11.652 231.919C11.372 232.415 10.992 232.803 10.512 233.083C10.024 233.363 9.468 233.503 8.844 233.503C8.22 233.503 7.668 233.371 7.188 233.107C6.708 232.835 6.332 232.467 6.06 232.003C5.78 231.531 5.64 231.003 5.64 230.419C5.64 229.827 5.776 229.303 6.048 228.847C6.312 228.383 6.688 228.019 7.176 227.755C7.656 227.491 8.212 227.359 8.844 227.359C8.884 227.359 8.928 227.363 8.976 227.371C9.016 227.371 9.06 227.371 9.108 227.371L9.108 232.855H8.472L8.472 227.827L8.724 228.163C8.268 228.163 7.864 228.263 7.512 228.463C7.152 228.655 6.872 228.919 6.672 229.255C6.472 229.591 6.372 229.979 6.372 230.419C6.372 230.851 6.472 231.239 6.672 231.583C6.872 231.927 7.152 232.195 7.512 232.387C7.872 232.579 8.284 232.675 8.748 232.675H8.88C9.36 232.675 9.784 232.571 10.152 232.363C10.512 232.147 10.796 231.851 11.004 231.475C11.204 231.091 11.304 230.655 11.304 230.167C11.304 229.783 11.236 229.427 11.1 229.099C10.964 228.763 10.756 228.475 10.476 228.235L11.028 227.755C11.364 228.035 11.62 228.387 11.796 228.811C11.972 229.227 12.06 229.687 12.06 230.191ZM12 220.672H4.368L4.368 223.624H3.6L3.6 216.832H4.368V219.784H12V220.672ZM12.06 213.573C12.06 214.229 11.924 214.805 11.652 215.301C11.372 215.797 10.992 216.185 10.512 216.465C10.024 216.745 9.468 216.885 8.844 216.885C8.22 216.885 7.668 216.753 7.188 216.489C6.708 216.217 6.332 215.849 6.06 215.385C5.78 214.913 5.64 214.385 5.64 213.801C5.64 213.209 5.776 212.685 6.048 212.229C6.312 211.765 6.688 211.401 7.176 211.137C7.656 210.873 8.212 210.741 8.844 210.741C8.884 210.741 8.928 210.745 8.976 210.753C9.016 210.753 9.06 210.753 9.108 210.753V216.237H8.472V211.209L8.724 211.545C8.268 211.545 7.864 211.645 7.512 211.845C7.152 212.037 6.872 212.301 6.672 212.637C6.472 212.973 6.372 213.361 6.372 213.801C6.372 214.233 6.472 214.621 6.672 214.965C6.872 215.309 7.152 215.577 7.512 215.769C7.872 215.961 8.284 216.057 8.748 216.057H8.88C9.36 216.057 9.784 215.953 10.152 215.745C10.512 215.529 10.796 215.233 11.004 214.857C11.204 214.473 11.304 214.037 11.304 213.549C11.304 213.165 11.236 212.809 11.1 212.481C10.964 212.145 10.756 211.857 10.476 211.617L11.028 211.137C11.364 211.417 11.62 211.769 11.796 212.193C11.972 212.609 12.06 213.069 12.06 213.573ZM5.64 201.135C5.64 200.623 5.74 200.179 5.94 199.803C6.132 199.419 6.428 199.123 6.828 198.915C7.228 198.699 7.732 198.591 8.34 198.591H12V199.443H8.424C7.76 199.443 7.26 199.603 6.924 199.923C6.58 200.235 6.408 200.679 6.408 201.255C6.408 201.687 6.5 202.063 6.684 202.383C6.86 202.695 7.12 202.939 7.464 203.115C7.8 203.283 8.208 203.367 8.688 203.367H12V204.219H8.424C7.76 204.219 7.26 204.379 6.924 204.699C6.58 205.019 6.408 205.467 6.408 206.043C6.408 206.467 6.5 206.839 6.684 207.159C6.86 207.479 7.12 207.727 7.464 207.903C7.8 208.071 8.208 208.155 8.688 208.155H12V209.007H5.7V208.191H7.404L7.104 208.323C6.648 208.131 6.292 207.823 6.036 207.399C5.772 206.967 5.64 206.459 5.64 205.875C5.64 205.259 5.796 204.735 6.108 204.303C6.412 203.871 6.872 203.591 7.488 203.463L7.356 203.799C6.844 203.615 6.432 203.291 6.12 202.827C5.8 202.355 5.64 201.791 5.64 201.135ZM12.06 193.029C12.06 193.573 11.936 194.065 11.688 194.505C11.432 194.945 11.068 195.297 10.596 195.561C10.116 195.817 9.532 195.945 8.844 195.945C8.156 195.945 7.576 195.817 7.104 195.561C6.624 195.305 6.26 194.957 6.012 194.517C5.764 194.077 5.64 193.581 5.64 193.029C5.64 192.429 5.776 191.893 6.048 191.421C6.312 190.941 6.688 190.565 7.176 190.293C7.656 190.021 8.212 189.885 8.844 189.885C9.484 189.885 10.044 190.021 10.524 190.293C11.004 190.565 11.38 190.941 11.652 191.421C11.924 191.893 12.06 192.429 12.06 193.029ZM14.328 196.281H5.7V195.465H7.596L8.856 195.549L10.128 195.429H14.328V196.281ZM11.304 193.089C11.304 192.641 11.204 192.241 11.004 191.889C10.796 191.537 10.508 191.257 10.14 191.049C9.764 190.841 9.332 190.737 8.844 190.737C8.356 190.737 7.928 190.841 7.56 191.049C7.192 191.257 6.904 191.537 6.696 191.889C6.488 192.241 6.384 192.641 6.384 193.089C6.384 193.537 6.488 193.941 6.696 194.301C6.904 194.653 7.192 194.933 7.56 195.141C7.928 195.341 8.356 195.441 8.844 195.441C9.332 195.441 9.764 195.341 10.14 195.141C10.508 194.933 10.796 194.653 11.004 194.301C11.204 193.941 11.304 193.537 11.304 193.089ZM12.06 185.472C12.06 186.128 11.924 186.704 11.652 187.2C11.372 187.696 10.992 188.084 10.512 188.364C10.024 188.644 9.468 188.784 8.844 188.784C8.22 188.784 7.668 188.652 7.188 188.388C6.708 188.116 6.332 187.748 6.06 187.284C5.78 186.812 5.64 186.284 5.64 185.7C5.64 185.108 5.776 184.584 6.048 184.128C6.312 183.664 6.688 183.3 7.176 183.036C7.656 182.772 8.212 182.64 8.844 182.64C8.884 182.64 8.928 182.644 8.976 182.652C9.016 182.652 9.06 182.652 9.108 182.652V188.136H8.472V183.108L8.724 183.444C8.268 183.444 7.864 183.544 7.512 183.744C7.152 183.936 6.872 184.2 6.672 184.536C6.472 184.872 6.372 185.26 6.372 185.7C6.372 186.132 6.472 186.52 6.672 186.864C6.872 187.208 7.152 187.476 7.512 187.668C7.872 187.86 8.284 187.956 8.748 187.956H8.88C9.36 187.956 9.784 187.852 10.152 187.644C10.512 187.428 10.796 187.132 11.004 186.756C11.204 186.372 11.304 185.936 11.304 185.448C11.304 185.064 11.236 184.708 11.1 184.38C10.964 184.044 10.756 183.756 10.476 183.516L11.028 183.036C11.364 183.316 11.62 183.668 11.796 184.092C11.972 184.508 12.06 184.968 12.06 185.472ZM12 180.906H5.7V180.09H7.416L7.116 180.174C6.636 179.998 6.272 179.702 6.024 179.286C5.768 178.87 5.64 178.354 5.64 177.738H6.468C6.468 177.77 6.468 177.802 6.468 177.834C6.46 177.866 6.456 177.898 6.456 177.93C6.456 178.594 6.66 179.114 7.068 179.49C7.468 179.866 8.04 180.054 8.784 180.054H12V180.906ZM12 172.704H10.608L10.38 172.74H8.052C7.516 172.74 7.104 172.892 6.816 173.196C6.528 173.492 6.384 173.936 6.384 174.528C6.384 174.936 6.452 175.324 6.588 175.692C6.724 176.06 6.904 176.372 7.128 176.628L6.492 177.012C6.22 176.692 6.012 176.308 5.868 175.86C5.716 175.412 5.64 174.94 5.64 174.444C5.64 173.628 5.844 173 6.252 172.56C6.652 172.112 7.264 171.888 8.088 171.888H12V172.704ZM12.06 174.876C12.06 175.348 11.984 175.76 11.832 176.112C11.672 176.456 11.456 176.72 11.184 176.904C10.904 177.088 10.584 177.18 10.224 177.18C9.896 177.18 9.6 177.104 9.336 176.952C9.064 176.792 8.848 176.536 8.688 176.184C8.52 175.824 8.436 175.344 8.436 174.744V172.572H9.072V174.72C9.072 175.328 9.18 175.752 9.396 175.992C9.612 176.224 9.88 176.34 10.2 176.34C10.56 176.34 10.848 176.2 11.064 175.92C11.28 175.64 11.388 175.248 11.388 174.744C11.388 174.264 11.28 173.852 11.064 173.508C10.84 173.156 10.52 172.9 10.104 172.74L10.692 172.548C11.108 172.708 11.44 172.988 11.688 173.388C11.936 173.78 12.06 174.276 12.06 174.876ZM12.06 167.582C12.06 168.174 11.9 168.63 11.58 168.95C11.26 169.27 10.808 169.43 10.224 169.43H4.308V168.578H10.176C10.544 168.578 10.828 168.486 11.028 168.302C11.228 168.11 11.328 167.838 11.328 167.486C11.328 167.11 11.22 166.798 11.004 166.55L11.616 166.25C11.768 166.418 11.88 166.622 11.952 166.862C12.024 167.094 12.06 167.334 12.06 167.582ZM6.408 170.558H5.7V166.658H6.408V170.558ZM12.06 162.095C12.06 162.631 11.96 163.099 11.76 163.499C11.56 163.899 11.26 164.211 10.86 164.435C10.46 164.651 9.96 164.759 9.36 164.759H5.7V163.907H9.264C9.936 163.907 10.444 163.743 10.788 163.415C11.124 163.079 11.292 162.611 11.292 162.011C11.292 161.571 11.204 161.191 11.028 160.871C10.844 160.543 10.58 160.295 10.236 160.127C9.892 159.951 9.48 159.863 9 159.863H5.7V159.011H12V159.827H10.272L10.584 159.695C11.048 159.895 11.412 160.207 11.676 160.631C11.932 161.047 12.06 161.535 12.06 162.095ZM12 156.636H5.7V155.82H7.416L7.116 155.904C6.636 155.728 6.272 155.432 6.024 155.016C5.768 154.6 5.64 154.084 5.64 153.468H6.468C6.468 153.5 6.468 153.532 6.468 153.564C6.46 153.596 6.456 153.628 6.456 153.66C6.456 154.324 6.66 154.844 7.068 155.22C7.468 155.596 8.04 155.784 8.784 155.784H12V156.636ZM12.06 149.296C12.06 149.952 11.924 150.528 11.652 151.024C11.372 151.52 10.992 151.908 10.512 152.188C10.024 152.468 9.468 152.608 8.844 152.608C8.22 152.608 7.668 152.476 7.188 152.212C6.708 151.94 6.332 151.572 6.06 151.108C5.78 150.636 5.64 150.108 5.64 149.524C5.64 148.932 5.776 148.408 6.048 147.952C6.312 147.488 6.688 147.124 7.176 146.86C7.656 146.596 8.212 146.464 8.844 146.464C8.884 146.464 8.928 146.468 8.976 146.476C9.016 146.476 9.06 146.476 9.108 146.476V151.96H8.472V146.932L8.724 147.268C8.268 147.268 7.864 147.368 7.512 147.568C7.152 147.76 6.872 148.024 6.672 148.36C6.472 148.696 6.372 149.084 6.372 149.524C6.372 149.956 6.472 150.344 6.672 150.688C6.872 151.032 7.152 151.3 7.512 151.492C7.872 151.684 8.284 151.78 8.748 151.78H8.88C9.36 151.78 9.784 151.676 10.152 151.468C10.512 151.252 10.796 150.956 11.004 150.58C11.204 150.196 11.304 149.76 11.304 149.272C11.304 148.888 11.236 148.532 11.1 148.204C10.964 147.868 10.756 147.58 10.476 147.34L11.028 146.86C11.364 147.14 11.62 147.492 11.796 147.916C11.972 148.332 12.06 148.792 12.06 149.296ZM12 142.753L3.6 138.913V138.037L12 134.197V135.133L4.116 138.661V138.301L12 141.829V142.753ZM9.756 141.241L9.036 140.977V136.093L9.756 135.829V141.241ZM5.64 129.772C5.64 129.26 5.74 128.812 5.94 128.428C6.132 128.036 6.428 127.732 6.828 127.516C7.228 127.292 7.732 127.18 8.34 127.18H12V128.032H8.424C7.76 128.032 7.26 128.2 6.924 128.536C6.58 128.864 6.408 129.328 6.408 129.928C6.408 130.376 6.5 130.768 6.684 131.104C6.86 131.432 7.12 131.688 7.464 131.872C7.8 132.048 8.208 132.136 8.688 132.136H12V132.988H5.7V132.172H7.428L7.104 132.304C6.648 132.104 6.292 131.784 6.036 131.344C5.772 130.904 5.64 130.38 5.64 129.772ZM12.06 122.31C12.06 122.918 11.924 123.466 11.652 123.954C11.372 124.434 10.992 124.814 10.512 125.094C10.024 125.374 9.468 125.514 8.844 125.514C8.212 125.514 7.656 125.374 7.176 125.094C6.696 124.814 6.32 124.434 6.048 123.954C5.776 123.474 5.64 122.926 5.64 122.31C5.64 121.686 5.776 121.134 6.048 120.654C6.32 120.166 6.696 119.786 7.176 119.514C7.656 119.234 8.212 119.094 8.844 119.094C9.468 119.094 10.024 119.234 10.512 119.514C10.992 119.786 11.372 120.166 11.652 120.654C11.924 121.142 12.06 121.694 12.06 122.31ZM11.304 122.31C11.304 121.854 11.204 121.45 11.004 121.098C10.796 120.746 10.508 120.47 10.14 120.27C9.764 120.062 9.332 119.958 8.844 119.958C8.348 119.958 7.916 120.062 7.548 120.27C7.18 120.47 6.896 120.746 6.696 121.098C6.488 121.45 6.384 121.85 6.384 122.298C6.384 122.746 6.488 123.146 6.696 123.498C6.896 123.85 7.18 124.13 7.548 124.338C7.916 124.546 8.348 124.65 8.844 124.65C9.332 124.65 9.764 124.546 10.14 124.338C10.508 124.13 10.796 123.85 11.004 123.498C11.204 123.146 11.304 122.75 11.304 122.31ZM5.64 109.483C5.64 108.971 5.74 108.527 5.94 108.151C6.132 107.767 6.428 107.471 6.828 107.263C7.228 107.047 7.732 106.939 8.34 106.939H12V107.791H8.424C7.76 107.791 7.26 107.951 6.924 108.271C6.58 108.583 6.408 109.027 6.408 109.603C6.408 110.035 6.5 110.411 6.684 110.731C6.86 111.043 7.12 111.287 7.464 111.463C7.8 111.631 8.208 111.715 8.688 111.715H12L12 112.567H8.424C7.76 112.567 7.26 112.727 6.924 113.047C6.58 113.367 6.408 113.815 6.408 114.391C6.408 114.815 6.5 115.187 6.684 115.507C6.86 115.827 7.12 116.075 7.464 116.251C7.8 116.419 8.208 116.503 8.688 116.503H12V117.355H5.7V116.539H7.404L7.104 116.671C6.648 116.479 6.292 116.171 6.036 115.747C5.772 115.315 5.64 114.807 5.64 114.223C5.64 113.607 5.796 113.083 6.108 112.651C6.412 112.219 6.872 111.939 7.488 111.811L7.356 112.147C6.844 111.963 6.432 111.639 6.12 111.175C5.8 110.703 5.64 110.139 5.64 109.483ZM12 100.68H10.608L10.38 100.716H8.052C7.516 100.716 7.104 100.868 6.816 101.172C6.528 101.468 6.384 101.912 6.384 102.504C6.384 102.912 6.452 103.3 6.588 103.668C6.724 104.036 6.904 104.348 7.128 104.604L6.492 104.988C6.22 104.668 6.012 104.284 5.868 103.836C5.716 103.388 5.64 102.916 5.64 102.42C5.64 101.604 5.844 100.976 6.252 100.536C6.652 100.088 7.264 99.8644 8.088 99.8644H12V100.68ZM12.06 102.852C12.06 103.324 11.984 103.736 11.832 104.088C11.672 104.432 11.456 104.696 11.184 104.88C10.904 105.064 10.584 105.156 10.224 105.156C9.896 105.156 9.6 105.08 9.336 104.928C9.064 104.768 8.848 104.512 8.688 104.16C8.52 103.8 8.436 103.32 8.436 102.72V100.548H9.072V102.696C9.072 103.304 9.18 103.728 9.396 103.968C9.612 104.2 9.88 104.316 10.2 104.316C10.56 104.316 10.848 104.176 11.064 103.896C11.28 103.616 11.388 103.224 11.388 102.72C11.388 102.24 11.28 101.828 11.064 101.484C10.84 101.132 10.52 100.876 10.104 100.716L10.692 100.524C11.108 100.684 11.44 100.964 11.688 101.364C11.936 101.756 12.06 102.252 12.06 102.852ZM12 97.5503H3.096V96.6983H12V97.5503ZM12 94.3276H5.7V93.4756H12V94.3276ZM4.308 93.8956C4.308 94.0716 4.248 94.2196 4.128 94.3396C4.008 94.4596 3.864 94.5196 3.696 94.5196C3.528 94.5196 3.388 94.4596 3.276 94.3396C3.156 94.2196 3.096 94.0716 3.096 93.8956C3.096 93.7196 3.152 93.5716 3.264 93.4516C3.376 93.3316 3.516 93.2716 3.684 93.2716C3.86 93.2716 4.008 93.3316 4.128 93.4516C4.248 93.5636 4.308 93.7116 4.308 93.8956ZM12.06 88.429C12.06 89.085 11.924 89.661 11.652 90.157C11.372 90.653 10.992 91.041 10.512 91.321C10.024 91.601 9.468 91.741 8.844 91.741C8.22 91.741 7.668 91.609 7.188 91.345C6.708 91.073 6.332 90.705 6.06 90.241C5.78 89.769 5.64 89.241 5.64 88.657C5.64 88.065 5.776 87.541 6.048 87.085C6.312 86.621 6.688 86.257 7.176 85.993C7.656 85.729 8.212 85.597 8.844 85.597C8.884 85.597 8.928 85.601 8.976 85.609C9.016 85.609 9.06 85.609 9.108 85.609V91.093H8.472V86.065L8.724 86.401C8.268 86.401 7.864 86.501 7.512 86.701C7.152 86.893 6.872 87.157 6.672 87.493C6.472 87.829 6.372 88.217 6.372 88.657C6.372 89.089 6.472 89.477 6.672 89.821C6.872 90.165 7.152 90.433 7.512 90.625C7.872 90.817 8.284 90.913 8.748 90.913H8.88C9.36 90.913 9.784 90.809 10.152 90.601C10.512 90.385 10.796 90.089 11.004 89.713C11.204 89.329 11.304 88.893 11.304 88.405C11.304 88.021 11.236 87.665 11.1 87.337C10.964 87.001 10.756 86.713 10.476 86.473L11.028 85.993C11.364 86.273 11.62 86.625 11.796 87.049C11.972 87.465 12.06 87.925 12.06 88.429ZM12.06 82.1708C12.06 82.6908 11.988 83.1828 11.844 83.6468C11.692 84.1108 11.504 84.4748 11.28 84.7388L10.608 84.3548C10.8 84.0988 10.968 83.7708 11.112 83.3708C11.248 82.9708 11.316 82.5508 11.316 82.1108C11.316 81.5108 11.224 81.0788 11.04 80.8148C10.848 80.5508 10.596 80.4188 10.284 80.4188C10.052 80.4188 9.872 80.4948 9.744 80.6468C9.608 80.7908 9.508 80.9828 9.444 81.2228C9.372 81.4628 9.312 81.7308 9.264 82.0268C9.216 82.3228 9.16 82.6188 9.096 82.9148C9.032 83.2028 8.94 83.4668 8.82 83.7068C8.692 83.9468 8.52 84.1428 8.304 84.2948C8.088 84.4388 7.8 84.5108 7.44 84.5108C7.096 84.5108 6.788 84.4148 6.516 84.2228C6.244 84.0308 6.032 83.7508 5.88 83.3828C5.72 83.0068 5.64 82.5508 5.64 82.0148C5.64 81.6068 5.696 81.1988 5.808 80.7908C5.912 80.3828 6.052 80.0468 6.228 79.7828L6.912 80.1548C6.72 80.4348 6.584 80.7348 6.504 81.0548C6.416 81.3748 6.372 81.6948 6.372 82.0148C6.372 82.5828 6.472 83.0028 6.672 83.2748C6.864 83.5388 7.112 83.6708 7.416 83.6708C7.656 83.6708 7.844 83.5988 7.98 83.4548C8.116 83.3028 8.224 83.1068 8.304 82.8668C8.376 82.6188 8.436 82.3508 8.484 82.0628C8.532 81.7668 8.592 81.4748 8.664 81.1868C8.728 80.8908 8.82 80.6228 8.94 80.3828C9.052 80.1348 9.216 79.9388 9.432 79.7948C9.64 79.6428 9.916 79.5668 10.26 79.5668C10.628 79.5668 10.948 79.6708 11.22 79.8788C11.484 80.0788 11.692 80.3748 11.844 80.7668C11.988 81.1508 12.06 81.6188 12.06 82.1708Z" fill="white"/>
<path d="M14.756 3.6H16.7V12H14.756V3.6ZM10.94 12H8.996V3.6H10.94V12ZM14.9 8.556H10.796V6.912H14.9V8.556ZM18.5554 12V5.544H20.4274V12H18.5554ZM19.4914 4.644C19.1474 4.644 18.8674 4.544 18.6514 4.344C18.4354 4.144 18.3274 3.896 18.3274 3.6C18.3274 3.304 18.4354 3.056 18.6514 2.856C18.8674 2.656 19.1474 2.556 19.4914 2.556C19.8354 2.556 20.1154 2.652 20.3314 2.844C20.5474 3.028 20.6554 3.268 20.6554 3.564C20.6554 3.876 20.5474 4.136 20.3314 4.344C20.1234 4.544 19.8434 4.644 19.4914 4.644ZM25.2008 14.424C24.5928 14.424 24.0048 14.348 23.4368 14.196C22.8768 14.052 22.4088 13.832 22.0328 13.536L22.7768 12.192C23.0488 12.416 23.3928 12.592 23.8088 12.72C24.2328 12.856 24.6488 12.924 25.0568 12.924C25.7208 12.924 26.2008 12.776 26.4968 12.48C26.8008 12.184 26.9528 11.744 26.9528 11.16V10.188L27.0728 8.568L27.0488 6.936V5.544H28.8248V10.92C28.8248 12.12 28.5128 13.004 27.8888 13.572C27.2648 14.14 26.3688 14.424 25.2008 14.424ZM24.9128 11.688C24.3128 11.688 23.7688 11.56 23.2808 11.304C22.8008 11.04 22.4128 10.676 22.1168 10.212C21.8288 9.74 21.6848 9.192 21.6848 8.568C21.6848 7.936 21.8288 7.388 22.1168 6.924C22.4128 6.452 22.8008 6.088 23.2808 5.832C23.7688 5.576 24.3128 5.448 24.9128 5.448C25.4568 5.448 25.9368 5.56 26.3528 5.784C26.7688 6 27.0928 6.34 27.3248 6.804C27.5568 7.26 27.6728 7.848 27.6728 8.568C27.6728 9.28 27.5568 9.868 27.3248 10.332C27.0928 10.788 26.7688 11.128 26.3528 11.352C25.9368 11.576 25.4568 11.688 24.9128 11.688ZM25.2848 10.152C25.6128 10.152 25.9048 10.088 26.1608 9.96C26.4168 9.824 26.6168 9.636 26.7608 9.396C26.9048 9.156 26.9768 8.88 26.9768 8.568C26.9768 8.248 26.9048 7.972 26.7608 7.74C26.6168 7.5 26.4168 7.316 26.1608 7.188C25.9048 7.052 25.6128 6.984 25.2848 6.984C24.9568 6.984 24.6648 7.052 24.4088 7.188C24.1528 7.316 23.9488 7.5 23.7968 7.74C23.6528 7.972 23.5808 8.248 23.5808 8.568C23.5808 8.88 23.6528 9.156 23.7968 9.396C23.9488 9.636 24.1528 9.824 24.4088 9.96C24.6648 10.088 24.9568 10.152 25.2848 10.152ZM34.4911 5.448C35.0031 5.448 35.4591 5.552 35.8591 5.76C36.2671 5.96 36.5871 6.272 36.8191 6.696C37.0511 7.112 37.1671 7.648 37.1671 8.304V12H35.2951V8.592C35.2951 8.072 35.1791 7.688 34.9471 7.44C34.7231 7.192 34.4031 7.068 33.9871 7.068C33.6911 7.068 33.4231 7.132 33.1831 7.26C32.9511 7.38 32.7671 7.568 32.6311 7.824C32.5031 8.08 32.4391 8.408 32.4391 8.808V12H30.5671V3.096H32.4391V7.332L32.0191 6.792C32.2511 6.36 32.5831 6.028 33.0151 5.796C33.4471 5.564 33.9391 5.448 34.4911 5.448ZM42.1149 12.096C41.3789 12.096 40.7309 11.952 40.1709 11.664C39.6189 11.376 39.1909 10.984 38.8869 10.488C38.5829 9.984 38.4309 9.412 38.4309 8.772C38.4309 8.124 38.5789 7.552 38.8749 7.056C39.1789 6.552 39.5909 6.16 40.1109 5.88C40.6309 5.592 41.2189 5.448 41.8749 5.448C42.5069 5.448 43.0749 5.584 43.5789 5.856C44.0909 6.12 44.4949 6.504 44.7909 7.008C45.0869 7.504 45.2349 8.1 45.2349 8.796C45.2349 8.868 45.2309 8.952 45.2229 9.048C45.2149 9.136 45.2069 9.22 45.1989 9.3H39.9549V8.208H44.2149L43.4949 8.532C43.4949 8.196 43.4269 7.904 43.2909 7.656C43.1549 7.408 42.9669 7.216 42.7269 7.08C42.4869 6.936 42.2069 6.864 41.8869 6.864C41.5669 6.864 41.2829 6.936 41.0349 7.08C40.7949 7.216 40.6069 7.412 40.4709 7.668C40.3349 7.916 40.2669 8.212 40.2669 8.556V8.844C40.2669 9.196 40.3429 9.508 40.4949 9.78C40.6549 10.044 40.8749 10.248 41.1549 10.392C41.4429 10.528 41.7789 10.596 42.1629 10.596C42.5069 10.596 42.8069 10.544 43.0629 10.44C43.3269 10.336 43.5669 10.18 43.7829 9.972L44.7789 11.052C44.4829 11.388 44.1109 11.648 43.6629 11.832C43.2149 12.008 42.6989 12.096 42.1149 12.096ZM48.6532 12.096C48.1012 12.096 47.5692 12.032 47.0572 11.904C46.5532 11.768 46.1532 11.6 45.8572 11.4L46.4812 10.056C46.7772 10.24 47.1252 10.392 47.5252 10.512C47.9332 10.624 48.3332 10.68 48.7252 10.68C49.1572 10.68 49.4612 10.628 49.6372 10.524C49.8212 10.42 49.9132 10.276 49.9132 10.092C49.9132 9.94 49.8412 9.828 49.6972 9.756C49.5612 9.676 49.3772 9.616 49.1452 9.576C48.9132 9.536 48.6572 9.496 48.3772 9.456C48.1052 9.416 47.8292 9.364 47.5492 9.3C47.2692 9.228 47.0132 9.124 46.7812 8.988C46.5492 8.852 46.3612 8.668 46.2172 8.436C46.0812 8.204 46.0132 7.904 46.0132 7.536C46.0132 7.128 46.1292 6.768 46.3612 6.456C46.6012 6.144 46.9452 5.9 47.3932 5.724C47.8412 5.54 48.3772 5.448 49.0012 5.448C49.4412 5.448 49.8892 5.496 50.3452 5.592C50.8012 5.688 51.1812 5.828 51.4852 6.012L50.8612 7.344C50.5492 7.16 50.2332 7.036 49.9132 6.972C49.6012 6.9 49.2972 6.864 49.0012 6.864C48.5852 6.864 48.2812 6.92 48.0892 7.032C47.8972 7.144 47.8012 7.288 47.8012 7.464C47.8012 7.624 47.8692 7.744 48.0052 7.824C48.1492 7.904 48.3372 7.968 48.5692 8.016C48.8012 8.064 49.0532 8.108 49.3252 8.148C49.6052 8.18 49.8852 8.232 50.1652 8.304C50.4452 8.376 50.6972 8.48 50.9212 8.616C51.1532 8.744 51.3412 8.924 51.4852 9.156C51.6292 9.38 51.7012 9.676 51.7012 10.044C51.7012 10.444 51.5812 10.8 51.3412 11.112C51.1012 11.416 50.7532 11.656 50.2972 11.832C49.8492 12.008 49.3012 12.096 48.6532 12.096ZM55.4962 12.096C54.7362 12.096 54.1442 11.904 53.7202 11.52C53.2962 11.128 53.0842 10.548 53.0842 9.78V4.116H54.9562V9.756C54.9562 10.028 55.0282 10.24 55.1722 10.392C55.3162 10.536 55.5122 10.608 55.7602 10.608C56.0562 10.608 56.3082 10.528 56.5162 10.368L57.0202 11.688C56.8282 11.824 56.5962 11.928 56.3242 12C56.0602 12.064 55.7842 12.096 55.4962 12.096ZM52.0882 7.128V5.688H56.5642V7.128H52.0882Z" fill="white"/>
<path d="M10.996 349V340.6H12.94V347.416H17.152V349H10.996ZM21.143 349.096C20.455 349.096 19.843 348.952 19.307 348.664C18.779 348.376 18.359 347.984 18.047 347.488C17.743 346.984 17.591 346.412 17.591 345.772C17.591 345.124 17.743 344.552 18.047 344.056C18.359 343.552 18.779 343.16 19.307 342.88C19.843 342.592 20.455 342.448 21.143 342.448C21.823 342.448 22.431 342.592 22.967 342.88C23.503 343.16 23.923 343.548 24.227 344.044C24.531 344.54 24.683 345.116 24.683 345.772C24.683 346.412 24.531 346.984 24.227 347.488C23.923 347.984 23.503 348.376 22.967 348.664C22.431 348.952 21.823 349.096 21.143 349.096ZM21.143 347.56C21.455 347.56 21.735 347.488 21.983 347.344C22.231 347.2 22.427 346.996 22.571 346.732C22.715 346.46 22.787 346.14 22.787 345.772C22.787 345.396 22.715 345.076 22.571 344.812C22.427 344.548 22.231 344.344 21.983 344.2C21.735 344.056 21.455 343.984 21.143 343.984C20.831 343.984 20.551 344.056 20.303 344.2C20.055 344.344 19.855 344.548 19.703 344.812C19.559 345.076 19.487 345.396 19.487 345.772C19.487 346.14 19.559 346.46 19.703 346.732C19.855 346.996 20.055 347.2 20.303 347.344C20.551 347.488 20.831 347.56 21.143 347.56ZM27.2345 349L24.9065 342.544H26.6705L28.6025 348.1H27.7625L29.7785 342.544H31.3625L33.3185 348.1H32.4785L34.4705 342.544H36.1265L33.7865 349H31.9745L30.2585 344.236H30.8105L29.0345 349H27.2345ZM40.025 349.096C39.289 349.096 38.641 348.952 38.081 348.664C37.529 348.376 37.101 347.984 36.797 347.488C36.493 346.984 36.341 346.412 36.341 345.772C36.341 345.124 36.489 344.552 36.785 344.056C37.089 343.552 37.501 343.16 38.021 342.88C38.541 342.592 39.129 342.448 39.785 342.448C40.417 342.448 40.985 342.584 41.489 342.856C42.001 343.12 42.405 343.504 42.701 344.008C42.997 344.504 43.145 345.1 43.145 345.796C43.145 345.868 43.141 345.952 43.133 346.048C43.125 346.136 43.117 346.22 43.109 346.3H37.865V345.208H42.125L41.405 345.532C41.405 345.196 41.337 344.904 41.201 344.656C41.065 344.408 40.877 344.216 40.637 344.08C40.397 343.936 40.117 343.864 39.797 343.864C39.477 343.864 39.193 343.936 38.945 344.08C38.705 344.216 38.517 344.412 38.381 344.668C38.245 344.916 38.177 345.212 38.177 345.556V345.844C38.177 346.196 38.253 346.508 38.405 346.78C38.565 347.044 38.785 347.248 39.065 347.392C39.353 347.528 39.689 347.596 40.073 347.596C40.417 347.596 40.717 347.544 40.973 347.44C41.237 347.336 41.477 347.18 41.693 346.972L42.689 348.052C42.393 348.388 42.021 348.648 41.573 348.832C41.125 349.008 40.609 349.096 40.025 349.096ZM46.5633 349.096C46.0113 349.096 45.4793 349.032 44.9673 348.904C44.4633 348.768 44.0633 348.6 43.7673 348.4L44.3913 347.056C44.6873 347.24 45.0353 347.392 45.4353 347.512C45.8433 347.624 46.2433 347.68 46.6353 347.68C47.0673 347.68 47.3713 347.628 47.5473 347.524C47.7313 347.42 47.8233 347.276 47.8233 347.092C47.8233 346.94 47.7513 346.828 47.6073 346.756C47.4713 346.676 47.2873 346.616 47.0553 346.576C46.8233 346.536 46.5673 346.496 46.2873 346.456C46.0153 346.416 45.7393 346.364 45.4593 346.3C45.1793 346.228 44.9233 346.124 44.6913 345.988C44.4593 345.852 44.2713 345.668 44.1273 345.436C43.9913 345.204 43.9233 344.904 43.9233 344.536C43.9233 344.128 44.0393 343.768 44.2713 343.456C44.5113 343.144 44.8553 342.9 45.3033 342.724C45.7513 342.54 46.2873 342.448 46.9113 342.448C47.3513 342.448 47.7993 342.496 48.2553 342.592C48.7113 342.688 49.0913 342.828 49.3953 343.012L48.7713 344.344C48.4593 344.16 48.1433 344.036 47.8233 343.972C47.5113 343.9 47.2073 343.864 46.9113 343.864C46.4953 343.864 46.1913 343.92 45.9993 344.032C45.8073 344.144 45.7113 344.288 45.7113 344.464C45.7113 344.624 45.7793 344.744 45.9153 344.824C46.0593 344.904 46.2473 344.968 46.4793 345.016C46.7113 345.064 46.9633 345.108 47.2353 345.148C47.5153 345.18 47.7953 345.232 48.0753 345.304C48.3553 345.376 48.6073 345.48 48.8313 345.616C49.0633 345.744 49.2513 345.924 49.3953 346.156C49.5393 346.38 49.6113 346.676 49.6113 347.044C49.6113 347.444 49.4913 347.8 49.2513 348.112C49.0113 348.416 48.6633 348.656 48.2073 348.832C47.7593 349.008 47.2113 349.096 46.5633 349.096ZM53.4063 349.096C52.6463 349.096 52.0543 348.904 51.6303 348.52C51.2063 348.128 50.9943 347.548 50.9943 346.78V341.116H52.8663V346.756C52.8663 347.028 52.9383 347.24 53.0823 347.392C53.2263 347.536 53.4223 347.608 53.6703 347.608C53.9663 347.608 54.2183 347.528 54.4263 347.368L54.9303 348.688C54.7383 348.824 54.5063 348.928 54.2343 349C53.9703 349.064 53.6943 349.096 53.4063 349.096ZM49.9983 344.128V342.688H54.4743V344.128H49.9983Z" fill="white"/>
<line x1="24" y1="48" x2="53.0644" y2="48" stroke="white" stroke-width="2" stroke-linecap="round" stroke-dasharray="4 4"/>
<line x1="24" y1="304" x2="53.0644" y2="304" stroke="white" stroke-width="2" stroke-linecap="round" stroke-dasharray="4 4"/>
<path d="M59.764 53V45.32L60.604 46.16H58.084V44.6H61.708V53H59.764ZM66.0232 53.144C65.4392 53.144 64.8592 53.068 64.2832 52.916C63.7152 52.756 63.2272 52.532 62.8192 52.244L63.5872 50.756C63.9072 50.988 64.2752 51.172 64.6912 51.308C65.1152 51.444 65.5432 51.512 65.9752 51.512C66.4632 51.512 66.8472 51.416 67.1272 51.224C67.4072 51.032 67.5472 50.764 67.5472 50.42C67.5472 50.204 67.4912 50.012 67.3792 49.844C67.2672 49.676 67.0672 49.548 66.7792 49.46C66.4992 49.372 66.1032 49.328 65.5912 49.328H63.4432L63.8752 44.6H68.9992V46.16H64.5712L65.5792 45.272L65.2792 48.644L64.2712 47.756H66.0472C66.8792 47.756 67.5472 47.872 68.0512 48.104C68.5632 48.328 68.9352 48.636 69.1672 49.028C69.3992 49.42 69.5152 49.864 69.5152 50.36C69.5152 50.856 69.3912 51.316 69.1432 51.74C68.8952 52.156 68.5112 52.496 67.9912 52.76C67.4792 53.016 66.8232 53.144 66.0232 53.144ZM71.4079 53.096C71.0879 53.096 70.8119 52.988 70.5799 52.772C70.3559 52.548 70.2439 52.264 70.2439 51.92C70.2439 51.576 70.3559 51.3 70.5799 51.092C70.8119 50.876 71.0879 50.768 71.4079 50.768C71.7359 50.768 72.0119 50.876 72.2359 51.092C72.4599 51.3 72.5719 51.576 72.5719 51.92C72.5719 52.264 72.4599 52.548 72.2359 52.772C72.0119 52.988 71.7359 53.096 71.4079 53.096ZM73.4897 53V51.74L76.7298 48.68C76.9858 48.448 77.1738 48.24 77.2938 48.056C77.4138 47.872 77.4938 47.704 77.5338 47.552C77.5818 47.4 77.6058 47.26 77.6058 47.132C77.6058 46.796 77.4898 46.54 77.2578 46.364C77.0338 46.18 76.7018 46.088 76.2617 46.088C75.9098 46.088 75.5818 46.156 75.2778 46.292C74.9818 46.428 74.7298 46.64 74.5218 46.928L73.1058 46.016C73.4258 45.536 73.8738 45.156 74.4498 44.876C75.0258 44.596 75.6898 44.456 76.4418 44.456C77.0658 44.456 77.6098 44.56 78.0738 44.768C78.5458 44.968 78.9098 45.252 79.1658 45.62C79.4298 45.988 79.5618 46.428 79.5618 46.94C79.5618 47.212 79.5258 47.484 79.4538 47.756C79.3898 48.02 79.2538 48.3 79.0458 48.596C78.8458 48.892 78.5498 49.224 78.1578 49.592L75.4698 52.124L75.0978 51.416H79.8378V53H73.4897ZM86.0783 48.608C85.6863 48.608 85.3303 48.52 85.0103 48.344C84.6903 48.16 84.4343 47.912 84.2423 47.6C84.0583 47.288 83.9663 46.94 83.9663 46.556C83.9663 46.172 84.0583 45.824 84.2423 45.512C84.4343 45.2 84.6903 44.952 85.0103 44.768C85.3303 44.584 85.6863 44.492 86.0783 44.492C86.4703 44.492 86.8223 44.584 87.1343 44.768C87.4543 44.952 87.7063 45.2 87.8903 45.512C88.0823 45.824 88.1783 46.172 88.1783 46.556C88.1783 46.94 88.0823 47.288 87.8903 47.6C87.7063 47.904 87.4543 48.148 87.1343 48.332C86.8223 48.516 86.4703 48.608 86.0783 48.608ZM86.0783 47.684C86.2863 47.684 86.4743 47.636 86.6423 47.54C86.8103 47.436 86.9423 47.3 87.0383 47.132C87.1343 46.964 87.1823 46.772 87.1823 46.556C87.1823 46.34 87.1343 46.148 87.0383 45.98C86.9423 45.804 86.8103 45.668 86.6423 45.572C86.4743 45.476 86.2863 45.428 86.0783 45.428C85.8623 45.428 85.6703 45.476 85.5023 45.572C85.3343 45.668 85.2023 45.8 85.1063 45.968C85.0103 46.136 84.9623 46.332 84.9623 46.556C84.9623 46.772 85.0103 46.964 85.1063 47.132C85.2023 47.3 85.3343 47.436 85.5023 47.54C85.6703 47.636 85.8623 47.684 86.0783 47.684ZM93.7191 53.144C93.0711 53.144 92.4671 53.04 91.9071 52.832C91.3551 52.616 90.8751 52.312 90.4671 51.92C90.0591 51.528 89.7391 51.068 89.5071 50.54C89.2831 50.012 89.1711 49.432 89.1711 48.8C89.1711 48.168 89.2831 47.588 89.5071 47.06C89.7391 46.532 90.0591 46.072 90.4671 45.68C90.8831 45.288 91.3671 44.988 91.9191 44.78C92.4711 44.564 93.0751 44.456 93.7311 44.456C94.4591 44.456 95.1151 44.584 95.6991 44.84C96.2911 45.088 96.7871 45.456 97.1871 45.944L95.9391 47.096C95.6511 46.768 95.3311 46.524 94.9791 46.364C94.6271 46.196 94.2431 46.112 93.8271 46.112C93.4351 46.112 93.0751 46.176 92.7471 46.304C92.4191 46.432 92.1351 46.616 91.8951 46.856C91.6551 47.096 91.4671 47.38 91.3311 47.708C91.2031 48.036 91.1391 48.4 91.1391 48.8C91.1391 49.2 91.2031 49.564 91.3311 49.892C91.4671 50.22 91.6551 50.504 91.8951 50.744C92.1351 50.984 92.4191 51.168 92.7471 51.296C93.0751 51.424 93.4351 51.488 93.8271 51.488C94.2431 51.488 94.6271 51.408 94.9791 51.248C95.3311 51.08 95.6511 50.828 95.9391 50.492L97.1871 51.644C96.7871 52.132 96.2911 52.504 95.6991 52.76C95.1151 53.016 94.4551 53.144 93.7191 53.144Z" fill="white"/>
<path d="M58.624 306.372V304.872H62.02V306.372H58.624ZM64.1351 309V301.32L64.9751 302.16H62.4551V300.6H66.0791V309H64.1351ZM71.0183 309.144C70.3143 309.144 69.6983 309.04 69.1703 308.832C68.6423 308.616 68.2303 308.316 67.9343 307.932C67.6383 307.54 67.4903 307.084 67.4903 306.564C67.4903 306.044 67.6343 305.604 67.9223 305.244C68.2183 304.876 68.6303 304.6 69.1583 304.416C69.6863 304.224 70.3063 304.128 71.0183 304.128C71.7383 304.128 72.3623 304.224 72.8903 304.416C73.4263 304.6 73.8383 304.876 74.1263 305.244C74.4223 305.604 74.5703 306.044 74.5703 306.564C74.5703 307.084 74.4223 307.54 74.1263 307.932C73.8303 308.316 73.4143 308.616 72.8783 308.832C72.3503 309.04 71.7303 309.144 71.0183 309.144ZM71.0183 307.716C71.5063 307.716 71.8903 307.608 72.1703 307.392C72.4583 307.176 72.6023 306.88 72.6023 306.504C72.6023 306.128 72.4583 305.836 72.1703 305.628C71.8903 305.412 71.5063 305.304 71.0183 305.304C70.5383 305.304 70.1583 305.412 69.8783 305.628C69.5983 305.836 69.4583 306.128 69.4583 306.504C69.4583 306.88 69.5983 307.176 69.8783 307.392C70.1583 307.608 70.5383 307.716 71.0183 307.716ZM71.0183 305.112C70.3703 305.112 69.8023 305.024 69.3143 304.848C68.8343 304.672 68.4583 304.416 68.1863 304.08C67.9223 303.736 67.7903 303.328 67.7903 302.856C67.7903 302.36 67.9263 301.936 68.1983 301.584C68.4703 301.224 68.8503 300.948 69.3383 300.756C69.8263 300.556 70.3863 300.456 71.0183 300.456C71.6663 300.456 72.2303 300.556 72.7103 300.756C73.1983 300.948 73.5783 301.224 73.8503 301.584C74.1303 301.936 74.2703 302.36 74.2703 302.856C74.2703 303.328 74.1343 303.736 73.8623 304.08C73.5983 304.416 73.2223 304.672 72.7343 304.848C72.2463 305.024 71.6743 305.112 71.0183 305.112ZM71.0183 303.972C71.4263 303.972 71.7463 303.88 71.9783 303.696C72.2183 303.512 72.3383 303.26 72.3383 302.94C72.3383 302.604 72.2143 302.344 71.9663 302.16C71.7263 301.976 71.4103 301.884 71.0183 301.884C70.6343 301.884 70.3223 301.976 70.0823 302.16C69.8423 302.344 69.7223 302.604 69.7223 302.94C69.7223 303.26 69.8383 303.512 70.0703 303.696C70.3023 303.88 70.6183 303.972 71.0183 303.972ZM76.6814 309.096C76.3614 309.096 76.0854 308.988 75.8534 308.772C75.6294 308.548 75.5174 308.264 75.5174 307.92C75.5174 307.576 75.6294 307.3 75.8534 307.092C76.0854 306.876 76.3614 306.768 76.6814 306.768C77.0094 306.768 77.2854 306.876 77.5094 307.092C77.7334 307.3 77.8454 307.576 77.8454 307.92C77.8454 308.264 77.7334 308.548 77.5094 308.772C77.2854 308.988 77.0094 309.096 76.6814 309.096ZM78.7632 309V307.74L82.0032 304.68C82.2592 304.448 82.4472 304.24 82.5672 304.056C82.6872 303.872 82.7672 303.704 82.8072 303.552C82.8552 303.4 82.8792 303.26 82.8792 303.132C82.8792 302.796 82.7632 302.54 82.5312 302.364C82.3072 302.18 81.9752 302.088 81.5352 302.088C81.1832 302.088 80.8552 302.156 80.5512 302.292C80.2552 302.428 80.0032 302.64 79.7952 302.928L78.3792 302.016C78.6992 301.536 79.1472 301.156 79.7232 300.876C80.2992 300.596 80.9632 300.456 81.7152 300.456C82.3392 300.456 82.8832 300.56 83.3472 300.768C83.8192 300.968 84.1832 301.252 84.4392 301.62C84.7032 301.988 84.8352 302.428 84.8352 302.94C84.8352 303.212 84.7992 303.484 84.7272 303.756C84.6632 304.02 84.5272 304.3 84.3192 304.596C84.1192 304.892 83.8232 305.224 83.4312 305.592L80.7432 308.124L80.3712 307.416H85.1112V309H78.7632ZM91.3518 304.608C90.9598 304.608 90.6038 304.52 90.2838 304.344C89.9638 304.16 89.7078 303.912 89.5158 303.6C89.3318 303.288 89.2397 302.94 89.2397 302.556C89.2397 302.172 89.3318 301.824 89.5158 301.512C89.7078 301.2 89.9638 300.952 90.2838 300.768C90.6038 300.584 90.9598 300.492 91.3518 300.492C91.7438 300.492 92.0958 300.584 92.4078 300.768C92.7278 300.952 92.9798 301.2 93.1638 301.512C93.3558 301.824 93.4518 302.172 93.4518 302.556C93.4518 302.94 93.3558 303.288 93.1638 303.6C92.9798 303.904 92.7278 304.148 92.4078 304.332C92.0958 304.516 91.7438 304.608 91.3518 304.608ZM91.3518 303.684C91.5598 303.684 91.7478 303.636 91.9158 303.54C92.0838 303.436 92.2158 303.3 92.3118 303.132C92.4078 302.964 92.4558 302.772 92.4558 302.556C92.4558 302.34 92.4078 302.148 92.3118 301.98C92.2158 301.804 92.0838 301.668 91.9158 301.572C91.7478 301.476 91.5598 301.428 91.3518 301.428C91.1358 301.428 90.9438 301.476 90.7758 301.572C90.6078 301.668 90.4758 301.8 90.3798 301.968C90.2838 302.136 90.2358 302.332 90.2358 302.556C90.2358 302.772 90.2838 302.964 90.3798 303.132C90.4758 303.3 90.6078 303.436 90.7758 303.54C90.9438 303.636 91.1358 303.684 91.3518 303.684ZM98.9926 309.144C98.3446 309.144 97.7406 309.04 97.1806 308.832C96.6286 308.616 96.1486 308.312 95.7406 307.92C95.3326 307.528 95.0126 307.068 94.7806 306.54C94.5566 306.012 94.4446 305.432 94.4446 304.8C94.4446 304.168 94.5566 303.588 94.7806 303.06C95.0126 302.532 95.3326 302.072 95.7406 301.68C96.1566 301.288 96.6406 300.988 97.1926 300.78C97.7446 300.564 98.3486 300.456 99.0046 300.456C99.7326 300.456 100.389 300.584 100.973 300.84C101.565 301.088 102.061 301.456 102.461 301.944L101.213 303.096C100.925 302.768 100.605 302.524 100.253 302.364C99.9006 302.196 99.5166 302.112 99.1006 302.112C98.7086 302.112 98.3486 302.176 98.0206 302.304C97.6926 302.432 97.4086 302.616 97.1686 302.856C96.9286 303.096 96.7406 303.38 96.6046 303.708C96.4766 304.036 96.4126 304.4 96.4126 304.8C96.4126 305.2 96.4766 305.564 96.6046 305.892C96.7406 306.22 96.9286 306.504 97.1686 306.744C97.4086 306.984 97.6926 307.168 98.0206 307.296C98.3486 307.424 98.7086 307.488 99.1006 307.488C99.5166 307.488 99.9006 307.408 100.253 307.248C100.605 307.08 100.925 306.828 101.213 306.492L102.461 307.644C102.061 308.132 101.565 308.504 100.973 308.76C100.389 309.016 99.7286 309.144 98.9926 309.144Z" fill="white"/>
<defs>
<linearGradient id="paint0_linear_858_5674" x1="33" y1="26" x2="33" y2="326" gradientUnits="userSpaceOnUse">
<stop stop-color="#FF0000"/>
<stop offset="0.5" stop-color="white"/>
<stop offset="1" stop-color="#0000FF"/>
</linearGradient>
</defs>
</svg>
